<?xml version="1.0" encoding="UTF-8" standalone="no"?>
<!-- Created with Inkscape (http://www.inkscape.org/) -->

<svg
   xmlns:dc="http://purl.org/dc/elements/1.1/"
   xmlns:cc="http://creativecommons.org/ns#"
   xmlns:rdf="http://www.w3.org/1999/02/22-rdf-syntax-ns#"
   xmlns:svg="http://www.w3.org/2000/svg"
   xmlns="http://www.w3.org/2000/svg"
   xmlns:sodipodi="http://sodipodi.sourceforge.net/DTD/sodipodi-0.dtd"
   xmlns:inkscape="http://www.inkscape.org/namespaces/inkscape"
   width="20"
   height="20"
   viewBox="0 0 20 20"
   id="svg7939"
   version="1.1"
   inkscape:version="0.91 r13725"
   sodipodi:docname="ubahn.svg"
   inkscape:export-filename="C:\02_DEV\01_projects\02_indrz\gitlab_wu\indrz\homepage\static\homepage\img\ubahn.png"
   inkscape:export-xdpi="179.99998"
   inkscape:export-ydpi="179.99998">
  <defs
     id="defs7941" />
  <sodipodi:namedview
     id="base"
     pagecolor="#ffffff"
     bordercolor="#666666"
     borderopacity="1.0"
     inkscape:pageopacity="0.0"
     inkscape:pageshadow="2"
     inkscape:zoom="11.2"
     inkscape:cx="-21.137635"
     inkscape:cy="1.5097539"
     inkscape:document-units="px"
     inkscape:current-layer="layer1"
     showgrid="false"
     fit-margin-top="0"
     fit-margin-left="0"
     fit-margin-right="0"
     fit-margin-bottom="0"
     inkscape:window-width="1600"
     inkscape:window-height="837"
     inkscape:window-x="1912"
     inkscape:window-y="74"
     inkscape:window-maximized="1"
     units="px" />
  <metadata
     id="metadata7944">
    <rdf:RDF>
      <cc:Work
         rdf:about="">
        <dc:format>image/svg+xml</dc:format>
        <dc:type
           rdf:resource="http://purl.org/dc/dcmitype/StillImage" />
        <dc:title />
      </cc:Work>
    </rdf:RDF>
  </metadata>
  <g
     inkscape:label="Layer 1"
     inkscape:groupmode="layer"
     id="layer1"
     transform="translate(-595.6084,-394.87881)">
    <rect
       style="color:#000000;clip-rule:nonzero;display:inline;overflow:visible;visibility:visible;opacity:1;isolation:auto;mix-blend-mode:normal;color-interpolation:sRGB;color-interpolation-filters:linearRGB;solid-color:#000000;solid-opacity:1;fill:#003366;fill-opacity:1;fill-rule:nonzero;stroke:none;stroke-width:5.4000001;stroke-linecap:butt;stroke-linejoin:miter;stroke-miterlimit:4;stroke-dasharray:none;stroke-dashoffset:0;stroke-opacity:1;marker:none;color-rendering:auto;image-rendering:auto;shape-rendering:auto;text-rendering:auto;enable-background:accumulate"
       id="rect7942-3"
       width="16"
       height="16"
       x="597.66199"
       y="397.27167"
       ry="1.7778685" />
    <g
       style="display:inline"
       id="g14575-8-9-0"
       transform="matrix(0.67762459,0,0,0.67762459,241.7562,249.34027)"
       inkscape:export-filename="c:\02_DEV\01_projects\02_indrz\gitlab_wu\indrz\homepage\static\homepage\img\access_public_ubahn.png"
       inkscape:export-xdpi="90"
       inkscape:export-ydpi="90">
      <path
         id="path2251-1-3-8-6-7"
         d="m 530.21875,223.0625 c -0.3272,0 -0.49118,0.31025 -0.625,0.625 -0.54619,1.50591 -1.08114,3.01228 -1.28125,4.65625 -0.0415,1.44246 -0.11105,2.86823 -0.0937,4.34375 0,0.87257 0.88152,2.21875 1.625,2.21875 l 15.78125,0 c 0.1019,0 0.21875,-0.13938 0.21875,-0.25 l 0,-2.8125 c -3.71446,-0.78061 -6.95427,-2.9966 -8.59375,-7.625 -0.23628,-0.69466 -0.79365,-0.88809 -1.3125,-1.15625 l -5.71875,0 z m -0.0312,0.96875 5.5,0 c 0.35921,0 0.67827,1.54898 0.9375,2.34375 0.0825,0.25828 0.0182,0.65625 -0.15625,0.65625 l -7.1875,0 c -0.16511,0 -0.22565,-0.31131 -0.15625,-0.625 0.34904,-0.78927 0.76338,-2.375 1.0625,-2.375 z m 7.6875,3.40625 c 0.40386,0.44906 0.81306,1.06208 1.1875,1.34375 l 0,2.75 L 538,230.9375 c -0.10392,-1.15493 -0.11886,-2.32267 -0.125,-3.5 z m 1.8125,2 c 0.45165,0.43993 0.64087,0.51641 1.03125,0.84375 l 0.0312,2.09375 -1.0625,-0.5 c -0.0241,-1.15493 0.006,-1.26016 0,-2.4375 z m -9.75,0.78125 c 0.3622,0 0.65625,0.33454 0.65625,0.75 0,0.41543 -0.29405,0.75 -0.65625,0.75 -0.36219,0 -0.65625,-0.33457 -0.65625,-0.75 0,-0.41546 0.29406,-0.75 0.65625,-0.75 z m 5.40625,0 c 0.36219,0 0.65625,0.33454 0.65625,0.75 0,0.41543 -0.29406,0.75 -0.65625,0.75 -0.3622,0 -0.625,-0.33457 -0.625,-0.75 0,-0.41546 0.2628,-0.75 0.625,-0.75 z m 5.9375,0.4375 1,0.46875 0,1.75 c -0.37412,-0.0469 -0.70086,-0.15932 -1,-0.34375 l 0,-1.875 z m 1.4375,0.71875 0.8125,0.21875 0,1.59375 c -0.27642,-0.0142 -0.55098,-0.0708 -0.8125,-0.1875 l 0,-1.625 z m 1.21875,0.40625 0.65625,0.125 0,1.4375 c -0.22977,0.0171 -0.44147,-0.0248 -0.65625,-0.0937 l 0,-1.46875 z M 544.9688,232 l 0.53125,0.0625 0,1.4375 -0.53125,-0.125 0,-1.375 z"
         style="display:inline;fill:#ffffff;fill-opacity:1;fill-rule:evenodd;stroke:none"
         inkscape:connector-curvature="0" />
      <path
         id="path2283-0-4-1-3-6"
         style="display:inline;fill:#ffffff;fill-opacity:1;fill-rule:evenodd;stroke:none"
         d="m 528.2158,236.06516 1.36202,0 0,-0.78234 2.05223,0 0,0.77293 3.00668,0 0,-0.77527 11.2126,0 0,0.78702 c -3.15961,0.13248 -6.37835,0.2357 -8.05023,1.09945 l -9.58533,0 0.002,-1.10179 z"
         inkscape:connector-curvature="0" />
    </g>
  </g>
</svg>
