<?xml version="1.0" encoding="utf-8"?>
<!-- Generator: Adobe Illustrator 16.0.0, SVG Export Plug-In . SVG Version: 6.00 Build 0)  -->
<!DOCTYPE svg PUBLIC "-//W3C//DTD SVG 1.1//EN" "http://www.w3.org/Graphics/SVG/1.1/DTD/svg11.dtd">
<svg version="1.1" id="Ebene_1" xmlns="http://www.w3.org/2000/svg" xmlns:xlink="http://www.w3.org/1999/xlink" x="0px" y="0px"
	 width="159.449px" height="159.449px" viewBox="0 0 159.449 159.449" enable-background="new 0 0 159.449 159.449"
	 xml:space="preserve">
<g>
	<path fill="#006699" d="M10.099,159.449h139.252c5.582,0,10.098-4.516,10.098-10.098V10.099C159.449,4.517,154.934,0,149.352,0
		H10.099C4.516,0,0,4.517,0,10.099v139.253C0,154.934,4.516,159.449,10.099,159.449"/>
	<g>
		<defs>
			<rect id="SVGID_1_" width="159.449" height="159.449"/>
		</defs>
		<clipPath id="SVGID_2_">
			<use xlink:href="#SVGID_1_"  overflow="visible"/>
		</clipPath>
		<path clip-path="url(#SVGID_2_)" fill="none" stroke="#FFFFFF" stroke-width="27.5" d="M79.725,125.738
			c25.412,0,46.013-20.602,46.013-46.014S105.137,33.71,79.725,33.71c-25.413,0-46.014,20.601-46.014,46.014
			S54.312,125.738,79.725,125.738L79.725,125.738z"/>
	</g>
</g>
</svg>
