<?xml version="1.0" encoding="utf-8"?>
<!-- Generator: Adobe Illustrator 16.0.0, SVG Export Plug-In . SVG Version: 6.00 Build 0)  -->
<!DOCTYPE svg PUBLIC "-//W3C//DTD SVG 1.1//EN" "http://www.w3.org/Graphics/SVG/1.1/DTD/svg11.dtd">
<svg version="1.1" id="Ebene_1" xmlns="http://www.w3.org/2000/svg" xmlns:xlink="http://www.w3.org/1999/xlink" x="0px" y="0px"
	 width="159.449px" height="159.449px" viewBox="0 0 159.449 159.449" enable-background="new 0 0 159.449 159.449"
	 xml:space="preserve">
<g>
	<g>
		<defs>
			<rect id="SVGID_1_" width="159.449" height="159.449"/>
		</defs>
		<clipPath id="SVGID_2_">
			<use xlink:href="#SVGID_1_"  overflow="visible"/>
		</clipPath>
		<path clip-path="url(#SVGID_2_)" fill="#006699" d="M10.099,159.449H149.35c5.584,0,10.1-4.516,10.1-10.098V10.099
			c0-5.582-4.516-10.099-10.1-10.099H10.099C4.516,0,0,4.517,0,10.099v139.253C0,154.934,4.516,159.449,10.099,159.449"/>
	</g>
	<path fill="#FFFFFF" d="M135.898,125.367l-2.629-60.44c0-1.787-0.951-4.007-1.982-4.791c-6.92-5.27-14.492-7.775-28.387-7.775
		c-13.893,0-21.467,2.505-28.385,7.775c-1.033,0.784-1.987,3.004-1.987,4.791l-2.63,60.44c0,3.377,2.735,6.102,6.105,6.102
		c3.366,0,6.101-2.725,6.101-6.102l2.137-49.819h3.201l-2.17,39.032l0.002,28.65h35.248v-28.65l-2.166-39.032h3.199l2.146,49.819
		c0,3.377,2.725,6.102,6.098,6.102C133.17,131.469,135.898,128.744,135.898,125.367L135.898,125.367z M116.73,35.78
		c0-7.645-6.189-13.838-13.83-13.838c-7.637,0-13.83,6.193-13.83,13.838c0,7.636,6.193,13.827,13.83,13.827
		C110.541,49.607,116.73,43.417,116.73,35.78L116.73,35.78z"/>
	<polyline fill="#006699" points="101.123,62.771 101.123,133.684 103.664,133.684 103.664,62.771 	"/>
	<path fill="#FFFFFF" d="M96.238,133.648l-9.934-60.704c-0.621-3.893-5.047-6.916-7.299-7.969c-5.431-2.545-12.199-3.68-21.947-3.68
		c-9.755,0-16.525,1.135-21.952,3.68c-2.254,1.054-6.681,4.079-7.292,7.976l-9.929,60.697c-0.614,3.912,2.056,7.588,5.952,8.201
		c0.401,0.049,0.76,0.08,1.122,0.08c3.543,0,6.516-2.541,7.068-6.041c2.87-16.664,5.74-33.324,8.61-49.986c0.294,0,0.589,0,0.884,0
		c-2.601,17.318-4.855,30.924-7.037,44.09l-1.662,10.064l-0.202,1.23h1.247h47.377h1.248l-0.203-1.229
		c-1.08-6.602-2.372-13.33-3.74-20.455c-1.885-9.82-4.014-20.91-5.959-33.701c0.297,0,0.593,0,0.89,0
		c2.872,16.666,5.743,33.332,8.614,50c0.529,3.428,3.562,6.027,7.053,6.027c0.361,0,0.734-0.031,1.1-0.076
		c3.926-0.617,6.6-4.293,5.99-8.197 M57.059,60.069c8.212,0,14.893-6.678,14.893-14.886c0-8.214-6.681-14.897-14.893-14.897
		c-8.211,0-14.891,6.683-14.891,14.897C42.168,53.392,48.848,60.069,57.059,60.069"/>
	<path fill="#006699" d="M97.283,133.479l-9.932-60.705v0.004c-0.377-2.299-1.801-4.188-3.359-5.655
		c-1.572-1.469-3.306-2.528-4.538-3.106c-5.635-2.639-12.572-3.779-22.396-3.779c-9.831,0-16.769,1.14-22.401,3.78l-0.044,0.021
		l0.045-0.021c-1.232,0.579-2.968,1.639-4.539,3.109c-1.558,1.469-2.981,3.36-3.351,5.663l0.001-0.007l-9.93,60.702l0,0.002
		c-0.068,0.432-0.101,0.861-0.101,1.287c0,3.984,2.889,7.484,6.935,8.123l0.017,0.002l0.016,0.002
		c0.425,0.055,0.831,0.09,1.254,0.09c4.059,0.004,7.486-2.926,8.115-6.936l-1.046-0.164l1.044,0.178
		c2.87-16.662,5.74-33.322,8.61-49.984l-1.043-0.18v1.059c0.294,0,0.589,0,0.884,0v-1.059l-1.048-0.158
		c-2.6,17.311-4.852,30.908-7.034,44.076l-1.662,10.064l-0.405,2.463h2.495h47.377h1.248h1.246l-0.404-2.461
		c-1.084-6.621-2.376-13.359-3.745-20.482c-1.885-9.822-4.01-20.895-5.952-33.662l-1.047,0.16v1.059c0.297,0,0.593,0,0.89,0v-1.059
		l-1.044,0.18c2.872,16.666,5.743,33.332,8.615,50l1.043-0.18l-1.045,0.162c0.617,3.955,4.076,6.918,8.098,6.924
		c0.422,0,0.836-0.035,1.23-0.084l0.016-0.002l0.018-0.002c4.074-0.643,6.973-4.148,6.973-8.135c0-0.42-0.033-0.846-0.1-1.271
		l-2.092,0.326c0.049,0.318,0.072,0.633,0.072,0.945c0,2.953-2.152,5.566-5.184,6.041l0.166,1.047l-0.133-1.051
		c-0.334,0.041-0.666,0.068-0.967,0.068c-2.959,0.008-5.564-2.229-6.006-5.131v-0.01l-0.002-0.008
		c-2.872-16.668-5.743-33.334-8.615-50l-0.152-0.881h-0.892c-0.297,0-0.593,0-0.89,0h-1.232l0.186,1.219
		c1.949,12.816,4.081,23.922,5.966,33.742c1.368,7.125,2.657,13.846,3.735,20.426H33.869h-1.247v1.059l1.045,0.174l0.202-1.232
		l1.663-10.064c2.181-13.166,4.436-26.779,7.039-44.105l0.183-1.217h-1.23c-0.295,0-0.589,0-0.884,0h-0.893l-0.151,0.881
		c-2.87,16.662-5.74,33.324-8.61,49.984l-0.001,0.01l-0.001,0.006c-0.477,2.992-2.995,5.145-6.022,5.148
		c-0.301,0-0.612-0.025-0.989-0.072l-0.132,1.051l0.165-1.047c-2.995-0.469-5.146-3.078-5.146-6.031
		c0-0.316,0.024-0.635,0.075-0.959l-0.001,0.008l9.93-60.702l0-0.003c0.241-1.595,1.337-3.166,2.708-4.446
		c1.359-1.279,2.963-2.259,3.985-2.734l0.001,0c5.221-2.45,11.823-3.58,21.502-3.58c9.672,0,16.272,1.129,21.498,3.58
		c1.022,0.476,2.625,1.455,3.986,2.733c1.371,1.28,2.471,2.85,2.717,4.444v0.004l9.934,60.705L97.283,133.479L97.283,133.479z
		 M57.059,61.128c8.799-0.002,15.95-7.149,15.953-15.945c-0.002-8.801-7.153-15.955-15.953-15.957
		c-8.798,0.002-15.949,7.155-15.951,15.957C41.111,53.979,48.261,61.126,57.059,61.128V59.01c-3.815,0-7.268-1.549-9.776-4.055
		c-2.507-2.508-4.056-5.958-4.056-9.772c0-3.817,1.549-7.271,4.056-9.78c2.509-2.508,5.96-4.058,9.776-4.058
		c3.815,0,7.268,1.55,9.777,4.058c2.507,2.51,4.056,5.963,4.057,9.78c0,3.814-1.549,7.265-4.057,9.772
		c-2.509,2.506-5.961,4.055-9.777,4.055V61.128L57.059,61.128z"/>
	<polyline fill="#006699" points="55.416,62.172 55.416,90.881 57.958,90.881 57.958,62.172 	"/>
	<polyline fill="#006699" points="62.09,79.655 71.096,79.655 71.096,77.112 62.09,77.112 	"/>
	<path fill="#FFFFFF" d="M120.982,32.227c-0.564-9.475-8.449-17.009-18.059-17.009c-9.611,0-17.496,7.534-18.061,17.009
		C96.902,32.227,108.943,32.227,120.982,32.227L120.982,32.227z"/>
	<path fill="#006699" d="M120.982,32.227l1.09-0.065c-0.602-10.05-8.957-18.032-19.148-18.035
		c-10.193,0.002-18.549,7.984-19.15,18.035l-0.068,1.156h1.158c12.039,0,24.08,0,36.119,0h1.158l-0.068-1.156L120.982,32.227v-1.091
		c-12.039,0-24.08,0-36.119,0v1.091l1.09,0.065c0.529-8.899,7.943-15.985,16.971-15.983c9.027-0.002,16.439,7.084,16.969,15.983
		L120.982,32.227v-1.091V32.227L120.982,32.227z"/>
	<path fill="#FFFFFF" d="M96.254,24.41c0-3.842,0-7.684,0-11.525c4.447,0,8.893,0,13.338,0c0,3.792,0,7.584,0,11.377"/>
	<path fill="#006699" d="M97.346,24.41c0-3.842,0-7.684,0-11.525h-1.092v1.091c4.447,0,8.893,0,13.338,0v-1.091h-1.09
		c0,3.792,0,7.584,0,11.377h2.182c0-3.792,0-7.585,0-11.377v-1.091h-1.092c-4.445,0-8.891,0-13.338,0h-1.092v1.091
		c0,3.842,0,7.683,0,11.525H97.346L97.346,24.41z"/>
</g>
</svg>
