<?xml version="1.0" encoding="utf-8"?>
<!-- Generator: Adobe Illustrator 16.0.0, SVG Export Plug-In . SVG Version: 6.00 Build 0)  -->
<!DOCTYPE svg PUBLIC "-//W3C//DTD SVG 1.1//EN" "http://www.w3.org/Graphics/SVG/1.1/DTD/svg11.dtd">
<svg version="1.1" id="Ebene_1" xmlns="http://www.w3.org/2000/svg" xmlns:xlink="http://www.w3.org/1999/xlink" x="0px" y="0px"
	 width="159.449px" height="159.449px" viewBox="0 0 159.449 159.449" enable-background="new 0 0 159.449 159.449"
	 xml:space="preserve">
<g>
	<g>
		<defs>
			<rect id="SVGID_1_" width="159.449" height="159.449"/>
		</defs>
		<clipPath id="SVGID_2_">
			<use xlink:href="#SVGID_1_"  overflow="visible"/>
		</clipPath>
		<path clip-path="url(#SVGID_2_)" fill="#006699" d="M159.449,149.391c0,5.576-4.531,10.059-10.109,10.059H10.109
			C4.533,159.449,0,154.967,0,149.391V10.06C0,4.482,4.533,0,10.109,0h139.23c5.578,0,10.109,4.482,10.109,10.06V149.391
			L159.449,149.391z"/>
		<path clip-path="url(#SVGID_2_)" fill="none" stroke="#FFFFFF" stroke-width="4.5" stroke-miterlimit="10" d="M64.543,94.367
			c0-14.086-11.419-25.505-25.506-25.505S13.532,80.281,13.532,94.367s11.419,25.506,25.506,25.506S64.543,108.453,64.543,94.367
			L64.543,94.367z M146.312,94.367c0-14.086-11.418-25.505-25.506-25.505c-14.086,0-25.504,11.419-25.504,25.505
			s11.418,25.506,25.504,25.506C134.895,119.873,146.312,108.453,146.312,94.367L146.312,94.367z"/>
	</g>
	<path fill="#FFFFFF" d="M44.026,94.367c0-2.764-2.24-5.004-5.005-5.004s-5.005,2.24-5.005,5.004c0,2.766,2.24,5.006,5.005,5.006
		S44.026,97.133,44.026,94.367"/>
	<path fill="#FFFFFF" d="M125.4,94.367c0-2.764-2.242-5.004-5.006-5.004s-5.006,2.24-5.006,5.004c0,2.766,2.242,5.006,5.006,5.006
		S125.4,97.133,125.4,94.367"/>
	<polygon fill="#FFFFFF" points="81.492,96.756 42.639,96.756 42.639,91.75 81.492,91.75 81.492,96.756 	"/>
	<polygon fill="#FFFFFF" points="105.082,63.51 55.524,63.51 55.524,58.505 105.082,58.505 105.082,63.51 	"/>
	<polygon fill="#FFFFFF" points="117.652,94.238 101.447,59.249 105.99,57.145 122.193,92.135 117.652,94.238 	"/>
	<polygon fill="#FFFFFF" points="78.405,95.121 50.964,54.114 55.124,51.331 82.564,92.338 78.405,95.121 	"/>
	<polygon fill="#FFFFFF" points="77.342,93.959 99.844,60.562 103.994,63.359 81.492,96.756 77.342,93.959 	"/>
	<polygon fill="#FFFFFF" points="37.379,91.977 56.146,58.292 60.518,60.728 41.752,94.412 37.379,91.977 	"/>
	<path fill="#FFFFFF" d="M63.392,54.994H44.856c-1.288,0-2.341-1.053-2.341-2.341v-0.571c0-1.288,1.053-2.34,2.341-2.34h18.536
		c1.287,0,2.341,1.053,2.341,2.34v0.571C65.732,53.941,64.679,54.994,63.392,54.994"/>
	<polygon fill="#FFFFFF" points="101.686,62.46 106.646,61.793 104.283,44.224 99.234,44.224 101.686,62.46 	"/>
	<path fill="#FFFFFF" d="M91.197,38.971c-1.445,0-2.627,1.182-2.627,2.627c0,1.444,1.182,2.626,2.627,2.626h8.037l-0.707-5.253
		H91.197L91.197,38.971z"/>
	<polygon fill="#FFFFFF" points="98.527,38.971 99.234,44.224 104.283,44.224 103.578,38.971 98.527,38.971 	"/>
</g>
</svg>
