<?xml version="1.0" encoding="utf-8"?>
<!-- Generator: Adobe Illustrator 16.0.0, SVG Export Plug-In . SVG Version: 6.00 Build 0)  -->
<!DOCTYPE svg PUBLIC "-//W3C//DTD SVG 1.1//EN" "http://www.w3.org/Graphics/SVG/1.1/DTD/svg11.dtd">
<svg version="1.1" id="Ebene_1" xmlns="http://www.w3.org/2000/svg" xmlns:xlink="http://www.w3.org/1999/xlink" x="0px" y="0px"
	 width="694.595px" height="159.449px" viewBox="0 0 694.595 159.449" enable-background="new 0 0 694.595 159.449"
	 xml:space="preserve">
<g>
	<path fill="#FFFFFF" d="M12.086,2.502c-3.854,0-9.586,2.553-9.586,9.586v135.275c0,3.854,2.553,9.586,9.586,9.586h670.419
		c3.859,0,9.59-2.553,9.59-9.586V12.088c0-3.854-2.551-9.586-9.59-9.586H12.086L12.086,2.502z"/>
	<g>
		<g>
			<defs>
				<rect id="SVGID_1_" x="0.12" width="694.475" height="159.449"/>
			</defs>
			<clipPath id="SVGID_2_">
				<use xlink:href="#SVGID_1_"  overflow="visible"/>
			</clipPath>
			<path clip-path="url(#SVGID_2_)" fill="none" stroke="#006699" stroke-width="5" d="M12.086,2.502
				c-3.854,0-9.586,2.553-9.586,9.586v135.275c0,3.854,2.553,9.586,9.586,9.586h670.419c3.859,0,9.59-2.553,9.59-9.586V12.088
				c0-3.854-2.551-9.586-9.59-9.586H12.086L12.086,2.502z"/>
		</g>
	</g>
	<path fill="#006699" d="M128.136,20.069c6.585,0,11.907,5.344,11.907,11.937l0.024,95.438c0,6.593-5.362,11.937-11.947,11.937
		H32.689c-6.585,0-11.932-5.344-11.932-11.937l0.009-95.438c0-6.593,5.33-11.937,11.915-11.937H128.136L128.136,20.069z"/>
	<path fill="#FFFFFF" d="M106.096,78.266c0.194-0.035,0.337-0.058,0.526-0.104c4.796-1.216,8.369-5.837,8.369-10.975l-0.11-35.133
		h12.993v35.317c0.013,12.273-9.309,22.48-21.252,23.742l-0.524,0.055L106.096,78.266L106.096,78.266z M102.229,91.17l-0.674-0.057
		c-11.943-1.248-21.177-11.339-21.177-23.612V32.054h12.911l-0.021,35.133c0,5.138,3.573,9.758,8.367,10.975
		c0.212,0.051,0.375,0.084,0.591,0.123L102.229,91.17L102.229,91.17z M70.692,127.166V106.17h-4.099v20.996H70.692L70.692,127.166z
		 M98.565,127.166v-3.656h-9.731v-5.104h8.287v-3.656h-8.287v-4.924h9.731v-3.656H84.733v20.996H98.565L98.565,127.166z
		 M127.932,127.166V106.17h-4.099v12.855l-8.316-12.855h-3.658v20.996h4.1v-12.889l8.316,12.889H127.932L127.932,127.166z
		 M56.839,106.17h-4.276l-3.272,13.24l-3.834-13.24h-3.067l-3.834,13.24l-3.244-13.24h-4.275l5.603,20.996h3.42l3.864-12.74
		l3.863,12.74h3.421L56.839,106.17L56.839,106.17z M29.93,32.054h44.558v12.739H29.93V32.054L29.93,32.054z M46.054,90.832V48.499
		h12.739v42.333H46.054L46.054,90.832z"/>
	<path fill="#006699" d="M187.202,66.489c0-7.48,3.189-11.44,12.869-11.44c7.15,0,13.86,0.55,20.57,1.98l1.54-12.1
		c-6.6-1.76-15.07-2.42-21.01-2.42c-19.03,0-27.83,7.04-27.83,22.11v31.24c0,14.521,8.58,22.111,26.51,22.111
		c7.7,0,16.83-1.103,24.53-3.302V82.439h-13.09v22.221c-3.74,0.551-7.59,0.879-11.33,0.879c-9.681,0-12.76-4.18-12.76-11.33V66.489
		L187.202,66.489z M276.742,43.609v50.93c0,7.15-3.41,11.221-13.2,11.221s-13.2-4.07-13.2-11.221v-50.93h-13.86v52.03
		c0,11.551,6.49,22.332,27.061,22.332c20.569,0,27.06-10.781,27.06-22.332v-52.03H276.742L276.742,43.609z M350.001,96.959
		c0-14.629-0.99-17.819-20.681-22.549c-12.649-3.08-12.869-3.3-12.869-11.66c0-6.38,1.649-8.36,11-8.36
		c6.38,0,13.529,0.88,19.579,2.2l1.54-11.66c-7.26-1.65-14.96-2.42-21.34-2.42c-18.59,0-24.64,6.6-24.64,19.91
		c0,15.51,2.42,18.92,20.13,22.879c13.2,2.861,13.42,3.521,13.42,11.66c0,7.041-1.649,9.131-11.66,9.131
		c-7.26,0-13.859-1.32-20.68-3.41l-2.42,10.891c4.84,2.312,14.52,4.4,22.88,4.4C345.931,117.971,350.001,110.82,350.001,96.959
		L350.001,96.959z M407.2,96.959c0-14.629-0.99-17.819-20.681-22.549c-12.649-3.08-12.87-3.3-12.87-11.66c0-6.38,1.65-8.36,11-8.36
		c6.38,0,13.53,0.88,19.58,2.2l1.54-11.66c-7.26-1.65-14.96-2.42-21.34-2.42c-18.59,0-24.64,6.6-24.64,19.91
		c0,15.51,2.42,18.92,20.13,22.879c13.2,2.861,13.42,3.521,13.42,11.66c0,7.041-1.65,9.131-11.66,9.131
		c-7.26,0-13.86-1.32-20.68-3.41l-2.42,10.891c4.84,2.312,14.52,4.4,22.88,4.4C403.13,117.971,407.2,110.82,407.2,96.959
		L407.2,96.959z M473.639,116.869v-73.26h-13.86v30.14h-27.17v-30.14h-13.859v73.26h13.859v-30.91h27.17v30.91H473.639
		L473.639,116.869z M533.478,116.869h14.521l-23.101-73.26h-19.36l-23.1,73.26h14.521l4.619-15.18h27.171L533.478,116.869
		L533.478,116.869z M515.218,55.049l10.01,34.65h-20.24L515.218,55.049L515.218,55.049z M594.856,43.609v50.93
		c0,7.15-3.408,11.221-13.199,11.221c-9.789,0-13.198-4.07-13.198-11.221v-50.93h-13.861v52.03c0,11.551,6.49,22.332,27.06,22.332
		c20.57,0,27.062-10.781,27.062-22.332v-52.03H594.856L594.856,43.609z M668.115,96.959c0-14.629-0.989-17.819-20.68-22.549
		c-12.65-3.08-12.871-3.3-12.871-11.66c0-6.38,1.65-8.36,11-8.36c6.381,0,13.531,0.88,19.58,2.2l1.541-11.66
		c-7.26-1.65-14.961-2.42-21.34-2.42c-18.59,0-24.641,6.6-24.641,19.91c0,15.51,2.42,18.92,20.131,22.879
		c13.198,2.861,13.42,3.521,13.42,11.66c0,7.041-1.65,9.131-11.66,9.131c-7.26,0-13.861-1.32-20.68-3.41l-2.42,10.891
		c4.84,2.312,14.52,4.4,22.879,4.4C664.045,117.971,668.115,110.82,668.115,96.959L668.115,96.959z"/>
</g>
</svg>
