<?xml version="1.0" encoding="utf-8"?>
<!-- Generator: Adobe Illustrator 16.0.0, SVG Export Plug-In . SVG Version: 6.00 Build 0)  -->
<!DOCTYPE svg PUBLIC "-//W3C//DTD SVG 1.1//EN" "http://www.w3.org/Graphics/SVG/1.1/DTD/svg11.dtd">
<svg version="1.1" id="Ebene_1" xmlns="http://www.w3.org/2000/svg" xmlns:xlink="http://www.w3.org/1999/xlink" x="0px" y="0px"
	 width="810.709px" height="159.449px" viewBox="0 0 810.709 159.449" enable-background="new 0 0 810.709 159.449"
	 xml:space="preserve">
<g>
	<path fill="#FFFFFF" d="M12.086,2.5C8.233,2.5,2.5,5.053,2.5,12.086v135.275c0,3.854,2.553,9.586,9.586,9.586h786.537
		c3.854,0,9.586-2.553,9.586-9.586V12.086c0-3.854-2.553-9.586-9.586-9.586H12.086L12.086,2.5z"/>
	<g>
		<defs>
			<rect id="SVGID_1_" width="810.709" height="159.449"/>
		</defs>
		<clipPath id="SVGID_2_">
			<use xlink:href="#SVGID_1_"  overflow="visible"/>
		</clipPath>
		<path clip-path="url(#SVGID_2_)" fill="none" stroke="#006699" stroke-width="5" d="M12.086,2.5C8.233,2.5,2.5,5.053,2.5,12.086
			v135.275c0,3.854,2.553,9.586,9.586,9.586h786.537c3.854,0,9.586-2.553,9.586-9.586V12.086c0-3.854-2.553-9.586-9.586-9.586
			H12.086L12.086,2.5z"/>
	</g>
	<path fill="#006699" d="M128.136,20.069c6.585,0,11.907,5.344,11.907,11.937l0.025,95.437c0,6.592-5.363,11.936-11.948,11.936
		H32.689c-6.585,0-11.932-5.344-11.932-11.936l0.008-95.437c0-6.593,5.33-11.937,11.915-11.937H128.136L128.136,20.069z"/>
	<path fill="#FFFFFF" d="M106.096,78.266c0.194-0.035,0.337-0.058,0.526-0.104c4.796-1.216,8.369-5.837,8.369-10.975l-0.11-35.132
		h12.993v35.317c0.013,12.273-9.308,22.48-21.252,23.742l-0.524,0.055L106.096,78.266L106.096,78.266z M102.23,91.17l-0.674-0.057
		c-11.943-1.248-21.177-11.339-21.177-23.612V32.055H93.29l-0.021,35.132c0,5.138,3.573,9.758,8.367,10.975
		c0.212,0.051,0.375,0.084,0.591,0.123L102.23,91.17L102.23,91.17z M70.693,127.166v-20.998h-4.099v20.998H70.693L70.693,127.166z
		 M98.565,127.166v-3.656h-9.732v-5.104h8.287v-3.656h-8.287v-4.924h9.732v-3.658H84.734v20.998H98.565L98.565,127.166z
		 M127.932,127.166v-20.998h-4.099v12.857l-8.316-12.857h-3.658v20.998h4.099v-12.889l8.317,12.889H127.932L127.932,127.166z
		 M56.839,106.168h-4.276L49.29,119.41l-3.834-13.242h-3.067l-3.834,13.242l-3.244-13.242h-4.276l5.603,20.998h3.42l3.864-12.74
		l3.863,12.74h3.421L56.839,106.168L56.839,106.168z M29.931,32.055h44.558v12.739H29.931V32.055L29.931,32.055z M46.054,90.832
		V48.499h12.739v42.333H46.054L46.054,90.832z"/>
	<path fill="#006699" d="M188.852,43.61h-13.86v73.259h13.86V43.61L188.852,43.61z M229.222,43.61h-15.73l-22.66,36.19l23.98,37.069
		h15.95L206.122,79.8L229.222,43.61L229.222,43.61z M287.302,116.869h14.52l-23.1-73.259h-19.36l-23.1,73.259h14.52l4.62-15.18
		h27.17L287.302,116.869L287.302,116.869z M269.042,55.05l10.01,34.649h-20.24L269.042,55.05L269.042,55.05z M371.121,116.869
		l-18.15-26.18c7.7-2.75,11-8.91,11-17.709v-9.57c0-12.87-6.27-19.8-23.32-19.8h-30.03v73.259h13.86V92.67h13.2l16.83,24.199
		H371.121L371.121,116.869z M350.111,64.51v7.26c0,6.16-2.42,8.91-10.01,8.91h-15.62V55.82h15.62
		C347.471,55.82,350.111,58.35,350.111,64.51L350.111,64.51z M393.781,43.61h-13.86v73.259h44V104.66h-30.141V43.61L393.781,43.61z
		 M478.92,96.959c0-14.629-0.99-17.819-20.68-22.549c-12.65-3.08-12.869-3.3-12.869-11.66c0-6.38,1.648-8.36,11-8.36
		c6.379,0,13.529,0.88,19.578,2.2l1.541-11.66c-7.26-1.65-14.961-2.42-21.34-2.42c-18.59,0-24.641,6.6-24.641,19.91
		c0,15.51,2.42,18.92,20.131,22.879c13.199,2.861,13.42,3.521,13.42,11.66c0,7.041-1.65,9.131-11.66,9.131
		c-7.26,0-13.859-1.32-20.68-3.41l-2.42,10.891c4.84,2.311,14.52,4.4,22.879,4.4C474.85,117.971,478.92,110.82,478.92,96.959
		L478.92,96.959z M490.469,116.869h13.861v-23.76h14.078c17.051,0,23.871-6.93,23.871-19.689V63.41c0-12.87-6.27-19.8-23.211-19.8
		h-28.6V116.869L490.469,116.869z M528.42,64.51v7.48c0,6.05-2.311,8.911-10.121,8.911H504.33V55.82h13.969
		C525.889,55.82,528.42,58.46,528.42,64.51L528.42,64.51z M565.488,43.61h-13.859v73.259h44V104.66h-30.141V43.61L565.488,43.61z
		 M653.816,116.869h14.52l-23.1-73.259h-19.359l-23.102,73.259h14.521l4.619-15.18h27.17L653.816,116.869L653.816,116.869z
		 M635.557,55.05l10.01,34.649h-20.24L635.557,55.05L635.557,55.05z M685.275,116.869h13.861V55.82h20.459V43.61h-54.779v12.21
		h20.459V116.869L685.275,116.869z M776.465,55.38V43.61h-47.85v11.77h32.561l-33.881,49.831v11.658h49.5V105.1h-33.99
		L776.465,55.38L776.465,55.38z"/>
</g>
</svg>
