<?xml version="1.0" encoding="utf-8"?>
<!-- Generator: Adobe Illustrator 16.0.0, SVG Export Plug-In . SVG Version: 6.00 Build 0)  -->
<!DOCTYPE svg PUBLIC "-//W3C//DTD SVG 1.1//EN" "http://www.w3.org/Graphics/SVG/1.1/DTD/svg11.dtd">
<svg version="1.1" id="Ebene_1" xmlns="http://www.w3.org/2000/svg" xmlns:xlink="http://www.w3.org/1999/xlink" x="0px" y="0px"
	 width="1148.03px" height="159.449px" viewBox="0 0 1148.03 159.449" enable-background="new 0 0 1148.03 159.449"
	 xml:space="preserve">
<g>
	<path fill="#FFFFFF" d="M12.087,2.5C8.233,2.5,2.5,5.053,2.5,12.086v135.275c0,3.854,2.553,9.586,9.587,9.586H1135.94
		c3.86,0,9.59-2.553,9.59-9.586V12.086c0-3.854-2.55-9.586-9.59-9.586H12.087L12.087,2.5z"/>
	<g>
		<defs>
			<rect id="SVGID_1_" x="0.12" width="1147.91" height="159.449"/>
		</defs>
		<clipPath id="SVGID_2_">
			<use xlink:href="#SVGID_1_"  overflow="visible"/>
		</clipPath>
		<path clip-path="url(#SVGID_2_)" fill="none" stroke="#006699" stroke-width="5" d="M12.087,2.5C8.233,2.5,2.5,5.053,2.5,12.086
			v135.275c0,3.854,2.553,9.586,9.587,9.586H1135.94c3.86,0,9.59-2.553,9.59-9.586V12.086c0-3.854-2.55-9.586-9.59-9.586H12.087
			L12.087,2.5z"/>
	</g>
	<path fill="#006699" d="M128.136,20.069c6.585,0,11.906,5.344,11.906,11.937l0.025,95.438c0,6.592-5.363,11.936-11.948,11.936
		h-95.43c-6.585,0-11.932-5.344-11.932-11.936l0.008-95.438c0-6.593,5.33-11.937,11.915-11.937H128.136L128.136,20.069z"/>
	<path fill="#FFFFFF" d="M106.095,78.266c0.195-0.035,0.338-0.058,0.527-0.104c4.795-1.216,8.369-5.837,8.369-10.975l-0.11-35.133
		h12.993v35.317c0.012,12.273-9.308,22.48-21.252,23.742l-0.524,0.055L106.095,78.266L106.095,78.266z M102.23,91.17l-0.675-0.057
		c-11.942-1.248-21.177-11.339-21.177-23.612V32.054H93.29l-0.021,35.133c0,5.138,3.573,9.759,8.367,10.975
		c0.211,0.051,0.375,0.084,0.59,0.123L102.23,91.17L102.23,91.17z M70.693,127.166V106.17h-4.1v20.996H70.693L70.693,127.166z
		 M98.565,127.166v-3.656h-9.731v-5.104h8.287v-3.656h-8.287v-4.924h9.731v-3.656H84.734v20.996H98.565L98.565,127.166z
		 M127.932,127.166V106.17h-4.099v12.855l-8.316-12.855h-3.657v20.996h4.099v-12.889l8.316,12.889H127.932L127.932,127.166z
		 M56.839,106.17h-4.276l-3.273,13.24l-3.834-13.24h-3.067l-3.834,13.24l-3.244-13.24h-4.276l5.604,20.996h3.42l3.863-12.74
		l3.864,12.74h3.421L56.839,106.17L56.839,106.17z M29.93,32.054h44.558v12.739H29.93V32.054L29.93,32.054z M46.054,90.832V48.499
		h12.739v42.333H46.054L46.054,90.832z"/>
	<path fill="#006699" d="M188.853,116.869V87.5h29.04V75.29h-29.04v-19.47h31.46v-12.21h-45.32v73.26H188.853L188.853,116.869z
		 M270.801,116.869h14.52l-23.1-73.26h-19.36l-23.1,73.26h14.52l4.62-15.18h27.17L270.801,116.869L270.801,116.869z M252.542,55.049
		l10.01,34.65h-20.24L252.542,55.049L252.542,55.049z M313.373,104.66l-17.71-61.051h-14.41l21.89,73.26h20.46l21.89-73.26h-14.41
		L313.373,104.66L313.373,104.66z M405.332,65.06c0-12.21-7.04-22.55-27.72-22.55s-27.72,10.34-27.72,22.55v30.36
		c0,12.211,7.04,22.551,27.72,22.551s27.72-10.34,27.72-22.551V65.06L405.332,65.06z M363.751,65.83c0-6.93,3.52-11.11,13.86-11.11
		s13.86,4.18,13.86,11.11V94.65c0,6.93-3.52,11.109-13.86,11.109s-13.86-4.18-13.86-11.109V65.83L363.751,65.83z M478.48,116.869
		l-18.15-26.18c7.7-2.75,11-8.91,11-17.71v-9.57c0-12.87-6.27-19.8-23.32-19.8h-30.03v73.26h13.86V92.67h13.2l16.83,24.199H478.48
		L478.48,116.869z M457.47,64.509v7.26c0,6.16-2.42,8.91-10.01,8.91h-15.62v-24.86h15.62C454.831,55.819,457.47,58.35,457.47,64.509
		L457.47,64.509z M501.69,43.609h-13.86v73.26h13.86V43.609L501.69,43.609z M531.5,116.869h13.86v-61.05h20.46v-12.21h-54.78v12.21
		h20.46V116.869L531.5,116.869z M574.618,116.869h44.88V104.66h-31.02V85.74h28.6V73.529h-28.6v-17.71h31.02v-12.21h-44.88V116.869
		L574.618,116.869z M672.957,116.869h18.48v-73.26h-13.53v55.66l-27.83-55.66h-18.479v73.26h13.529v-55.55L672.957,116.869
		L672.957,116.869z M751.387,96.959c0-14.629-0.99-17.819-20.681-22.549c-12.649-3.08-12.87-3.3-12.87-11.66
		c0-6.38,1.65-8.36,11-8.36c6.381,0,13.53,0.88,19.58,2.2l1.54-11.66c-7.26-1.65-14.96-2.42-21.34-2.42
		c-18.59,0-24.64,6.6-24.64,19.91c0,15.51,2.42,18.92,20.13,22.879c13.2,2.861,13.42,3.521,13.42,11.66
		c0,7.041-1.65,9.131-11.66,9.131c-7.26,0-13.86-1.32-20.68-3.41l-2.42,10.891c4.84,2.311,14.52,4.4,22.88,4.4
		C747.316,117.971,751.387,110.82,751.387,96.959L751.387,96.959z M777.896,116.869h13.86v-61.05h20.46v-12.21h-54.78v12.21h20.46
		V116.869L777.896,116.869z M881.515,116.869l-18.15-26.18c7.7-2.75,11-8.91,11-17.71v-9.57c0-12.87-6.27-19.8-23.32-19.8h-30.029
		v73.26h13.859V92.67h13.2l16.83,24.199H881.515L881.515,116.869z M860.504,64.509v7.26c0,6.16-2.42,8.91-10.01,8.91h-15.62v-24.86
		h15.62C857.864,55.819,860.504,58.35,860.504,64.509L860.504,64.509z M936.953,116.869h14.521l-23.101-73.26h-19.359l-23.101,73.26
		h14.521l4.62-15.18h27.17L936.953,116.869L936.953,116.869z M918.693,55.049l10.01,34.65h-20.24L918.693,55.049L918.693,55.049z
		 M1005.92,96.959c0-14.629-0.989-17.819-20.678-22.549c-12.65-3.08-12.87-3.3-12.87-11.66c0-6.38,1.65-8.36,11-8.36
		c6.38,0,13.53,0.88,19.578,2.2l1.54-11.66c-7.258-1.65-14.958-2.42-21.338-2.42c-18.59,0-24.64,6.6-24.64,19.91
		c0,15.51,2.42,18.92,20.13,22.879c13.2,2.861,13.42,3.521,13.42,11.66c0,7.041-1.65,9.131-11.66,9.131
		c-7.26,0-13.86-1.32-20.68-3.41l-2.42,10.891c4.84,2.311,14.52,4.4,22.88,4.4C1001.851,117.971,1005.92,110.82,1005.92,96.959
		L1005.92,96.959z M1063.12,96.959c0-14.629-0.989-17.819-20.68-22.549c-12.65-3.08-12.87-3.3-12.87-11.66c0-6.38,1.65-8.36,11-8.36
		c6.38,0,13.53,0.88,19.58,2.2l1.54-11.66c-7.26-1.65-14.96-2.42-21.34-2.42c-18.59,0-24.64,6.6-24.64,19.91
		c0,15.51,2.42,18.92,20.129,22.879c13.2,2.861,13.421,3.521,13.421,11.66c0,7.041-1.65,9.131-11.66,9.131
		c-7.261,0-13.86-1.32-20.681-3.41l-2.42,10.891c4.841,2.311,14.521,4.4,22.881,4.4C1059.051,117.971,1063.12,110.82,1063.12,96.959
		L1063.12,96.959z M1074.67,116.869h44.881V104.66h-31.021V85.74h28.6V73.529h-28.6v-17.71h31.021v-12.21h-44.881V116.869
		L1074.67,116.869z"/>
</g>
</svg>
