<?xml version="1.0" encoding="utf-8"?>
<!-- Generator: Adobe Illustrator 16.0.0, SVG Export Plug-In . SVG Version: 6.00 Build 0)  -->
<!DOCTYPE svg PUBLIC "-//W3C//DTD SVG 1.1//EN" "http://www.w3.org/Graphics/SVG/1.1/DTD/svg11.dtd">
<svg version="1.1" id="Ebene_1" xmlns="http://www.w3.org/2000/svg" xmlns:xlink="http://www.w3.org/1999/xlink" x="0px" y="0px"
	 width="969.448px" height="159.449px" viewBox="0 0 969.448 159.449" enable-background="new 0 0 969.448 159.449"
	 xml:space="preserve">
<g>
	<path fill="#FFFFFF" d="M12.087,2.502c-3.854,0-9.587,2.553-9.587,9.586v135.275c0,3.854,2.553,9.586,9.587,9.586h945.275
		c3.854,0,9.586-2.553,9.586-9.586V12.088c0-3.854-2.553-9.586-9.586-9.586H12.087L12.087,2.502z"/>
	<g>
		<defs>
			<rect id="SVGID_1_" x="0.12" width="969.328" height="159.449"/>
		</defs>
		<clipPath id="SVGID_2_">
			<use xlink:href="#SVGID_1_"  overflow="visible"/>
		</clipPath>
		<path clip-path="url(#SVGID_2_)" fill="none" stroke="#006699" stroke-width="5" d="M12.087,2.502
			c-3.854,0-9.587,2.553-9.587,9.586v135.275c0,3.854,2.553,9.586,9.587,9.586h945.275c3.854,0,9.586-2.553,9.586-9.586V12.088
			c0-3.854-2.553-9.586-9.586-9.586H12.087L12.087,2.502z"/>
	</g>
	<path fill="#006699" d="M128.136,20.069c6.585,0,11.907,5.344,11.907,11.937l0.025,95.438c0,6.592-5.363,11.936-11.948,11.936
		H32.689c-6.585,0-11.932-5.344-11.932-11.936l0.009-95.438c0-6.593,5.33-11.937,11.915-11.937H128.136L128.136,20.069z"/>
	<path fill="#FFFFFF" d="M106.096,78.266c0.194-0.035,0.337-0.058,0.526-0.104c4.796-1.216,8.369-5.837,8.369-10.975l-0.11-35.133
		h12.993v35.317c0.013,12.273-9.308,22.48-21.252,23.742l-0.524,0.055L106.096,78.266L106.096,78.266z M102.23,91.17l-0.674-0.057
		c-11.943-1.248-21.177-11.339-21.177-23.612V32.054H93.29l-0.021,35.133c0,5.138,3.573,9.758,8.367,10.975
		c0.212,0.051,0.375,0.084,0.591,0.123L102.23,91.17L102.23,91.17z M70.693,127.166V106.17h-4.099v20.996H70.693L70.693,127.166z
		 M98.565,127.166v-3.656h-9.732v-5.104h8.287v-3.656h-8.287v-4.924h9.732v-3.656H84.734v20.996H98.565L98.565,127.166z
		 M127.932,127.166V106.17h-4.099v12.855l-8.316-12.855h-3.658v20.996h4.099v-12.889l8.317,12.889H127.932L127.932,127.166z
		 M56.839,106.17h-4.276l-3.273,13.24l-3.834-13.24h-3.067l-3.834,13.24l-3.244-13.24h-4.276l5.603,20.996h3.42l3.864-12.74
		l3.863,12.74h3.421L56.839,106.17L56.839,106.17z M29.931,32.054h44.558v12.739H29.931V32.054L29.931,32.054z M46.054,90.832
		V48.499h12.739v42.333H46.054L46.054,90.832z"/>
	<path fill="#006699" d="M220.642,96.959c0-14.629-0.99-17.819-20.68-22.549c-12.65-3.08-12.87-3.3-12.87-11.66
		c0-6.38,1.65-8.36,11-8.36c6.38,0,13.53,0.88,19.58,2.2l1.54-11.66c-7.26-1.65-14.96-2.42-21.34-2.42
		c-18.59,0-24.64,6.6-24.64,19.91c0,15.51,2.42,18.92,20.13,22.879c13.2,2.861,13.42,3.521,13.42,11.66
		c0,7.041-1.65,9.131-11.66,9.131c-7.26,0-13.86-1.32-20.68-3.41l-2.42,10.891c4.84,2.311,14.52,4.4,22.88,4.4
		C216.572,117.971,220.642,110.82,220.642,96.959L220.642,96.959z M230.541,96.74c0,13.42,7.81,21.23,26.07,21.23
		c6.82,0,13.86-0.881,19.91-2.42l-1.54-11.99c-5.94,1.1-12.87,1.869-17.93,1.869c-9.57,0-12.65-3.299-12.65-11.109V66.16
		c0-7.81,3.08-11.11,12.65-11.11c5.06,0,11.99,0.77,17.93,1.87l1.54-11.99c-6.05-1.54-13.09-2.42-19.91-2.42
		c-18.26,0-26.07,7.81-26.07,21.23V96.74L230.541,96.74z M301.931,43.609h-13.86v73.26h13.86V43.609L301.931,43.609z
		 M316.78,116.869h44.88V104.66h-31.02V85.74h28.6V73.529h-28.6v-17.71h31.02v-12.21h-44.88V116.869L316.78,116.869z
		 M415.12,116.869h18.48v-73.26h-13.53v55.66l-27.83-55.66h-18.48v73.26h13.53v-55.55L415.12,116.869L415.12,116.869z
		 M446.248,96.74c0,13.42,7.81,21.23,26.07,21.23c6.82,0,13.86-0.881,19.909-2.42l-1.539-11.99c-5.94,1.1-12.87,1.869-17.93,1.869
		c-9.57,0-12.65-3.299-12.65-11.109V66.16c0-7.81,3.08-11.11,12.65-11.11c5.06,0,11.99,0.77,17.93,1.87l1.539-11.99
		c-6.049-1.54-13.089-2.42-19.909-2.42c-18.26,0-26.07,7.81-26.07,21.23V96.74L446.248,96.74z M503.228,116.869h44.879V104.66
		h-31.02V85.74h28.6V73.529h-28.6v-17.71h31.02v-12.21h-44.879V116.869L503.228,116.869z M579.456,96.74
		c0,13.42,7.811,21.23,26.07,21.23c6.82,0,13.859-0.881,19.91-2.42l-1.541-11.99c-5.939,1.1-12.869,1.869-17.93,1.869
		c-9.57,0-12.65-3.299-12.65-11.109V66.16c0-7.81,3.08-11.11,12.65-11.11c5.061,0,11.99,0.77,17.93,1.87l1.541-11.99
		c-6.051-1.54-13.09-2.42-19.91-2.42c-18.26,0-26.07,7.81-26.07,21.23V96.74L579.456,96.74z M636.435,116.869h44.881V104.66h-31.02
		V85.74h28.6V73.529h-28.6v-17.71h31.02v-12.21h-44.881V116.869L636.435,116.869z M734.774,116.869h18.48v-73.26h-13.529v55.66
		l-27.83-55.66h-18.48v73.26h13.529v-55.55L734.774,116.869L734.774,116.869z M782.513,116.869h13.861v-61.05h20.459v-12.21h-54.779
		v12.21h20.459V116.869L782.513,116.869z M825.632,116.869h44.881V104.66h-31.02V85.74h28.6V73.529h-28.6v-17.71h31.02v-12.21
		h-44.881V116.869L825.632,116.869z M943.11,116.869l-18.148-26.18c7.699-2.75,11-8.91,11-17.71v-9.57
		c0-12.87-6.271-19.8-23.32-19.8H882.61v73.26h13.861V92.67h13.199l16.83,24.199H943.11L943.11,116.869z M922.101,64.509v7.26
		c0,6.16-2.42,8.91-10.01,8.91h-15.619v-24.86h15.619C919.462,55.819,922.101,58.35,922.101,64.509L922.101,64.509z"/>
</g>
</svg>
