<?xml version="1.0" encoding="utf-8"?>
<!-- Generator: Adobe Illustrator 16.0.0, SVG Export Plug-In . SVG Version: 6.00 Build 0)  -->
<!DOCTYPE svg PUBLIC "-//W3C//DTD SVG 1.1//EN" "http://www.w3.org/Graphics/SVG/1.1/DTD/svg11.dtd">
<svg version="1.1" id="Ebene_1" xmlns="http://www.w3.org/2000/svg" xmlns:xlink="http://www.w3.org/1999/xlink" x="0px" y="0px"
	 width="892.913px" height="159.449px" viewBox="0 0 892.913 159.449" enable-background="new 0 0 892.913 159.449"
	 xml:space="preserve">
<g>
	<path fill="#FFFFFF" d="M12.086,2.502c-3.854,0-9.586,2.553-9.586,9.586v135.275c0,3.854,2.553,9.586,9.586,9.586h868.741
		c3.853,0,9.586-2.553,9.586-9.586V12.088c0-3.854-2.553-9.586-9.586-9.586H12.086L12.086,2.502z"/>
	<g>
		<defs>
			<rect id="SVGID_1_" width="892.8" height="159.449"/>
		</defs>
		<clipPath id="SVGID_2_">
			<use xlink:href="#SVGID_1_"  overflow="visible"/>
		</clipPath>
		<path clip-path="url(#SVGID_2_)" fill="none" stroke="#006699" stroke-width="5" d="M12.086,2.502
			c-3.854,0-9.586,2.553-9.586,9.586v135.275c0,3.854,2.553,9.586,9.586,9.586h868.741c3.853,0,9.586-2.553,9.586-9.586V12.088
			c0-3.854-2.553-9.586-9.586-9.586H12.086L12.086,2.502z"/>
	</g>
	<path fill="#006699" d="M128.136,20.069c6.585,0,11.907,5.344,11.907,11.937l0.025,95.438c0,6.592-5.363,11.936-11.948,11.936
		H32.689c-6.585,0-11.932-5.344-11.932-11.936l0.009-95.438c0-6.593,5.33-11.937,11.915-11.937H128.136L128.136,20.069z"/>
	<path fill="#FFFFFF" d="M106.096,78.266c0.194-0.035,0.337-0.058,0.526-0.104c4.796-1.216,8.369-5.837,8.369-10.975l-0.11-35.133
		h12.993v35.317c0.013,12.273-9.308,22.48-21.252,23.742l-0.524,0.055L106.096,78.266L106.096,78.266z M102.23,91.17l-0.674-0.057
		c-11.942-1.248-21.177-11.339-21.177-23.612V32.054h12.911l-0.021,35.133c0,5.138,3.573,9.758,8.367,10.975
		c0.212,0.051,0.375,0.084,0.591,0.123L102.23,91.17L102.23,91.17z M70.693,127.166V106.17h-4.1v20.996H70.693L70.693,127.166z
		 M98.565,127.166v-3.656h-9.732v-5.104h8.287v-3.656h-8.287v-4.924h9.732v-3.656H84.733v20.996H98.565L98.565,127.166z
		 M127.932,127.166V106.17h-4.099v12.855l-8.316-12.855h-3.658v20.996h4.099v-12.889l8.317,12.889H127.932L127.932,127.166z
		 M56.839,106.17h-4.277l-3.273,13.24l-3.834-13.24h-3.066l-3.834,13.24l-3.244-13.24h-4.276l5.603,20.996h3.421l3.863-12.74
		l3.863,12.74h3.421L56.839,106.17L56.839,106.17z M29.93,32.054h44.558v12.739H29.93V32.054L29.93,32.054z M46.054,90.832V48.499
		h12.739v42.333H46.054L46.054,90.832z"/>
	<path fill="#006699" d="M220.532,116.863h14.52l-23.1-73.247h-19.36l-23.1,73.247h14.52l4.62-15.18h27.17L220.532,116.863
		L220.532,116.863z M202.272,55.057l10.01,34.65h-20.24L202.272,55.057L202.272,55.057z M251.999,116.863h13.846v-61.05h20.46
		V43.616h-54.766v12.197h20.46V116.863L251.999,116.863z M346.915,65.055c0-12.21-7.033-22.539-27.713-22.539
		c-20.68,0-27.713,10.329-27.713,22.539v30.369c0,12.211,7.033,22.539,27.713,22.539c20.68,0,27.713-10.328,27.713-22.539V65.055
		L346.915,65.055z M305.335,65.826c0-6.932,3.522-11.113,13.867-11.113c10.345,0,13.867,4.181,13.867,11.113v28.829
		c0,6.932-3.522,11.113-13.867,11.113c-10.345,0-13.867-4.182-13.867-11.113V65.826L305.335,65.826z M418.538,69.461l1.209,47.402
		h14.177l-3.298-73.247h-15.499l-18.926,52.021l-18.926-52.021h-15.499l-3.298,73.247h14.177l1.209-47.402l13.534,37.943h17.606
		L418.538,69.461L418.538,69.461z M461.534,43.616h-13.848v73.247h13.848V43.616L461.534,43.616z M517.754,116.863h18.469V43.616
		h-13.516v55.649l-27.842-55.649h-18.469v73.247h13.517V61.323L517.754,116.863L517.754,116.863z M596.171,96.965
		c0-14.635-0.989-17.825-20.671-22.557c-12.658-3.081-12.879-3.301-12.879-11.663c0-6.381,1.651-8.362,11.008-8.362
		c6.385,0,13.531,0.88,19.575,2.201l1.539-11.65c-7.253-1.648-14.95-2.417-21.334-2.417c-18.591,0-24.635,6.593-24.635,19.899
		c0,15.514,2.418,18.925,20.121,22.886c13.209,2.861,13.43,3.521,13.43,11.664c0,7.041-1.651,9.133-11.668,9.133
		c-7.266,0-13.86-1.322-20.674-3.412l-2.419,10.883c4.837,2.309,14.508,4.395,22.872,4.395
		C592.104,117.963,596.171,110.82,596.171,96.965L596.171,96.965z M622.693,116.863h13.848v-61.05h20.46V43.616h-54.768v12.197
		h20.46V116.863L622.693,116.863z M680.209,43.616h-13.846v73.247h13.846V43.616L680.209,43.616z M710.033,116.863h13.846v-61.05
		h20.46V43.616h-54.766v12.197h20.46V116.863L710.033,116.863z M792.86,43.616v50.931c0,7.15-3.41,11.221-13.205,11.221
		c-9.797,0-13.207-4.07-13.207-11.221V43.616h-13.848v52.03c0,11.549,6.484,22.316,27.055,22.316
		c20.568,0,27.053-10.768,27.053-22.316v-52.03H792.86L792.86,43.616z M835.43,116.863h13.847v-61.05h20.459V43.616H814.97v12.197
		h20.46V116.863L835.43,116.863z"/>
</g>
</svg>
