<?xml version="1.0" encoding="utf-8"?>
<!-- Generator: Adobe Illustrator 16.0.0, SVG Export Plug-In . SVG Version: 6.00 Build 0)  -->
<!DOCTYPE svg PUBLIC "-//W3C//DTD SVG 1.1//EN" "http://www.w3.org/Graphics/SVG/1.1/DTD/svg11.dtd">
<svg version="1.1" id="Ebene_1" xmlns="http://www.w3.org/2000/svg" xmlns:xlink="http://www.w3.org/1999/xlink" x="0px" y="0px"
	 width="668.976px" height="159.449px" viewBox="0 0 668.976 159.449" enable-background="new 0 0 668.976 159.449"
	 xml:space="preserve">
<g>
	<path fill="#FFFFFF" d="M12.086,2.502c-3.854,0-9.586,2.553-9.586,9.586v135.275c0,3.854,2.553,9.586,9.586,9.586H656.89
		c3.854,0,9.586-2.553,9.586-9.586V12.088c0-3.854-2.553-9.586-9.586-9.586H12.086L12.086,2.502z"/>
	<g>
		<defs>
			<rect id="SVGID_1_" x="0.12" width="668.855" height="159.449"/>
		</defs>
		<clipPath id="SVGID_2_">
			<use xlink:href="#SVGID_1_"  overflow="visible"/>
		</clipPath>
		<path clip-path="url(#SVGID_2_)" fill="none" stroke="#006699" stroke-width="5" d="M12.086,2.502
			c-3.854,0-9.586,2.553-9.586,9.586v135.275c0,3.854,2.553,9.586,9.586,9.586H656.89c3.854,0,9.586-2.553,9.586-9.586V12.088
			c0-3.854-2.553-9.586-9.586-9.586H12.086L12.086,2.502z"/>
	</g>
	<path fill="#006699" d="M128.136,20.069c6.585,0,11.907,5.344,11.907,11.937l0.025,95.438c0,6.592-5.363,11.936-11.948,11.936
		H32.689c-6.585,0-11.932-5.344-11.932-11.936l0.008-95.438c0-6.593,5.33-11.937,11.915-11.937H128.136L128.136,20.069z"/>
	<path fill="#FFFFFF" d="M106.096,78.266c0.194-0.035,0.337-0.058,0.526-0.104c4.796-1.216,8.369-5.837,8.369-10.975l-0.11-35.133
		h12.993v35.317c0.013,12.273-9.308,22.48-21.252,23.742l-0.524,0.055L106.096,78.266L106.096,78.266z M102.23,91.17l-0.674-0.057
		c-11.943-1.248-21.177-11.339-21.177-23.612V32.054H93.29l-0.021,35.133c0,5.138,3.573,9.758,8.367,10.975
		c0.212,0.051,0.375,0.084,0.591,0.123L102.23,91.17L102.23,91.17z M70.693,127.166V106.17h-4.1v20.996H70.693L70.693,127.166z
		 M98.565,127.166v-3.656h-9.731v-5.104h8.287v-3.656h-8.287v-4.924h9.731v-3.656H84.734v20.996H98.565L98.565,127.166z
		 M127.932,127.166V106.17h-4.099v12.855l-8.316-12.855h-3.658v20.996h4.099v-12.889l8.317,12.889H127.932L127.932,127.166z
		 M56.839,106.17h-4.276l-3.273,13.24l-3.834-13.24h-3.067l-3.834,13.24l-3.244-13.24h-4.276l5.603,20.996h3.42l3.864-12.74
		l3.863,12.74h3.421L56.839,106.17L56.839,106.17z M29.931,32.054h44.558v12.739H29.931V32.054L29.931,32.054z M46.054,90.832
		V48.499h12.739v42.333H46.054L46.054,90.832z"/>
	<path fill="#006699" d="M188.852,116.869V87.5h29.04V75.29h-29.04v-19.47h31.46v-12.21h-45.32v73.26H188.852L188.852,116.869z
		 M290.711,116.869l-18.15-26.18c7.7-2.75,11-8.91,11-17.71v-9.57c0-12.87-6.27-19.8-23.32-19.8h-30.03v73.26h13.86V92.67h13.2
		l16.83,24.199H290.711L290.711,116.869z M269.701,64.509v7.26c0,6.16-2.42,8.91-10.01,8.91h-15.62v-24.86h15.62
		C267.061,55.819,269.701,58.35,269.701,64.509L269.701,64.509z M299.51,116.869h44.879V104.66h-31.02V85.74h28.6V73.529h-28.6
		v-17.71h31.02v-12.21H299.51V116.869L299.51,116.869z M370.899,43.609H357.04v73.26h13.859V43.609L370.899,43.609z M440.64,116.869
		v-73.26h-13.861v30.14h-27.17v-30.14h-13.859v73.26h13.859v-30.91h27.17v30.91H440.64L440.64,116.869z M500.478,116.869h14.52
		l-23.1-73.26h-19.361l-23.1,73.26h14.521l4.619-15.18h27.17L500.478,116.869L500.478,116.869z M482.218,55.049l10.01,34.65h-20.24
		L482.218,55.049L482.218,55.049z M561.856,43.609v50.93c0,7.15-3.41,11.221-13.199,11.221c-9.791,0-13.201-4.07-13.201-11.221
		v-50.93h-13.859v52.029c0,11.551,6.49,22.332,27.061,22.332s27.061-10.781,27.061-22.332V43.609H561.856L561.856,43.609z
		 M635.116,96.959c0-14.629-0.99-17.819-20.68-22.549c-12.65-3.08-12.871-3.3-12.871-11.66c0-6.38,1.65-8.36,11-8.36
		c6.381,0,13.531,0.88,19.58,2.2l1.541-11.66c-7.26-1.65-14.961-2.42-21.34-2.42c-18.59,0-24.641,6.6-24.641,19.91
		c0,15.51,2.42,18.92,20.131,22.879c13.199,2.861,13.42,3.521,13.42,11.66c0,7.041-1.65,9.131-11.66,9.131
		c-7.26,0-13.861-1.32-20.68-3.41l-2.422,10.891c4.842,2.311,14.521,4.4,22.881,4.4C631.046,117.971,635.116,110.82,635.116,96.959
		L635.116,96.959z"/>
</g>
</svg>
