<?xml version="1.0" encoding="utf-8"?>
<!-- Generator: Adobe Illustrator 16.0.0, SVG Export Plug-In . SVG Version: 6.00 Build 0)  -->
<!DOCTYPE svg PUBLIC "-//W3C//DTD SVG 1.1//EN" "http://www.w3.org/Graphics/SVG/1.1/DTD/svg11.dtd">
<svg version="1.1" id="Ebene_1" xmlns="http://www.w3.org/2000/svg" xmlns:xlink="http://www.w3.org/1999/xlink" x="0px" y="0px"
	 width="994.961px" height="159.449px" viewBox="0 0 994.961 159.449" enable-background="new 0 0 994.961 159.449"
	 xml:space="preserve">
<g>
	<path fill="#FFFFFF" d="M12.087,2.5C8.233,2.5,2.5,5.053,2.5,12.086v135.275c0,3.854,2.553,9.586,9.586,9.586h970.788
		c3.854,0,9.586-2.553,9.586-9.586V12.086c0-3.854-2.553-9.586-9.586-9.586H12.087L12.087,2.5z"/>
	<g>
		<defs>
			<rect id="SVGID_1_" width="994.961" height="159.449"/>
		</defs>
		<clipPath id="SVGID_2_">
			<use xlink:href="#SVGID_1_"  overflow="visible"/>
		</clipPath>
		<path clip-path="url(#SVGID_2_)" fill="none" stroke="#006699" stroke-width="5" d="M12.087,2.5C8.233,2.5,2.5,5.053,2.5,12.086
			v135.275c0,3.854,2.553,9.586,9.586,9.586h970.788c3.854,0,9.586-2.553,9.586-9.586V12.086c0-3.854-2.553-9.586-9.586-9.586
			H12.087L12.087,2.5z"/>
	</g>
	<path fill="#006699" d="M128.136,20.069c6.585,0,11.907,5.344,11.907,11.937l0.025,95.438c0,6.592-5.363,11.936-11.948,11.936
		H32.689c-6.585,0-11.932-5.344-11.932-11.936l0.009-95.438c0-6.593,5.33-11.937,11.915-11.937H128.136L128.136,20.069z"/>
	<path fill="#FFFFFF" d="M106.096,78.266c0.194-0.035,0.337-0.058,0.526-0.104c4.796-1.216,8.369-5.837,8.369-10.975l-0.11-35.133
		h12.993v35.317c0.013,12.273-9.307,22.48-21.252,23.742l-0.524,0.055L106.096,78.266L106.096,78.266z M102.23,91.17l-0.674-0.057
		c-11.943-1.248-21.177-11.339-21.177-23.612V32.054H93.29l-0.021,35.133c0,5.138,3.573,9.759,8.368,10.975
		c0.211,0.051,0.374,0.084,0.59,0.123L102.23,91.17L102.23,91.17z M70.693,127.166V106.17h-4.1v20.996H70.693L70.693,127.166z
		 M98.565,127.166v-3.656h-9.732v-5.104h8.287v-3.656h-8.287v-4.924h9.732v-3.656H84.734v20.996H98.565L98.565,127.166z
		 M127.932,127.166V106.17h-4.099v12.855l-8.316-12.855h-3.658v20.996h4.099v-12.889l8.317,12.889H127.932L127.932,127.166z
		 M56.839,106.17h-4.276l-3.273,13.24l-3.834-13.24h-3.067l-3.833,13.24l-3.244-13.24h-4.276l5.603,20.996h3.421l3.863-12.74
		l3.863,12.74h3.421L56.839,106.17L56.839,106.17z M29.931,32.054h44.558v12.739H29.931V32.054L29.931,32.054z M46.054,90.832
		V48.499h12.739v42.333H46.054L46.054,90.832z"/>
	<path fill="#006699" d="M187.195,66.486c0-7.482,3.192-11.443,12.878-11.443c7.154,0,13.863,0.55,20.566,1.98l1.539-12.089
		c-6.593-1.758-15.061-2.417-21.005-2.417c-19.033,0-27.824,7.032-27.824,22.099v31.248c0,14.518,8.572,22.1,26.503,22.1
		c7.705,0,16.831-1.1,24.523-3.295V82.439h-13.076v22.229c-3.742,0.549-7.594,0.879-11.337,0.879
		c-9.685,0-12.767-4.182-12.767-11.334V66.486L187.195,66.486z M237.039,116.863h44.866v-12.195h-31.02V85.732h28.6V73.537h-28.6
		V55.813h31.02V43.617h-44.866V116.863L237.039,116.863z M308.978,116.863h13.847v-61.05h20.46V43.617h-54.767v12.196h20.46V116.863
		L308.978,116.863z M412.583,116.863l-18.139-26.178c7.693-2.748,10.989-8.9,10.989-17.703v-9.575
		c0-12.869-6.263-19.791-23.311-19.791h-30.025v73.247h13.846V92.662h13.207l16.833,24.201H412.583L412.583,116.863z
		 M391.587,64.508v7.264c0,6.164-2.421,8.916-10.015,8.916h-15.629V55.813h15.629C388.946,55.813,391.587,58.344,391.587,64.508
		L391.587,64.508z M421.397,116.863h44.866v-12.195h-31.02V85.732h28.6V73.537h-28.6V55.813h31.02V43.617h-44.866V116.863
		L421.397,116.863z M492.772,43.617h-13.846v73.247h13.846V43.617L492.772,43.617z M507.635,43.617v73.247h27.275
		c18.037,0,24.303-9.229,24.303-19.678v-33.89c0-10.559-6.266-19.679-24.303-19.679H507.635L507.635,43.617z M521.482,55.813h11.996
		c9.355,0,11.887,3.741,11.887,10.783v27.289c0,7.041-2.531,10.783-11.887,10.783h-11.996V55.813L521.482,55.813z M571.875,116.863
		h44.865v-12.195h-31.02V85.732h28.6V73.537h-28.6V55.813h31.02V43.617h-44.865V116.863L571.875,116.863z M687.814,69.461
		l1.209,47.402h14.178l-3.299-73.247h-15.5l-18.926,52.02l-18.926-52.02h-15.498l-3.299,73.247h14.176l1.211-47.402l13.533,37.943
		h17.605L687.814,69.461L687.814,69.461z M762.496,116.863h14.52l-23.1-73.247h-19.361l-23.1,73.247h14.52l4.621-15.18h27.17
		L762.496,116.863L762.496,116.863z M744.234,55.057l10.012,34.65h-20.24L744.234,55.057L744.234,55.057z M846.309,116.863
		L828.17,90.686c7.691-2.748,10.988-8.9,10.988-17.703v-9.575c0-12.869-6.264-19.791-23.312-19.791H785.82v73.247h13.848V92.662
		h13.207l16.832,24.201H846.309L846.309,116.863z M825.311,64.508v7.264c0,6.164-2.42,8.916-10.014,8.916h-15.629V55.813h15.629
		C822.67,55.813,825.311,58.344,825.311,64.508L825.311,64.508z M868.967,43.617h-13.846v73.247h13.846V43.617L868.967,43.617z
		 M909.338,43.617h-15.73L870.947,79.8l23.98,37.063h15.949L886.236,79.8L909.338,43.617L909.338,43.617z M935.201,116.863h13.846
		v-61.05h20.461V43.617h-54.766v12.196h20.459V116.863L935.201,116.863z"/>
</g>
</svg>
