<?xml version="1.0" encoding="utf-8"?>
<!-- Generator: Adobe Illustrator 16.0.0, SVG Export Plug-In . SVG Version: 6.00 Build 0)  -->
<!DOCTYPE svg PUBLIC "-//W3C//DTD SVG 1.1//EN" "http://www.w3.org/Graphics/SVG/1.1/DTD/svg11.dtd">
<svg version="1.1" id="Ebene_1" xmlns="http://www.w3.org/2000/svg" xmlns:xlink="http://www.w3.org/1999/xlink" x="0px" y="0px"
	 width="159.449px" height="159.449px" viewBox="0 0 159.449 159.449" enable-background="new 0 0 159.449 159.449"
	 xml:space="preserve">
<g>
	<g>
		<defs>
			<rect id="SVGID_1_" width="159.449" height="159.449"/>
		</defs>
		<clipPath id="SVGID_2_">
			<use xlink:href="#SVGID_1_"  overflow="visible"/>
		</clipPath>
		<path clip-path="url(#SVGID_2_)" fill="#006699" d="M159.449,149.391c0,5.576-4.531,10.059-10.109,10.059H10.109
			C4.533,159.449,0,154.967,0,149.391V10.06C0,4.482,4.533,0,10.109,0h139.23c5.578,0,10.109,4.482,10.109,10.06V149.391
			L159.449,149.391z"/>
		<path clip-path="url(#SVGID_2_)" fill="none" stroke="#FFFFFF" stroke-width="3.6675" stroke-miterlimit="10" d="M65.107,74.551
			c0-12.999-10.476-23.535-23.399-23.535c-12.922,0-23.398,10.537-23.398,23.535c0,12.998,10.476,23.537,23.398,23.537
			C54.631,98.088,65.107,87.549,65.107,74.551L65.107,74.551z M140.121,74.551c0-12.999-10.477-23.535-23.398-23.535
			S93.324,61.553,93.324,74.551c0,12.998,10.477,23.537,23.398,23.537S140.121,87.549,140.121,74.551L140.121,74.551z"/>
	</g>
	<path fill="#FFFFFF" d="M46.406,74.551c0-2.526-2.048-4.575-4.575-4.575s-4.575,2.048-4.575,4.575c0,2.527,2.048,4.575,4.575,4.575
		S46.406,77.079,46.406,74.551"/>
	<path fill="#FFFFFF" d="M120.783,74.551c0-2.526-2.049-4.575-4.574-4.575c-2.527,0-4.576,2.048-4.576,4.575
		c0,2.527,2.049,4.575,4.576,4.575C118.734,79.126,120.783,77.079,120.783,74.551"/>
	<polygon fill="#FFFFFF" points="80.65,76.734 45.138,76.734 45.138,72.159 80.65,72.159 80.65,76.734 	"/>
	<polygon fill="#FFFFFF" points="102.211,46.347 56.915,46.347 56.915,41.771 102.211,41.771 102.211,46.347 	"/>
	<polygon fill="#FFFFFF" points="113.701,74.433 98.891,42.451 103.043,40.528 117.852,72.51 113.701,74.433 	"/>
	<polygon fill="#FFFFFF" points="77.829,75.241 52.747,37.758 56.549,35.214 81.631,72.696 77.829,75.241 	"/>
	<polygon fill="#FFFFFF" points="76.856,74.178 97.424,43.652 101.217,46.209 80.651,76.734 76.856,74.178 	"/>
	<polygon fill="#FFFFFF" points="40.33,72.366 57.483,41.577 61.479,43.804 44.327,74.592 40.33,72.366 	"/>
	<path fill="#FFFFFF" d="M64.106,38.563H47.164c-1.178,0-2.14-0.962-2.14-2.14v-0.522c0-1.177,0.962-2.139,2.14-2.139h16.942
		c1.177,0,2.14,0.962,2.14,2.139v0.522C66.246,37.601,65.283,38.563,64.106,38.563"/>
	<polygon fill="#FFFFFF" points="99.109,45.387 103.643,44.778 101.482,28.719 96.867,28.719 99.109,45.387 	"/>
	<path fill="#FFFFFF" d="M89.52,23.917c-1.318,0-2.4,1.08-2.4,2.401c0,1.32,1.082,2.4,2.4,2.4h7.348l-0.645-4.801H89.52
		L89.52,23.917z"/>
	<polygon fill="#FFFFFF" points="96.223,23.917 96.867,28.719 101.482,28.719 100.838,23.917 96.223,23.917 	"/>
	<path fill="none" stroke="#FFFFFF" stroke-width="4.2799" d="M79.725,150.375c39.02,0,70.652-31.633,70.652-70.652
		S118.744,9.07,79.725,9.07S9.073,40.703,9.073,79.723S40.705,150.375,79.725,150.375L79.725,150.375z"/>
	<path fill="#FFFFFF" d="M84.344,107.24l-7.01-7.197c-0.849-0.879-1.051-2.072-0.452-2.658c0.61-0.584,3.401-1.965,4.25-1.086
		l7.014,7.193l5.113-4.953c0.465-0.449,1.217-0.439,1.668,0.029l4.145,4.279c0.34,0.355,0.416,0.869,0.23,1.299l1.68,1.777
		l0.041,0.041l0.041,0.045l0.352,0.365l-0.002,0.002c6.578,7.062,4.717,12.945,1.199,20.225c1.346,1.768,1.781,3.947,1.264,5.793
		c5.002,4.119,4.498,3.908,9.51,4.412c4.643,0.469,12.9-7.246,16.732-10.318c5.303-2.07,7.465-4.883,7.645-5.555
		c0,0-2.338,5.721-5.102,7.936c-4.809,3.855-13.467,12.492-19.275,11.906c-5.971-0.602-6.803-0.258-12.529-5.012
		c-1.988,0.779-4.469,0.34-6.404-1.219c-7.398,3.322-13.568,5.186-20.44-1.639l-0.002,0.01l-0.353-0.367l-1.792-1.9
		c-0.413,0.123-0.872,0.02-1.187-0.305l-4.143-4.281c-0.456-0.465-0.441-1.217,0.022-1.67l5.023-4.863l-7.011-7.191
		c-0.846-0.877-1.047-2.076-0.442-2.654l1.834-2.35c0.6-0.584,1.789-0.346,2.64,0.529l7.009,7.199L84.344,107.24L84.344,107.24z"/>
</g>
</svg>
