<?xml version="1.0" encoding="utf-8"?>
<!-- Generator: Adobe Illustrator 16.0.0, SVG Export Plug-In . SVG Version: 6.00 Build 0)  -->
<!DOCTYPE svg PUBLIC "-//W3C//DTD SVG 1.1//EN" "http://www.w3.org/Graphics/SVG/1.1/DTD/svg11.dtd">
<svg version="1.1" id="Ebene_1" xmlns="http://www.w3.org/2000/svg" xmlns:xlink="http://www.w3.org/1999/xlink" x="0px" y="0px"
	 width="159.449px" height="159.449px" viewBox="0 0 159.449 159.449" enable-background="new 0 0 159.449 159.449"
	 xml:space="preserve">
<g>
	<polygon fill="#FFFFFF" points="79.682,17.795 8.17,141.654 151.279,141.654 79.682,17.795 	"/>
	<g>
		<defs>
			<rect id="SVGID_1_" width="159.449" height="159.449"/>
		</defs>
		<clipPath id="SVGID_2_">
			<use xlink:href="#SVGID_1_"  overflow="visible"/>
		</clipPath>
		
			<polygon clip-path="url(#SVGID_2_)" fill="none" stroke="#E2001A" stroke-width="16.3393" stroke-linecap="round" stroke-linejoin="round" points="
			79.682,17.795 8.17,141.654 151.279,141.654 79.682,17.795 		"/>
	</g>
	<path d="M118.375,127.41l-16.723-21.594l-5.018,6.09l-7.082-3.734c0.494-0.547-1.143-1.609-1.211-2.805l-1.801-27.472
		c-0.033-0.583,2.068-0.133,1.893-0.586c3.732-0.311,6.67-3.606,6.67-7.629c0-4.229-3.244-7.656-7.246-7.656
		s-7.247,3.427-7.247,7.656c0,1.516,0.418,2.927,1.137,4.116L65.012,74.02l-9.783,17.225l0.384,5.244l2.222-0.775l0.017-0.033
		c0.372,0.211,5.24,2.783,5.24,2.783l-4.312,13.143l-8.499,13.357l3.213,2.26l3.325-2.008l11.306-19.309l4.819,11.932v9.631
		l5.718-0.059l-0.172-10.307l-2.576-11.088l18.376,8.896l-9.744,12.498H118.375L118.375,127.41z M59.596,92.395l5.692-10.729h5.285
		L64.605,95.02l-3.953-2.086C60.293,92.746,59.941,92.566,59.596,92.395L59.596,92.395z M77.918,102.037l4.977-11.133l0.812,14.186
		L77.918,102.037L77.918,102.037z"/>
</g>
</svg>
