<?xml version="1.0" encoding="utf-8"?>
<!-- Generator: Adobe Illustrator 16.0.0, SVG Export Plug-In . SVG Version: 6.00 Build 0)  -->
<!DOCTYPE svg PUBLIC "-//W3C//DTD SVG 1.1//EN" "http://www.w3.org/Graphics/SVG/1.1/DTD/svg11.dtd">
<svg version="1.1" id="Ebene_1" xmlns="http://www.w3.org/2000/svg" xmlns:xlink="http://www.w3.org/1999/xlink" x="0px" y="0px"
	 width="159.449px" height="159.449px" viewBox="0 0 159.449 159.449" enable-background="new 0 0 159.449 159.449"
	 xml:space="preserve">
<g>
	<g>
		<defs>
			<rect id="SVGID_1_" width="159.449" height="159.449"/>
		</defs>
		<clipPath id="SVGID_2_">
			<use xlink:href="#SVGID_1_"  overflow="visible"/>
		</clipPath>
		<path clip-path="url(#SVGID_2_)" fill="#53AA2E" d="M159.449,149.355c0,5.576-4.523,10.094-10.09,10.094H10.103
			C4.54,159.449,0,154.932,0,149.355V10.085C0,4.514,4.54,0,10.103,0h139.256c5.566,0,10.09,4.514,10.09,10.085V149.355
			L159.449,149.355z"/>
	</g>
	<path fill="#FFFFFF" d="M66.596,147.984c0,0,30.132-18.889,43.173-36.566c9.727-13.178,16.352-22.832,11.27-41.293
		c-3.564-12.942-14.893-24.192-24.311-24.765c-12.719-0.767-16.466-0.218-28.06,9.901c-0.304,0.266-2.338,1.906-2.338,1.906"/>
	<path fill="#FFFFFF" d="M66.618,146.375c0,0-30.106-18.82-43.147-36.498C13.75,96.693,7.124,87.047,12.207,68.584
		c3.559-12.942,14.887-24.188,24.305-24.761c12.719-0.771,16.466-0.219,28.056,9.892c0.309,0.271,2.051,1.786,2.051,1.786"/>
	<polygon fill="#53AA2E" points="48.002,95.059 78.576,57.848 66.91,87.047 83.09,87.047 52.978,125.617 65.972,95.002 
		48.002,95.059 	"/>
	<polygon fill="#FFFFFF" points="103.092,28.067 119.166,28.067 119.191,13.112 133.307,13.074 133.307,28.067 148.957,28.212 
		148.998,41.153 133.322,41.153 133.307,55.907 119.127,55.949 119.191,41.179 103.143,41.179 103.092,28.067 	"/>
</g>
</svg>
