<?xml version="1.0" encoding="utf-8"?>
<!-- Generator: Adobe Illustrator 16.0.0, SVG Export Plug-In . SVG Version: 6.00 Build 0)  -->
<!DOCTYPE svg PUBLIC "-//W3C//DTD SVG 1.1//EN" "http://www.w3.org/Graphics/SVG/1.1/DTD/svg11.dtd">
<svg version="1.1" id="Ebene_1" xmlns="http://www.w3.org/2000/svg" xmlns:xlink="http://www.w3.org/1999/xlink" x="0px" y="0px"
	 width="159.448px" height="159.449px" viewBox="0 0 159.448 159.449" enable-background="new 0 0 159.448 159.449"
	 xml:space="preserve">
<g>
	<path fill="#006699" d="M10.099,159.449h139.252c5.582,0,10.098-4.516,10.098-10.098V10.099C159.448,4.517,154.933,0,149.351,0
		H10.099C4.516,0,0,4.517,0,10.099v139.253C0,154.934,4.516,159.449,10.099,159.449"/>
	<path fill="#FFFFFF" d="M77.873,95.768L37.754,83.42v12.148v8.475c0,9.533,17.968,17.264,40.13,17.264
		c22.162,0,40.133-14.234,40.133-23.768c0-0.074-0.024,6.354-0.027,6.279V83.42L77.873,95.768L77.873,95.768z"/>
	<path fill="#FFFFFF" d="M10.63,62.72l10.521,3.769l1.221-2.616l5.266-0.447l4.562,2.14l-4.518,1.071l-0.659,1.949
		c-0.001,0-10.206,21.333-8.707,31.771c0,0,6.37,3.799,12.736,0l1.692-28.535v-2.375l9.478-2.138l3.841,1.648l-7.066,2.298
		l-1.242,1.167L77.873,84.77l40.118-12.348l27.126-9.701l-67.244-25.87L10.63,62.72L10.63,62.72z"/>
</g>
</svg>
