<?xml version="1.0" encoding="utf-8"?>
<!-- Generator: Adobe Illustrator 16.0.0, SVG Export Plug-In . SVG Version: 6.00 Build 0)  -->
<!DOCTYPE svg PUBLIC "-//W3C//DTD SVG 1.1//EN" "http://www.w3.org/Graphics/SVG/1.1/DTD/svg11.dtd">
<svg version="1.1" id="Ebene_1" xmlns="http://www.w3.org/2000/svg" xmlns:xlink="http://www.w3.org/1999/xlink" x="0px" y="0px"
	 width="159.449px" height="159.45px" viewBox="0 0 159.449 159.45" enable-background="new 0 0 159.449 159.45"
	 xml:space="preserve">
<g>
	<g>
		<defs>
			<rect id="SVGID_1_" y="0" width="159.449" height="159.449"/>
		</defs>
		<clipPath id="SVGID_2_">
			<use xlink:href="#SVGID_1_"  overflow="visible"/>
		</clipPath>
		<path clip-path="url(#SVGID_2_)" fill="#991F4A" d="M149.35,0H10.098C4.516,0,0,4.517,0,10.099v139.253
			c0,5.582,4.516,10.098,10.098,10.098H149.35c5.584,0,10.1-4.516,10.1-10.098V10.099C159.449,4.517,154.934,0,149.35,0"/>
	</g>
	<polygon fill="#FFFFFF" points="23.205,16.235 19.83,16.235 19.83,146.59 139.621,146.59 139.621,12.86 19.83,12.86 19.83,16.235 
		23.205,16.235 23.205,19.61 132.871,19.61 132.871,139.84 26.58,139.84 26.58,16.235 23.205,16.235 23.205,19.61 23.205,16.235 	
		"/>
	<polygon fill="#FFFFFF" points="43.614,36.007 40.239,36.007 40.239,93.223 106.568,93.223 106.568,32.632 40.239,32.632 
		40.239,36.007 43.614,36.007 43.614,39.382 99.82,39.382 99.82,86.473 46.989,86.473 46.989,36.007 43.614,36.007 43.614,39.382 
		43.614,36.007 	"/>
	<polygon fill="#FFFFFF" points="43.614,112.577 43.614,123.827 103.193,123.827 103.193,112.577 43.614,112.577 	"/>
	<polygon fill="#FFFFFF" points="43.614,112.577 40.239,112.577 40.239,127.202 106.568,127.202 106.568,109.202 40.239,109.202 
		40.239,112.577 43.614,112.577 43.614,115.952 99.82,115.952 99.82,120.452 46.989,120.452 46.989,112.577 43.614,112.577 
		43.614,115.952 43.614,112.577 	"/>
	<polygon fill="#FFFFFF" points="66.078,55.105 62.61,55.105 62.61,47.806 58.748,47.806 58.748,55.105 55.28,55.105 55.28,77.765 
		66.078,77.765 66.078,55.105 	"/>
	<polygon fill="#FFFFFF" points="76.46,50.038 76.46,77.765 92.068,77.765 92.068,50.038 76.46,50.038 	"/>
	<polygon fill="#FFFFFF" points="114.09,39.196 114.09,51.783 124.707,51.783 124.707,39.196 114.09,39.196 	"/>
	<polygon fill="#FFFFFF" points="114.09,56.172 114.09,68.76 124.707,68.76 124.707,56.172 114.09,56.172 	"/>
	<polygon fill="#FFFFFF" points="114.09,73.149 114.09,85.737 124.707,85.737 124.707,73.149 114.09,73.149 	"/>
</g>
</svg>
