<?xml version="1.0" encoding="utf-8"?>
<!-- Generator: Adobe Illustrator 16.0.0, SVG Export Plug-In . SVG Version: 6.00 Build 0)  -->
<!DOCTYPE svg PUBLIC "-//W3C//DTD SVG 1.1//EN" "http://www.w3.org/Graphics/SVG/1.1/DTD/svg11.dtd">
<svg version="1.1" id="Ebene_1" xmlns="http://www.w3.org/2000/svg" xmlns:xlink="http://www.w3.org/1999/xlink" x="0px" y="0px"
	 width="159.448px" height="159.449px" viewBox="0 0 159.448 159.449" enable-background="new 0 0 159.448 159.449"
	 xml:space="preserve">
<g>
	<path fill="#006699" d="M159.448,149.391c0,5.576-4.53,10.059-10.108,10.059H10.109C4.533,159.449,0,154.967,0,149.391V10.06
		C0,4.482,4.533,0,10.109,0h139.23c5.578,0,10.108,4.482,10.108,10.06V149.391L159.448,149.391z"/>
	<polygon fill="#FFFFFF" points="24.445,37.914 24.445,140.318 135.004,140.318 135.004,37.914 123.866,37.914 123.866,129.182 
		35.583,129.182 35.583,37.914 24.445,37.914 	"/>
	<polygon fill="#FFFFFF" points="74.555,29.811 74.555,40.531 64.124,30.107 64.124,46.119 56.535,46.119 56.535,30.107 
		46.103,40.531 46.103,29.811 60.329,15.595 74.555,29.811 	"/>
	<polygon fill="#FFFFFF" points="113.346,31.903 113.346,21.183 102.914,31.607 102.914,15.595 95.325,15.595 95.325,31.607 
		84.894,21.183 84.894,31.903 99.12,46.119 113.346,31.903 	"/>
	<path fill="#FFFFFF" d="M83.61,61.651c3.299,0,5.98-2.684,5.98-5.986c0-3.308-2.682-5.994-5.98-5.994
		c-3.316,0-5.998,2.686-5.998,5.994C77.612,58.968,80.294,61.651,83.61,61.651"/>
	<path fill="#FFFFFF" d="M68.809,74.782l2.564-1.558v7.505c-2.132,0.381-4.149,1.105-5.982,2.117L68.809,74.782L68.809,74.782z
		 M89.699,99.977c-0.015,8.209-6.67,14.85-14.872,14.867c-8.2-0.018-14.845-6.658-14.869-14.867
		c0.024-7.02,4.878-12.887,11.415-14.451c1.103-0.268,2.261-0.41,3.455-0.41c2.984,0,5.761,0.893,8.094,2.404
		c1.417,0.924,2.678,2.092,3.714,3.438c0.831,1.094,1.521,2.307,2.028,3.605C89.323,96.234,89.685,98.064,89.699,99.977
		 M103.622,110.805l-0.006-2.656v-6.361h-0.007l-0.018-10.707c0-1.938-1.57-3.514-3.505-3.52L89.91,87.527
		c-0.966-1.174-2.067-2.227-3.275-3.141V70.643c0-4.216-3.42-7.629-7.641-7.629c-1.677,0-3.238,0.556-4.511,1.484l-0.221,0.111
		l-9.305,5.64c-0.527,0.323-0.937,0.799-1.179,1.369l-5.273,12.433c-0.566,1.342-0.058,2.865,1.131,3.613
		c-2.727,3.363-4.369,7.645-4.369,12.312c0,10.807,8.758,19.557,19.561,19.559c10.798-0.002,19.561-8.752,19.561-19.559
		c0-1.871-0.272-3.684-0.76-5.398l2.927,0.016l0.026,16.223c0,1.938,1.575,3.516,3.518,3.516h3.518v-3.447L103.622,110.805"/>
</g>
</svg>
