<?xml version="1.0" encoding="utf-8"?>
<!-- Generator: Adobe Illustrator 16.0.0, SVG Export Plug-In . SVG Version: 6.00 Build 0)  -->
<!DOCTYPE svg PUBLIC "-//W3C//DTD SVG 1.1//EN" "http://www.w3.org/Graphics/SVG/1.1/DTD/svg11.dtd">
<svg version="1.1" id="Ebene_1" xmlns="http://www.w3.org/2000/svg" xmlns:xlink="http://www.w3.org/1999/xlink" x="0px" y="0px"
	 width="159.448px" height="159.449px" viewBox="0 0 159.448 159.449" enable-background="new 0 0 159.448 159.449"
	 xml:space="preserve">
<g>
	<path fill="#006699" d="M159.448,149.391c0,5.576-4.53,10.059-10.108,10.059H10.109C4.533,159.449,0,154.967,0,149.391V10.06
		C0,4.482,4.533,0,10.109,0H149.34c5.578,0,10.108,4.482,10.108,10.06V149.391L159.448,149.391z"/>
	<polygon fill="#FFFFFF" points="24.445,37.914 24.445,140.318 135.004,140.318 135.004,37.914 123.866,37.914 123.866,129.182 
		35.583,129.182 35.582,37.914 24.444,37.914 	"/>
	<polygon fill="#FFFFFF" points="74.555,29.811 74.555,40.531 64.123,30.107 64.123,46.119 56.535,46.119 56.535,30.107 
		46.103,40.531 46.103,29.811 60.329,15.595 74.555,29.811 	"/>
	<polygon fill="#FFFFFF" points="113.346,31.903 113.346,21.183 102.914,31.607 102.914,15.595 95.325,15.595 95.325,31.607 
		84.894,21.183 84.894,31.903 99.119,46.119 113.346,31.903 	"/>
	<path fill="#FFFFFF" d="M79.293,91.656l-3.808-23.272c-0.202-1.264-1.718-2.354-2.569-2.753c-1.876-0.879-4.292-1.372-8.241-1.372
		s-6.368,0.493-8.243,1.372c-0.852,0.398-2.368,1.489-2.566,2.753L50.06,91.656c-0.2,1.273,0.67,2.475,1.944,2.676
		c0.124,0.016,0.245,0.027,0.367,0.027c1.131,0,2.127-0.82,2.309-1.975h-0.001l3.361-19.505h1.152
		c-1.293,8.644-2.584,15.771-3.598,21.947c-0.252,1.541,0.845,2.893,2.339,3.516v22.924h2.703c1.723,0,3.118-1.398,3.118-3.119
		V98.713h1.841v19.434c0,1.721,1.399,3.119,3.12,3.119h2.702V98.342c1.496-0.623,2.594-1.975,2.338-3.516
		c-1.011-6.176-2.301-13.303-3.597-21.947h1.155l3.36,19.505c0.178,1.154,1.176,1.975,2.303,1.975c0.122,0,0.248-0.012,0.371-0.027
		C78.621,94.131,79.492,92.93,79.293,91.656 M64.675,62.977c2.926,0,5.303-2.374,5.303-5.301c0-2.931-2.377-5.305-5.303-5.305
		c-2.928,0-5.302,2.375-5.302,5.305C59.373,60.603,61.747,62.977,64.675,62.977"/>
	<path fill="#FFFFFF" d="M107.701,68.85c0-0.685-0.365-1.536-0.761-1.837c-2.652-2.02-5.556-2.981-10.882-2.981
		c-5.325,0-8.229,0.961-10.881,2.981c-0.396,0.301-0.762,1.152-0.762,1.837l-1.009,23.17c0,1.295,1.049,2.34,2.341,2.34
		c1.29,0,2.338-1.045,2.338-2.34l0.82-19.099h1.227l-0.832,14.964l0.002,33.381h2.91c1.722,0,3.118-1.398,3.118-3.119V92.752h1.454
		v25.395c0,1.721,1.397,3.119,3.12,3.119h2.908V87.885l-0.83-14.964h1.227l0.821,19.099c0,1.295,1.047,2.34,2.34,2.34
		c1.292,0,2.338-1.045,2.338-2.34L107.701,68.85L107.701,68.85z M96.059,62.977c2.929,0,5.302-2.374,5.302-5.301
		c0-2.931-2.373-5.305-5.302-5.305c-2.928,0-5.301,2.375-5.301,5.305C90.758,60.603,93.131,62.977,96.059,62.977"/>
</g>
</svg>
