<?xml version="1.0" encoding="utf-8"?>
<!-- Generator: Adobe Illustrator 16.0.0, SVG Export Plug-In . SVG Version: 6.00 Build 0)  -->
<!DOCTYPE svg PUBLIC "-//W3C//DTD SVG 1.1//EN" "http://www.w3.org/Graphics/SVG/1.1/DTD/svg11.dtd">
<svg version="1.1" id="Ebene_1" xmlns="http://www.w3.org/2000/svg" xmlns:xlink="http://www.w3.org/1999/xlink" x="0px" y="0px"
	 width="159.449px" height="159.449px" viewBox="0 0 159.449 159.449" enable-background="new 0 0 159.449 159.449"
	 xml:space="preserve">
<g>
	<g>
		<defs>
			<rect id="SVGID_1_" width="159.449" height="159.449"/>
		</defs>
		<clipPath id="SVGID_2_">
			<use xlink:href="#SVGID_1_"  overflow="visible"/>
		</clipPath>
		<path clip-path="url(#SVGID_2_)" fill="#FEE404" d="M79.725,159.449c44.031,0,79.725-35.693,79.725-79.725
			C159.449,35.694,123.756,0,79.725,0C35.694,0,0,35.694,0,79.725C0,123.756,35.694,159.449,79.725,159.449"/>
	</g>
	<polyline points="131.92,131.92 27.53,131.92 27.53,108.807 27.53,108.807 41.096,108.807 41.096,118.354 118.354,118.354 
		118.354,41.096 41.096,41.096 41.096,49.538 27.53,49.538 27.53,27.53 131.92,27.53 131.92,131.92 	"/>
	<polygon points="64.222,104.643 45.763,104.643 63.713,86.68 27.8,86.68 27.8,73.612 63.713,73.612 45.763,55.649 64.222,55.649 
		88.703,80.146 64.222,104.643 	"/>
</g>
</svg>
