<?xml version="1.0" encoding="utf-8"?>
<!-- Generator: Adobe Illustrator 16.0.0, SVG Export Plug-In . SVG Version: 6.00 Build 0)  -->
<!DOCTYPE svg PUBLIC "-//W3C//DTD SVG 1.1//EN" "http://www.w3.org/Graphics/SVG/1.1/DTD/svg11.dtd">
<svg version="1.1" id="Ebene_1" xmlns="http://www.w3.org/2000/svg" xmlns:xlink="http://www.w3.org/1999/xlink" x="0px" y="0px"
	 width="159.449px" height="159.449px" viewBox="0 0 159.449 159.449" enable-background="new 0 0 159.449 159.449"
	 xml:space="preserve">
<g>
	<g>
		<defs>
			<rect id="SVGID_1_" width="159.449" height="159.449"/>
		</defs>
		<clipPath id="SVGID_2_">
			<use xlink:href="#SVGID_1_"  overflow="visible"/>
		</clipPath>
		<path clip-path="url(#SVGID_2_)" fill="#8ED2F0" d="M149.35,0H10.099C4.516,0,0,4.516,0,10.099v139.252
			c0,5.582,4.516,10.098,10.099,10.098h139.25c5.582,0,10.1-4.516,10.1-10.098V10.099C159.449,4.516,154.932,0,149.35,0"/>
	</g>
	<path d="M56.708,91.689l-5.935-36.276c-0.315-1.971-2.678-3.67-4.005-4.291c-2.924-1.37-6.69-2.139-12.847-2.139
		c-6.157,0-9.927,0.769-12.849,2.139c-1.328,0.621-3.691,2.32-4,4.291l-5.934,36.276c-0.312,1.984,1.045,3.861,3.03,4.174
		c0.193,0.023,0.382,0.041,0.572,0.041c1.764,0,3.315-1.279,3.599-3.078h-0.002l5.239-30.405h1.796
		c-2.016,13.473-4.029,24.584-5.609,34.211c-0.393,2.4,1.316,4.508,3.646,5.48v35.732h4.214c2.686,0,4.86-2.18,4.86-4.861v-30.293
		h2.87v30.293c0,2.682,2.181,4.861,4.863,4.861h4.212v-35.732c2.333-0.973,4.043-3.08,3.645-5.48
		c-1.577-9.627-3.587-20.738-5.606-34.211h1.801l5.238,30.405c0.277,1.799,1.833,3.078,3.59,3.078c0.189,0,0.386-0.018,0.578-0.041
		C55.66,95.551,57.017,93.674,56.708,91.689 M33.92,46.984c4.561,0,8.267-3.7,8.267-8.263c0-4.569-3.707-8.27-8.267-8.27
		c-4.564,0-8.265,3.701-8.265,8.27C25.655,43.285,29.356,46.984,33.92,46.984"/>
	<path d="M99.125,56.14c0-1.068-0.568-2.395-1.186-2.863c-4.135-3.149-8.658-4.646-16.961-4.646c-8.301,0-12.828,1.497-16.962,4.646
		c-0.617,0.468-1.188,1.795-1.188,2.863l-1.572,36.118c0,2.018,1.634,3.646,3.648,3.646c2.011,0,3.645-1.629,3.645-3.646
		l1.278-29.771h1.913l-1.297,23.326l0.003,52.033h4.535c2.684,0,4.86-2.18,4.86-4.861V93.4h2.269v39.584
		c0,2.682,2.178,4.861,4.863,4.861h4.533V85.812l-1.295-23.326h1.912l1.281,29.771c0,2.018,1.629,3.646,3.646,3.646
		c2.014,0,3.643-1.629,3.643-3.646L99.125,56.14L99.125,56.14z M80.978,46.984c4.565,0,8.264-3.7,8.264-8.263
		c0-4.569-3.699-8.27-8.264-8.27c-4.564,0-8.264,3.701-8.264,8.27C72.714,43.285,76.414,46.984,80.978,46.984"/>
	<path d="M150.816,91.689l-5.936-36.276c-0.314-1.971-2.678-3.67-4.006-4.291c-2.924-1.37-6.689-2.139-12.846-2.139
		s-9.928,0.769-12.85,2.139c-1.328,0.621-3.691,2.32-4,4.291l-5.934,36.276c-0.312,1.984,1.045,3.861,3.031,4.174
		c0.193,0.023,0.381,0.041,0.57,0.041c1.764,0,3.316-1.279,3.6-3.078h-0.002l5.238-30.405h1.797
		c-2.016,13.473-4.029,24.584-5.609,34.211c-0.393,2.4,1.316,4.508,3.646,5.48v35.732h4.213c2.688,0,4.861-2.18,4.861-4.861v-30.293
		h2.871v30.293c0,2.682,2.18,4.861,4.863,4.861h4.211v-35.732c2.334-0.973,4.045-3.08,3.645-5.48
		c-1.576-9.627-3.588-20.738-5.605-34.211h1.801l5.236,30.405c0.279,1.799,1.834,3.078,3.592,3.078c0.189,0,0.385-0.018,0.576-0.041
		C149.768,95.551,151.125,93.674,150.816,91.689 M128.029,46.984c4.561,0,8.268-3.7,8.268-8.263c0-4.569-3.707-8.27-8.268-8.27
		c-4.564,0-8.266,3.701-8.266,8.27C119.764,43.285,123.465,46.984,128.029,46.984"/>
	<path d="M59.004,36.229c4.04,0,7.313-3.274,7.313-7.313s-3.274-7.313-7.313-7.313c-4.039,0-7.313,3.274-7.313,7.313
		S54.965,36.229,59.004,36.229L59.004,36.229z"/>
	<path d="M102.949,36.229c4.039,0,7.312-3.274,7.312-7.313s-3.273-7.313-7.312-7.313s-7.314,3.274-7.314,7.313
		S98.91,36.229,102.949,36.229L102.949,36.229z"/>
</g>
</svg>
