<?xml version="1.0" encoding="utf-8"?>
<!-- Generator: Adobe Illustrator 16.0.0, SVG Export Plug-In . SVG Version: 6.00 Build 0)  -->
<!DOCTYPE svg PUBLIC "-//W3C//DTD SVG 1.1//EN" "http://www.w3.org/Graphics/SVG/1.1/DTD/svg11.dtd">
<svg version="1.1" id="Ebene_1" xmlns="http://www.w3.org/2000/svg" xmlns:xlink="http://www.w3.org/1999/xlink" x="0px" y="0px"
	 width="159.449px" height="159.449px" viewBox="0 0 159.449 159.449" enable-background="new 0 0 159.449 159.449"
	 xml:space="preserve">
<g>
	<g>
		<defs>
			<rect id="SVGID_1_" width="159.449" height="159.449"/>
		</defs>
		<clipPath id="SVGID_2_">
			<use xlink:href="#SVGID_1_"  overflow="visible"/>
		</clipPath>
		<path clip-path="url(#SVGID_2_)" fill="#E42125" d="M159.449,149.354c0,5.58-4.531,10.094-10.098,10.094H10.109
			C4.541,159.447,0,154.934,0,149.354V10.086C0,4.516,4.541,0,10.109,0h139.242c5.566,0,10.098,4.516,10.098,10.086V149.354
			L159.449,149.354z"/>
	</g>
	<path fill="#FFFFFF" d="M37.123,37.478V27.376h-4.209C18.803,42.285,20.288,36.636,19.5,49.093l-5.378,0.021
		c0.272-20.896-1.411-15.003,18.336-32.794l7.189,0.113v-4.209h13.469v5.051c3.841,0.084,7.545,0.505,10.943,1.684v7.576
		c-2.563,0.738-5.779,1.099-9.26,1.684l-0.175,9.229c8.951,2.799,14.571,6.614,14.486,16.025L68.27,146.91H22.813V53.472
		C24.481,40.627,30.763,37.699,37.123,37.478L37.123,37.478L37.123,37.478z"/>
	<path fill="#FFFFFF" d="M113.592,67.76c-5.623-12.275-4.916-23.122-13.334-28.273c18.781-2.009,18.611,12.402,28.789,29.237
		c5.186,8.594,7.824,10.196,16.213,16.106C136.1,85.77,125.486,87.15,113.592,67.76L113.592,67.76L113.592,67.76z"/>
	<path fill="#FFFFFF" d="M145.057,120.672c-8.5,7.547-21.377,6.592-30.076,0.104c-7.646-7.744-11.135-16.434-23.998-18.555
		c20.277-12.459,30.207,5.918,35.693,10.637C133.854,118.629,139.029,118.273,145.057,120.672L145.057,120.672L145.057,120.672z"/>
	<path fill="#FFFFFF" d="M145.326,93.398v18.986c-28.385-5.812-39.951-24.453-40.225-45.44
		C120.887,83.955,123.102,89.512,145.326,93.398L145.326,93.398L145.326,93.398z"/>
	<path fill="#FFFFFF" d="M145.209,147.154c-23.85,0.783-35.461-4.844-39.859-25.793c19.035,13.258,24.793,10.391,39.211,8.492
		C145.182,135.549,145.209,141.434,145.209,147.154L145.209,147.154L145.209,147.154z"/>
	<path fill="#FFFFFF" d="M144.467,57.146l0.639,18.19c-17.383-9.262-23.779-27-17.914-43.751
		C133.092,45.46,133.197,51.079,144.467,57.146L144.467,57.146L144.467,57.146z"/>
	<polygon fill="#E42125" points="28.706,62.731 62.377,62.731 62.377,83.775 28.706,83.775 28.706,62.731 	"/>
</g>
</svg>
