<?xml version="1.0" encoding="utf-8"?>
<!-- Generator: Adobe Illustrator 16.0.0, SVG Export Plug-In . SVG Version: 6.00 Build 0)  -->
<!DOCTYPE svg PUBLIC "-//W3C//DTD SVG 1.1//EN" "http://www.w3.org/Graphics/SVG/1.1/DTD/svg11.dtd">
<svg version="1.1" id="Ebene_1" xmlns="http://www.w3.org/2000/svg" xmlns:xlink="http://www.w3.org/1999/xlink" x="0px" y="0px"
	 width="159.449px" height="159.449px" viewBox="0 0 159.449 159.449" enable-background="new 0 0 159.449 159.449"
	 xml:space="preserve">
<g>
	<g>
		<defs>
			<rect id="SVGID_1_" width="159.449" height="159.449"/>
		</defs>
		<clipPath id="SVGID_2_">
			<use xlink:href="#SVGID_1_"  overflow="visible"/>
		</clipPath>
		<path clip-path="url(#SVGID_2_)" fill="#53AA2E" d="M10.099,159.449H149.35c5.584,0,10.1-4.516,10.1-10.098V10.099
			c0-5.583-4.516-10.099-10.1-10.099H10.099C4.516,0,0,4.516,0,10.099v139.253C0,154.934,4.516,159.449,10.099,159.449"/>
	</g>
	<polygon fill="#FFFFFF" points="61.812,26.617 61.812,61.853 26.575,61.853 26.575,97.676 61.812,97.676 61.812,132.912 
		97.635,132.912 97.635,97.676 132.875,97.676 132.875,61.853 97.635,61.853 97.635,26.617 61.812,26.617 	"/>
</g>
</svg>
