<?xml version="1.0" encoding="utf-8"?>
<!-- Generator: Adobe Illustrator 16.0.0, SVG Export Plug-In . SVG Version: 6.00 Build 0)  -->
<!DOCTYPE svg PUBLIC "-//W3C//DTD SVG 1.1//EN" "http://www.w3.org/Graphics/SVG/1.1/DTD/svg11.dtd">
<svg version="1.1" id="Ebene_1" xmlns="http://www.w3.org/2000/svg" xmlns:xlink="http://www.w3.org/1999/xlink" x="0px" y="0px"
	 width="159.449px" height="159.449px" viewBox="0 0 159.449 159.449" enable-background="new 0 0 159.449 159.449"
	 xml:space="preserve">
<g>
	<path fill="#FFFFFF" d="M10.099,156.945h139.249c4.189,0,7.598-3.408,7.598-7.598V10.098c0-4.189-3.408-7.598-7.598-7.598H10.099
		C5.909,2.5,2.5,5.909,2.5,10.098v139.25C2.5,153.537,5.909,156.945,10.099,156.945"/>
	<g>
		<defs>
			<rect id="SVGID_1_" width="159.449" height="159.449"/>
		</defs>
		<clipPath id="SVGID_2_">
			<use xlink:href="#SVGID_1_"  overflow="visible"/>
		</clipPath>
		<path clip-path="url(#SVGID_2_)" fill="none" stroke="#006699" stroke-width="5" stroke-miterlimit="10" d="M10.099,156.945
			h139.249c4.189,0,7.598-3.408,7.598-7.598V10.098c0-4.189-3.408-7.598-7.598-7.598H10.099C5.909,2.5,2.5,5.909,2.5,10.098v139.25
			C2.5,153.537,5.909,156.945,10.099,156.945"/>
	</g>
	<path fill="#006699" d="M147.379,60.59v-9.123h-38.107v9.123H147.379L147.379,60.59z M103.391,94.441
		c0.523-2.732,0.785-7.406,0.785-14.023V51.467h-9.684v30.492c0,4.361-0.141,7.482-0.424,9.361c-0.283,1.881-1.123,3.467-2.52,4.756
		c-0.596,0.553-1.344,0.963-2.188,1.277v9.936c2.119-0.256,3.973-0.717,5.492-1.436c2.354-1.117,4.236-2.615,5.643-4.494
		S102.867,97.174,103.391,94.441L103.391,94.441z M81.709,97.502c-1.067-0.342-1.99-0.854-2.77-1.537
		c-1.559-1.367-2.546-3.178-2.96-5.434c-0.24-1.402-0.36-4.475-0.36-9.211V51.467h-9.682v29.402c0,6.166,0.316,10.828,0.949,13.986
		c0.436,2.131,1.341,4.168,2.715,6.109c1.374,1.943,3.243,3.521,5.61,4.736c1.634,0.842,3.808,1.383,6.498,1.643V97.502
		L81.709,97.502z M49.933,104.949c3.848-1.715,6.787-3.703,8.815-5.959V77.034H37.879v9.287h11.088v6.994
		c-0.044,0.039-0.095,0.074-0.14,0.113v11.953C49.195,105.232,49.565,105.113,49.933,104.949L49.933,104.949z M48.509,68.8
		l9.617-2.068c-0.96-5.062-3.113-9.029-6.46-11.899c-3.348-2.87-7.998-4.305-13.951-4.305c-4.58,0-8.407,0.916-11.481,2.745
		c-4.034,2.382-7.098,5.803-9.191,10.265c-2.093,4.461-3.14,9.562-3.14,15.302c0,5.289,0.938,10.183,2.813,14.681
		c1.875,4.5,4.678,7.959,8.407,10.377c3.729,2.42,8.101,3.629,13.117,3.629c0.981,0,1.959-0.053,2.935-0.16v-9.838
		c-1.187,0.311-2.373,0.486-3.556,0.486c-4.1,0-7.415-1.637-9.944-4.906c-2.53-3.271-3.794-8.178-3.794-14.72
		c0-6.065,1.248-10.64,3.745-13.723s5.86-4.625,10.091-4.625c2.791,0,5.119,0.784,6.983,2.35
		C46.563,63.957,47.833,66.093,48.509,68.8L48.509,68.8z M123.5,68.244v38.342h9.682V68.244H123.5L123.5,68.244z"/>
</g>
</svg>
