<?xml version="1.0" encoding="utf-8"?>
<!-- Generator: Adobe Illustrator 16.0.0, SVG Export Plug-In . SVG Version: 6.00 Build 0)  -->
<!DOCTYPE svg PUBLIC "-//W3C//DTD SVG 1.1//EN" "http://www.w3.org/Graphics/SVG/1.1/DTD/svg11.dtd">
<svg version="1.1" id="Ebene_1" xmlns="http://www.w3.org/2000/svg" xmlns:xlink="http://www.w3.org/1999/xlink" x="0px" y="0px"
	 width="159.449px" height="159.449px" viewBox="0 0 159.449 159.449" enable-background="new 0 0 159.449 159.449"
	 xml:space="preserve">
<g>
	<path fill="#006699" d="M10.099,159.449h139.252c5.582,0,10.098-4.516,10.098-10.098V10.099C159.449,4.517,154.934,0,149.352,0
		H10.099C4.516,0,0,4.517,0,10.099v139.253C0,154.934,4.516,159.449,10.099,159.449"/>
	<polygon fill="#FFFFFF" points="126.543,135.432 126.543,110.926 104.789,98.672 83.037,110.926 83.037,135.432 104.789,147.686 
		126.543,135.432 	"/>
	<polygon fill="#8ED2F0" points="78.117,135.432 78.117,110.926 56.364,98.672 34.612,110.926 34.612,135.432 56.364,147.686 
		78.117,135.432 	"/>
	<polygon fill="#FFFFFF" points="126.543,48.061 126.543,23.555 104.789,11.301 83.037,23.555 83.037,48.061 104.789,60.314 
		126.543,48.061 	"/>
	<polygon points="78.117,48.061 78.117,23.555 56.364,11.301 34.612,23.555 34.612,48.061 56.364,60.314 78.117,48.061 	"/>
	<polygon fill="#FFFFFF" points="150.756,91.746 150.756,67.24 129.002,54.987 107.25,67.24 107.25,91.746 129.002,104 
		150.756,91.746 	"/>
	<polygon fill="#FFFFFF" points="101.621,91.746 101.621,67.24 79.869,54.987 58.116,67.24 58.116,91.746 79.869,104 
		101.621,91.746 	"/>
	<polygon fill="#80B3CC" points="52.487,91.746 52.487,67.24 30.735,54.987 8.982,67.24 8.982,91.746 30.735,104 52.487,91.746 	"/>
	<polygon fill="#FFFFFF" points="49.667,48.991 49.667,36.844 63.062,36.844 63.062,48.991 66.472,48.991 66.472,23.221 
		63.062,23.221 63.062,33.803 49.667,33.803 49.667,23.221 46.257,23.221 46.257,48.991 49.667,48.991 	"/>
	<polygon fill="#FFFFFF" points="32.171,92.707 32.171,69.979 40.697,69.979 40.697,66.938 20.271,66.938 20.271,69.979 
		28.761,69.979 28.761,92.707 32.171,92.707 	"/>
	<path fill="#FFFFFF" d="M63.088,125.854c0,3.234-0.533,5.42-1.6,6.555c-1.066,1.139-2.854,1.707-5.361,1.707
		c-1.465,0-2.704-0.289-3.718-0.861c-1.014-0.574-1.729-1.393-2.145-2.453s-0.624-2.709-0.624-4.947v-14.871h-3.41v14.887
		c0,2.732,0.328,4.885,0.984,6.461s1.752,2.781,3.287,3.613s3.51,1.248,5.924,1.248c2.484,0,4.491-0.479,6.021-1.434
		s2.587-2.193,3.173-3.719c0.586-1.521,0.879-3.578,0.879-6.17v-14.887h-3.41V125.854L63.088,125.854z"/>
</g>
</svg>
