<?xml version="1.0" encoding="utf-8"?>
<!-- Generator: Adobe Illustrator 16.0.0, SVG Export Plug-In . SVG Version: 6.00 Build 0)  -->
<!DOCTYPE svg PUBLIC "-//W3C//DTD SVG 1.1//EN" "http://www.w3.org/Graphics/SVG/1.1/DTD/svg11.dtd">
<svg version="1.1" id="Ebene_1" xmlns="http://www.w3.org/2000/svg" xmlns:xlink="http://www.w3.org/1999/xlink" x="0px" y="0px"
	 width="159.449px" height="159.449px" viewBox="0 0 159.449 159.449" enable-background="new 0 0 159.449 159.449"
	 xml:space="preserve">
<g>
	<g>
		<defs>
			<rect id="SVGID_1_" width="159.449" height="159.449"/>
		</defs>
		<clipPath id="SVGID_2_">
			<use xlink:href="#SVGID_1_"  overflow="visible"/>
		</clipPath>
		<path clip-path="url(#SVGID_2_)" fill="#FFE500" d="M159.449,149.389c0,5.578-4.531,10.061-10.109,10.061H10.109
			C4.533,159.449,0,154.967,0,149.389V10.06C0,4.482,4.533,0,10.109,0h139.23c5.578,0,10.109,4.482,10.109,10.06V149.389
			L159.449,149.389z"/>
	</g>
	<polygon points="52.232,140.576 52.232,127.812 65.001,127.812 65.001,79.917 52.232,79.917 52.232,67.131 96.945,67.131 
		96.945,127.812 109.715,127.812 109.715,140.576 52.232,140.576 	"/>
	<polygon points="79.701,57.57 77.747,57.457 75.839,57.162 74.021,56.708 72.249,56.049 70.59,55.254 69,54.278 67.523,53.165 
		66.16,51.938 64.933,50.576 63.819,49.1 62.865,47.51 62.047,45.852 61.411,44.081 60.934,42.264 60.639,40.356 60.548,38.403 
		60.639,36.45 60.934,34.565 61.411,32.726 62.047,30.977 62.865,29.296 63.819,27.707 64.933,26.23 66.16,24.868 67.523,23.641 
		69,22.529 70.59,21.575 72.249,20.757 74.021,20.099 75.839,19.645 77.747,19.349 79.701,19.236 81.654,19.349 83.541,19.645 
		85.381,20.099 87.131,20.757 88.811,21.575 90.379,22.529 91.855,23.641 93.219,24.868 94.469,26.23 95.582,27.707 96.537,29.296 
		97.354,30.977 97.99,32.726 98.467,34.565 98.764,36.45 98.854,38.403 98.764,40.356 98.467,42.264 97.99,44.081 97.354,45.852 
		96.537,47.51 95.582,49.1 94.469,50.576 93.219,51.938 91.855,53.165 90.379,54.278 88.811,55.254 87.131,56.049 85.381,56.708 
		83.541,57.162 81.654,57.457 79.701,57.57 	"/>
</g>
</svg>
