<?xml version="1.0" encoding="utf-8"?>
<!-- Generator: Adobe Illustrator 16.0.0, SVG Export Plug-In . SVG Version: 6.00 Build 0)  -->
<!DOCTYPE svg PUBLIC "-//W3C//DTD SVG 1.1//EN" "http://www.w3.org/Graphics/SVG/1.1/DTD/svg11.dtd">
<svg version="1.1" id="Ebene_1" xmlns="http://www.w3.org/2000/svg" xmlns:xlink="http://www.w3.org/1999/xlink" x="0px" y="0px"
	 width="159.449px" height="159.449px" viewBox="0 0 159.449 159.449" enable-background="new 0 0 159.449 159.449"
	 xml:space="preserve">
<g>
	<g>
		<defs>
			<rect id="SVGID_1_" width="159.449" height="159.449"/>
		</defs>
		<clipPath id="SVGID_2_">
			<use xlink:href="#SVGID_1_"  overflow="visible"/>
		</clipPath>
		<path clip-path="url(#SVGID_2_)" fill="#8ED2F0" d="M10.099,159.449H149.35c5.584,0,10.1-4.516,10.1-10.1V10.099
			c0-5.583-4.516-10.099-10.1-10.099H10.099C4.516,0,0,4.516,0,10.099V149.35C0,154.934,4.516,159.449,10.099,159.449"/>
	</g>
	<path d="M6.85,109.32c4.097-7.893,18.08-34.494,18.08-34.494V44.952l-3.424-3.018c-0.583-0.396-0.968-1.062-0.968-1.821
		c0-1.21,0.985-2.194,2.195-2.194h19.355c1.211,0,2.195,0.983,2.195,2.194c0,0.76-0.383,1.425-0.968,1.821l-3.312,2.988h0.005
		l-0.005,29.905c0,0,14.042,26.601,18.08,34.494c0.802,1.562,1.667,2.984,1.667,4.873c0,3.904-3.167,7.072-7.072,7.072H12.254
		c-3.905,0-7.072-3.168-7.072-7.072C5.182,112.305,6.039,110.879,6.85,109.32"/>
	<path d="M88.254,70.244c0-1.211-0.986-2.196-2.197-2.196h-22.03c-1.215,0-2.196,0.985-2.196,2.196c0,0.757,0.384,1.423,0.963,1.817
		l3.428,3.019v42.7c0,2.07,1.679,3.75,3.751,3.75H80.31c2.073,0,3.752-1.68,3.752-3.75l-0.014-42.731h-0.076l3.312-2.987
		C87.869,71.667,88.254,71,88.254,70.244"/>
	<path d="M130.146,63.5l0.004-18.579h-0.004l3.312-2.988c0.584-0.397,0.963-1.062,0.963-1.821c0-1.211-0.98-2.194-2.191-2.194
		h-19.436c-1.211,0-2.195,0.983-2.195,2.194c0,0.759,0.383,1.424,0.969,1.821l3.422,3.019v18.514
		C101.066,66.838,90.725,79.38,90.725,94.34c0,11.529,6.145,21.623,15.332,27.189h32.881c9.188-5.566,15.33-15.66,15.33-27.189
		C154.268,79.431,143.998,66.923,130.146,63.5"/>
</g>
</svg>
