<?xml version="1.0" encoding="utf-8"?>
<!-- Generator: Adobe Illustrator 16.0.0, SVG Export Plug-In . SVG Version: 6.00 Build 0)  -->
<!DOCTYPE svg PUBLIC "-//W3C//DTD SVG 1.1//EN" "http://www.w3.org/Graphics/SVG/1.1/DTD/svg11.dtd">
<svg version="1.1" id="Ebene_1" xmlns="http://www.w3.org/2000/svg" xmlns:xlink="http://www.w3.org/1999/xlink" x="0px" y="0px"
	 width="159.448px" height="159.449px" viewBox="0 0 159.448 159.449" enable-background="new 0 0 159.448 159.449"
	 xml:space="preserve">
<g>
	<path fill="#8ED2F0" d="M159.448,149.35V10.098C159.448,4.516,154.933,0,149.35,0H10.134C4.555,0.004,0.043,4.518,0.043,10.098
		V149.35c0,5.578,4.508,10.092,10.084,10.1H149.35C154.933,159.449,159.448,154.934,159.448,149.35"/>
	<path fill="#8ED2F0" d="M0.043,149.35V10.098C0.043,4.518,4.555,0.004,10.134,0h-0.037C4.516,0,0,4.516,0,10.098V149.35
		c0,5.584,4.516,10.098,10.098,10.098h0.029C4.551,159.441,0.043,154.928,0.043,149.35"/>
	<path d="M40.485,82.129c-8.458,0-15.109-6.661-15.109-15.114c0-8.442,6.65-15.103,15.109-15.103
		c8.458,0,15.103,6.661,15.103,15.103C55.588,75.468,48.943,82.129,40.485,82.129"/>
	<path d="M88.811,122.357v-13.291c0-8.158,6.352-21.449,22.943-21.449h14.825c16.304,0,22.645,13.291,22.645,21.449v13.291H88.811
		L88.811,122.357z"/>
	<path d="M119.022,82.129c-8.463,0-15.119-6.661-15.119-15.114c0-8.442,6.656-15.103,15.119-15.103
		c8.442,0,15.098,6.661,15.098,15.103C134.12,75.468,127.465,82.129,119.022,82.129"/>
	<path d="M79.75,67.319c-8.458,0-15.108-6.662-15.108-15.114c0-8.453,6.65-15.113,15.108-15.113c8.453,0,15.108,6.66,15.108,15.113
		C94.858,60.657,88.203,67.319,79.75,67.319"/>
	<path d="M10.268,122.357v-13.291c0-8.158,6.346-21.449,22.942-21.449h14.827c16.313,0,22.641,13.291,22.641,21.449v13.291H10.268
		L10.268,122.357z"/>
</g>
</svg>
