<?xml version="1.0" encoding="utf-8"?>
<!-- Generator: Adobe Illustrator 16.0.0, SVG Export Plug-In . SVG Version: 6.00 Build 0)  -->
<!DOCTYPE svg PUBLIC "-//W3C//DTD SVG 1.1//EN" "http://www.w3.org/Graphics/SVG/1.1/DTD/svg11.dtd">
<svg version="1.1" id="Ebene_1" xmlns="http://www.w3.org/2000/svg" xmlns:xlink="http://www.w3.org/1999/xlink" x="0px" y="0px"
	 width="159.475px" height="159.475px" viewBox="0 0 159.475 159.475" enable-background="new 0 0 159.475 159.475"
	 xml:space="preserve">
<g>
	<g>
		<g>
			<defs>
				<rect id="SVGID_1_" x="0" y="0" width="159.449" height="159.449"/>
			</defs>
			<clipPath id="SVGID_2_">
				<use xlink:href="#SVGID_1_"  overflow="visible"/>
			</clipPath>
			<path clip-path="url(#SVGID_2_)" fill="#FFFFFF" stroke="#4D4C4C" stroke-width="5" stroke-miterlimit="10" d="M156.975,147.23
				c0,5.402-4.389,9.744-9.793,9.744H12.317c-5.4,0-9.792-4.342-9.792-9.744V12.27c0-5.402,4.392-9.745,9.792-9.745h134.864
				c5.404,0,9.793,4.343,9.793,9.745L156.975,147.23L156.975,147.23z"/>
		</g>
	</g>
	<path fill="#FFFFFF" d="M150.465,64.885c-1.807-3.188-3.543-6.253-5.287-9.332c0.131-0.093,0.229-0.175,0.338-0.238
		c2.607-1.466,3.803-4.091,3.34-7.335c-0.403-2.838-2.057-4.721-5.117-5.159c-2.543-0.361-5.151-0.275-7.733-0.339
		c-0.943-0.022-1.889,0.094-2.82,0.146c0,7.468,0,14.833,0,22.176c1.996,0,3.924,0,5.928,0c0-2.677,0-5.273,0-8.148
		c0.279,0.517,0.437,0.782,0.572,1.058c1.082,2.17,2.15,4.348,3.254,6.508c0.135,0.267,0.445,0.628,0.685,0.634
		C145.848,64.906,148.076,64.885,150.465,64.885L150.465,64.885z M99.512,64.885c0-0.164,0.023-0.266-0.004-0.35
		c-2.348-7.127-4.691-14.252-7.072-21.368c-0.084-0.248-0.522-0.524-0.805-0.531c-1.791-0.05-3.584,0.005-5.375-0.042
		c-0.635-0.015-0.869,0.211-1.051,0.795c-2.138,6.892-4.307,13.773-6.461,20.659c-0.079,0.25-0.113,0.514-0.175,0.803
		c1.996,0,3.876,0,5.799,0c0.311-1.028,0.579-2.048,0.946-3.033c0.097-0.261,0.486-0.574,0.75-0.583
		c1.758-0.053,3.521-0.007,5.279-0.04c0.51-0.01,0.742,0.167,0.869,0.644c0.221,0.832,0.463,1.662,0.758,2.469
		c0.086,0.232,0.383,0.548,0.588,0.552C95.537,64.902,97.516,64.885,99.512,64.885L99.512,64.885z M71.051,64.845
		c0-2.287,0-4.51,0-6.861c0.729,0,1.362,0.03,1.991-0.004c3.385-0.195,6.119-2.248,7.007-5.448c1.13-4.062,0.155-9.022-5.829-9.824
		c-2.971-0.4-6.04-0.07-9.116-0.07c0,7.418,0,14.791,0,22.208C67.064,64.845,68.974,64.845,71.051,64.845L71.051,64.845z
		 M100.756,42.595c0,7.5,0,14.869,0,22.219c1.996,0,3.926,0,5.938,0c0-2.296,0-4.521,0-6.707c1.16-0.115,2.252-0.127,3.306-0.347
		c3.879-0.811,6.252-4.14,6.045-8.378c-0.189-3.87-2.533-6.413-6.621-6.743C106.572,42.411,103.688,42.595,100.756,42.595
		L100.756,42.595z M123.91,59.498c0-1.207,0-2.312,0-3.539c2.084,0,4.106,0,6.155,0c0-1.715,0-3.308,0-5.021
		c-2.063,0-4.094,0-6.145,0c0-1.093,0-2.06,0-3.12c2.199,0,4.326,0,6.49,0c0-1.771,0-3.447,0-5.154c-4.187,0-8.324,0-12.468,0
		c0,7.418,0,14.783,0,22.142c4.199,0,8.314,0,12.443,0c0-1.792,0-3.526,0-5.308C128.211,59.498,126.105,59.498,123.91,59.498
		L123.91,59.498z"/>
	<path fill="#E31470" d="M149.389,76.965c0-1.488-0.002-2.978-0.002-4.466c0-0.744,0-1.491,0-2.235c0-0.893,0.314-1.053-0.746-1.053
		c-3.201,0-6.404,0-9.604,0c-0.738,0-1.478,0-2.218,0c-0.868,0-1.479-0.406-1.479,0.63c0,1.44,0,2.882,0,4.323
		c0.002,6.244,0.008,12.484-0.002,18.729c-0.004,3.205,0.17,6.476-0.08,9.672c-0.168,2.162-0.514,4.656-2.451,5.978
		c-2.016,1.377-5.326,1.237-7.615,0.815c-1.758-0.326-3.217-1.323-3.967-2.971c-1.09-2.398-0.826-5.273-0.83-7.832
		c-0.004-2.963-0.006-5.924-0.008-8.887c-0.002-6.17,0-12.341,0.002-18.512c0-1.027,0.453-1.976-0.748-1.976
		c-0.748,0-1.496,0-2.242,0c-1.496,0-2.987,0-4.481,0c-2.984,0-5.972,0-8.955,0H60.064l0.001,1.165l0.351,26.373l0.105,0.451
		l-0.094,0.021l-0.09-0.403l-0.214-0.298L47.337,69.897l-1.227-0.771l-16.32,0.015l-0.877,0.038v51.24h13.414V92.49l0.372,0.566
		l12.598,26.576l1.361,0.879l16.033-0.021l1.041-0.051v-39h8.755v38.988h14.205V81.424h6.798c0.887,0,1.772,0,2.659,0
		c0,5.125,0.023,10.25,0.047,15.373c0.021,4.582-0.348,9.365,1.191,13.758c2.773,7.906,10.594,10.98,18.443,10.98
		c4.312,0,8.42-0.259,12.463-1.935c3.106-1.289,5.811-3.381,7.68-6.197c2.342-3.522,3.295-7.768,3.394-11.952
		c0.112-4.933,0.026-9.875,0.026-14.808C149.393,83.416,149.391,80.191,149.389,76.965L149.389,76.965z"/>
	<polygon fill="#E31470" points="10.63,69.111 24.755,69.111 24.755,120.492 23.662,120.492 11.672,120.496 10.63,120.576 	"/>
	<polygon fill="#96BF0D" points="10.63,42.803 13.443,42.616 27.995,52.205 27.98,55.334 13.27,65.03 10.63,64.694 	"/>
	<path fill="#96BF0D" d="M150.465,64.885c-2.389,0-4.617,0.021-6.844-0.028c-0.238-0.006-0.55-0.367-0.685-0.634
		c-1.104-2.16-2.172-4.338-3.254-6.508c-0.137-0.274-0.293-0.541-0.572-1.057c0,2.875,0,5.471,0,8.147c-2.004,0-3.932,0-5.928,0
		c0-7.342,0-14.708,0-22.176c0.933-0.053,1.877-0.169,2.82-0.146c2.582,0.062,5.19-0.022,7.733,0.339
		c3.062,0.438,4.714,2.32,5.117,5.159c0.463,3.244-0.731,5.869-3.34,7.335c-0.109,0.062-0.207,0.146-0.338,0.238
		C146.922,58.631,148.658,61.696,150.465,64.885L150.465,64.885z M139.135,47.613c0,1.646,0,3.16,0,4.709
		c1.246,0.152,2.367,0.089,3.139-0.985c0.597-0.825,0.601-2.111,0.021-2.886C141.475,47.354,140.312,47.525,139.135,47.613
		L139.135,47.613z"/>
	<path fill="#96BF0D" d="M99.512,64.885c-1.996,0-3.975,0.017-5.953-0.024c-0.205-0.004-0.502-0.319-0.588-0.552
		c-0.295-0.807-0.537-1.637-0.758-2.469c-0.127-0.477-0.359-0.653-0.869-0.644c-1.76,0.032-3.521-0.014-5.279,0.04
		c-0.264,0.009-0.653,0.322-0.75,0.583c-0.367,0.984-0.637,2.006-0.946,3.033c-1.923,0-3.803,0-5.799,0
		c0.062-0.29,0.096-0.554,0.175-0.803c2.154-6.886,4.324-13.767,6.461-20.659c0.182-0.584,0.416-0.811,1.051-0.795
		c1.791,0.047,3.584-0.008,5.375,0.042c0.281,0.007,0.721,0.283,0.805,0.531c2.381,7.116,4.726,14.241,7.072,21.368
		C99.535,64.619,99.512,64.721,99.512,64.885L99.512,64.885z M88.672,50.145c-0.566,2.027-1.148,4.103-1.742,6.226
		c1.205,0,2.34,0,3.539,0C89.855,54.246,89.26,52.178,88.672,50.145L88.672,50.145z"/>
	<path fill="#96BF0D" d="M71.051,64.845c-2.077,0-3.986,0-5.946,0c0-7.417,0-14.79,0-22.208c3.076,0,6.146-0.33,9.116,0.07
		c5.984,0.801,6.959,5.762,5.829,9.825c-0.889,3.199-3.623,5.252-7.007,5.447c-0.629,0.034-1.263,0.003-1.991,0.003
		C71.051,60.335,71.051,62.559,71.051,64.845L71.051,64.845z M71.009,47.554c0,1.631-0.018,3.282,0.03,4.93
		c0.003,0.15,0.429,0.424,0.648,0.413c1.608-0.071,2.763-1.452,2.606-3.049C74.127,48.146,72.919,47.259,71.009,47.554
		L71.009,47.554z"/>
	<path fill="#96BF0D" d="M100.756,42.595c2.932,0,5.815-0.185,8.666,0.045c4.088,0.33,6.432,2.873,6.621,6.743
		c0.207,4.238-2.166,7.567-6.045,8.378c-1.054,0.219-2.146,0.23-3.306,0.347c0,2.187,0,4.411,0,6.707c-2.012,0-3.94,0-5.938,0
		C100.756,57.464,100.756,50.096,100.756,42.595L100.756,42.595z M106.695,52.824c1.242,0.177,2.265-0.276,2.816-1.222
		c0.59-1.007,0.527-2.396-0.15-3.255c-0.569-0.724-1.653-1.03-2.666-0.747C106.695,49.343,106.695,51.087,106.695,52.824
		L106.695,52.824z"/>
	<path fill="#96BF0D" d="M123.91,59.498c2.194,0,4.301,0,6.479,0c0,1.781,0,3.516,0,5.308c-4.129,0-8.244,0-12.443,0
		c0-7.358,0-14.723,0-22.142c4.144,0,8.281,0,12.468,0c0,1.708,0,3.385,0,5.154c-2.164,0-4.291,0-6.49,0c0,1.061,0,2.027,0,3.12
		c2.051,0,4.08,0,6.145,0c0,1.713,0,3.306,0,5.021c-2.049,0-4.071,0-6.155,0C123.91,57.187,123.91,58.291,123.91,59.498
		L123.91,59.498z"/>
	<path fill="#FFFFFF" d="M60.415,96.721c0.035,0.15,0.07,0.301,0.105,0.451c-0.032,0.008-0.062,0.014-0.094,0.021
		c-0.03-0.135-0.06-0.268-0.09-0.403C60.363,96.768,60.389,96.744,60.415,96.721L60.415,96.721z"/>
	<path fill="#FFFFFF" d="M139.135,47.613c1.178-0.088,2.34-0.259,3.16,0.838c0.578,0.774,0.574,2.062-0.021,2.886
		c-0.771,1.074-1.893,1.138-3.139,0.985C139.135,50.773,139.135,49.258,139.135,47.613L139.135,47.613z"/>
	<path fill="#FFFFFF" d="M88.672,50.145c0.588,2.033,1.184,4.102,1.797,6.226c-1.199,0-2.334,0-3.539,0
		C87.523,54.247,88.105,52.172,88.672,50.145L88.672,50.145z"/>
	<path fill="#FFFFFF" d="M71.009,47.554c1.911-0.295,3.118,0.592,3.285,2.294c0.156,1.597-0.999,2.979-2.606,3.049
		c-0.22,0.01-0.646-0.263-0.648-0.413C70.991,50.836,71.009,49.186,71.009,47.554L71.009,47.554z"/>
	<path fill="#FFFFFF" d="M106.695,52.824c0-1.736,0-3.48,0-5.223c1.013-0.283,2.097,0.023,2.666,0.747
		c0.679,0.858,0.74,2.248,0.15,3.255C108.959,52.547,107.938,53,106.695,52.824L106.695,52.824z"/>
</g>
</svg>
