<?xml version="1.0" encoding="utf-8"?>
<!-- Generator: Adobe Illustrator 16.0.0, SVG Export Plug-In . SVG Version: 6.00 Build 0)  -->
<!DOCTYPE svg PUBLIC "-//W3C//DTD SVG 1.1//EN" "http://www.w3.org/Graphics/SVG/1.1/DTD/svg11.dtd">
<svg version="1.1" id="Ebene_1" xmlns="http://www.w3.org/2000/svg" xmlns:xlink="http://www.w3.org/1999/xlink" x="0px" y="0px"
	 width="159.449px" height="159.449px" viewBox="0 0 159.449 159.449" enable-background="new 0 0 159.449 159.449"
	 xml:space="preserve">
<g>
	<g>
		<defs>
			<rect id="SVGID_1_" width="159.449" height="159.449"/>
		</defs>
		<clipPath id="SVGID_2_">
			<use xlink:href="#SVGID_1_"  overflow="visible"/>
		</clipPath>
		<path clip-path="url(#SVGID_2_)" fill="#8ED2F0" d="M10.099,159.449H149.35c5.584,0,10.1-4.516,10.1-10.1V10.099
			c0-5.583-4.516-10.099-10.1-10.099H10.099C4.516,0,0,4.516,0,10.099V149.35C0,154.934,4.516,159.449,10.099,159.449"/>
	</g>
	<path d="M77.413,110.205c0,0-5.244-10.027-17.383-10.027s-28.141,10.027-38.906,10.027V41.83c10.765,0,26.767-10.035,38.906-10.035
		S77.413,41.83,77.413,41.83V110.205L77.413,110.205z"/>
	<path d="M82.041,110.205c0,0,5.238-10.027,17.375-10.027c12.145,0,28.148,10.027,38.904,10.027V41.83
		c-10.756,0-26.76-10.035-38.904-10.035c-12.137,0-17.375,10.035-17.375,10.035V110.205L82.041,110.205z"/>
	<path d="M79.723,127.654c-6.152,0-9.516-3.623-11.005-5.844H11.091V46.926h5.244v69.027h55.479l0.709,1.686
		c0.06,0.137,1.933,4.158,7.199,4.158c5.391,0,7.182-4.117,7.199-4.158l0.709-1.686h55.482V46.926h5.244v74.884H90.73
		C89.24,124.031,85.879,127.654,79.723,127.654"/>
</g>
</svg>
