<?xml version="1.0" encoding="utf-8"?>
<!-- Generator: Adobe Illustrator 16.0.0, SVG Export Plug-In . SVG Version: 6.00 Build 0)  -->
<!DOCTYPE svg PUBLIC "-//W3C//DTD SVG 1.1//EN" "http://www.w3.org/Graphics/SVG/1.1/DTD/svg11.dtd">
<svg version="1.1" id="Ebene_1" xmlns="http://www.w3.org/2000/svg" xmlns:xlink="http://www.w3.org/1999/xlink" x="0px" y="0px"
	 width="159.447px" height="159.447px" viewBox="0 0 159.447 159.447" enable-background="new 0 0 159.447 159.447"
	 xml:space="preserve">
<g>
	<path fill="#53AA2E" d="M159.447,149.352c0,5.578-4.53,10.096-10.097,10.096H10.108C4.54,159.447,0,154.93,0,149.352V10.087
		C0,4.514,4.54,0,10.108,0h139.242c5.566,0,10.097,4.514,10.097,10.087V149.352L159.447,149.352z"/>
	<path fill="#FFFFFF" d="M54.435,76.261c-5.573,0-9.958-4.395-9.958-9.963c0-5.573,4.385-9.959,9.958-9.959
		c5.581,0,9.963,4.387,9.963,9.959C64.398,71.867,60.016,76.261,54.435,76.261"/>
	<path fill="#FFFFFF" d="M84.727,102.786V94.02c0-5.375,4.188-14.136,15.128-14.136h9.779c10.746,0,14.926,8.761,14.926,14.136
		v8.767H84.727L84.727,102.786z"/>
	<path fill="#FFFFFF" d="M104.647,76.261c-5.581,0-9.967-4.395-9.967-9.963c0-5.573,4.386-9.959,9.967-9.959
		c5.564,0,9.954,4.387,9.954,9.959C114.602,71.867,110.212,76.261,104.647,76.261"/>
	<path fill="#FFFFFF" d="M79.544,66.496c-5.577,0-9.963-4.394-9.963-9.963c0-5.573,4.386-9.967,9.963-9.967
		c5.573,0,9.962,4.395,9.962,9.967C89.506,62.102,85.117,66.496,79.544,66.496"/>
	<path fill="#FFFFFF" d="M34.515,102.786V94.02c0-5.375,4.188-14.136,15.127-14.136h9.775c10.759,0,14.926,8.761,14.926,14.136
		v8.767H34.515L34.515,102.786z"/>
	<polygon fill="#FFFFFF" points="38.879,32.985 39.654,15.834 47.065,15.579 46.544,45.987 16.131,46.502 16.387,39.098 
		33.663,38.275 17.075,21.696 22.333,16.438 38.879,32.985 	"/>
	<polygon fill="#FFFFFF" points="137.114,16.975 142.373,22.232 125.785,38.813 143.061,39.634 143.316,47.039 112.903,46.522 
		112.384,16.116 119.794,16.371 120.573,33.521 137.114,16.975 	"/>
	<polygon fill="#FFFFFF" points="22.333,142.428 17.075,137.171 33.663,120.592 16.387,119.769 16.132,112.363 46.544,112.881 
		47.064,143.287 39.655,143.031 38.879,125.883 22.333,142.428 	"/>
	<polygon fill="#FFFFFF" points="120.573,125.346 119.794,142.496 112.384,142.752 112.903,112.344 143.315,111.827 
		143.061,119.233 125.785,120.054 142.373,136.634 137.114,141.893 120.573,125.346 	"/>
</g>
</svg>
