<?xml version="1.0" encoding="utf-8"?>
<!-- Generator: Adobe Illustrator 16.0.0, SVG Export Plug-In . SVG Version: 6.00 Build 0)  -->
<!DOCTYPE svg PUBLIC "-//W3C//DTD SVG 1.1//EN" "http://www.w3.org/Graphics/SVG/1.1/DTD/svg11.dtd">
<svg version="1.1" id="Ebene_1" xmlns="http://www.w3.org/2000/svg" xmlns:xlink="http://www.w3.org/1999/xlink" x="0px" y="0px"
	 width="159.449px" height="159.449px" viewBox="0 0 159.449 159.449" enable-background="new 0 0 159.449 159.449"
	 xml:space="preserve">
<g>
	<g>
		<defs>
			<rect id="SVGID_1_" width="159.449" height="159.449"/>
		</defs>
		<clipPath id="SVGID_2_">
			<use xlink:href="#SVGID_1_"  overflow="visible"/>
		</clipPath>
		<path clip-path="url(#SVGID_2_)" fill="#99214A" d="M149.35,0H10.099C4.516,0,0,4.516,0,10.099v139.252
			c0,5.582,4.516,10.098,10.099,10.098H149.35c5.584,0,10.1-4.516,10.1-10.098V10.099C159.449,4.516,154.934,0,149.35,0"/>
	</g>
	<polygon fill="#FFFFFF" points="60.073,23.032 103.182,104.115 82.121,136.328 39.028,55.259 60.073,23.032 	"/>
	<polygon fill="#FFFFFF" points="103.729,23.032 146.822,104.115 125.793,136.328 82.699,55.259 103.729,23.032 	"/>
	<polygon fill="#FFFFFF" points="36.412,59.174 58.446,99.98 47.696,116.195 25.766,75.501 36.412,59.174 	"/>
	<polygon fill="#FFFFFF" points="23.258,79.395 45.286,120.215 34.536,136.418 12.626,95.75 23.258,79.395 	"/>
</g>
</svg>
