<?xml version="1.0" encoding="utf-8"?>
<!-- Generator: Adobe Illustrator 16.0.0, SVG Export Plug-In . SVG Version: 6.00 Build 0)  -->
<!DOCTYPE svg PUBLIC "-//W3C//DTD SVG 1.1//EN" "http://www.w3.org/Graphics/SVG/1.1/DTD/svg11.dtd">
<svg version="1.1" id="Ebene_1" xmlns="http://www.w3.org/2000/svg" xmlns:xlink="http://www.w3.org/1999/xlink" x="0px" y="0px"
	 width="159.449px" height="159.449px" viewBox="0 0 159.449 159.449" enable-background="new 0 0 159.449 159.449"
	 xml:space="preserve">
<g>
	<g>
		<defs>
			<rect id="SVGID_1_" width="159.449" height="159.449"/>
		</defs>
		<clipPath id="SVGID_2_">
			<use xlink:href="#SVGID_1_"  overflow="visible"/>
		</clipPath>
		<path clip-path="url(#SVGID_2_)" fill="#AC1A21" d="M156.949,149.391c0,4.168-3.414,7.559-7.609,7.559H10.109
			c-4.196,0-7.609-3.391-7.609-7.559V10.06c0-4.168,3.414-7.56,7.609-7.56h139.23c4.195,0,7.609,3.392,7.609,7.56V149.391
			L156.949,149.391z"/>
		<path clip-path="url(#SVGID_2_)" fill="#AC1A21" d="M156.949,149.391h-2.5c-0.002,1.393-0.564,2.641-1.492,3.568
			c-0.934,0.924-2.199,1.488-3.617,1.49H10.109c-1.417-0.002-2.684-0.566-3.616-1.49c-0.929-0.928-1.492-2.176-1.493-3.568V10.06
			c0.001-1.395,0.564-2.643,1.493-3.57C7.426,5.567,8.692,5.001,10.109,5h139.23c1.418,0.001,2.684,0.567,3.617,1.49
			c0.928,0.927,1.49,2.175,1.492,3.57v139.331H156.949h2.5V10.06c0.002-2.774-1.143-5.306-2.969-7.117
			c-1.824-1.815-4.361-2.944-7.141-2.943H10.109c-2.778-0.001-5.317,1.128-7.14,2.943C1.143,4.754-0.001,7.286,0,10.06v139.331
			c-0.001,2.773,1.143,5.305,2.969,7.115c1.823,1.814,4.362,2.943,7.14,2.943h139.23c2.779,0,5.316-1.129,7.141-2.943
			c1.826-1.811,2.971-4.342,2.969-7.115H156.949L156.949,149.391z"/>
	</g>
	<polygon fill="#FFFFFF" points="115.193,34.385 60.929,34.385 15.799,70.065 114.227,70.065 141.244,48.705 97.08,48.705 
		115.193,34.385 	"/>
	<polygon fill="#FFFFFF" points="41.851,118.793 96.115,118.793 141.244,83.111 42.817,83.111 15.799,104.473 59.963,104.473 
		41.851,118.793 	"/>
	<polyline fill="#AC1A21" points="73.592,56.49 73.592,98.584 81.842,98.584 81.842,56.49 	"/>
</g>
</svg>
