<?xml version="1.0" encoding="utf-8"?>
<!-- Generator: Adobe Illustrator 16.0.0, SVG Export Plug-In . SVG Version: 6.00 Build 0)  -->
<!DOCTYPE svg PUBLIC "-//W3C//DTD SVG 1.1//EN" "http://www.w3.org/Graphics/SVG/1.1/DTD/svg11.dtd">
<svg version="1.1" id="Ebene_1" xmlns="http://www.w3.org/2000/svg" xmlns:xlink="http://www.w3.org/1999/xlink" x="0px" y="0px"
	 width="159.449px" height="159.449px" viewBox="0 0 159.449 159.449" enable-background="new 0 0 159.449 159.449"
	 xml:space="preserve">
<g>
	<path fill="#006699" d="M159.449,149.491c0,5.575-4.531,10.059-10.109,10.059H10.109C4.533,159.549,0,155.066,0,149.491V10.16
		C0,4.583,4.533,0.1,10.109,0.1h139.23c5.578,0,10.108,4.482,10.108,10.06v139.331H159.449z"/>
	<g enable-background="new    ">
		<path fill="#FFFFFF" d="M39.303,137.927V21.706H76.96c14.27,0,23.571,0.582,27.905,1.744c6.66,1.744,12.234,5.537,16.728,11.376
			c4.491,5.841,6.739,13.386,6.739,22.634c0,7.135-1.297,13.135-3.885,17.996c-2.59,4.863-5.881,8.681-9.871,11.456
			c-3.99,2.774-8.046,4.611-12.168,5.51c-5.604,1.109-13.715,1.664-24.338,1.664H62.769v43.841H39.303z M62.769,41.367v32.979
			h12.843c9.248,0,15.432-0.607,18.551-1.824c3.118-1.215,5.562-3.117,7.333-5.707c1.77-2.589,2.656-5.602,2.656-9.038
			c0-4.228-1.242-7.716-3.727-10.465c-2.484-2.747-5.629-4.465-9.434-5.152c-2.803-0.528-8.432-0.793-16.886-0.793H62.769z"/>
	</g>
</g>
</svg>
