<?xml version="1.0" encoding="utf-8"?>
<!-- Generator: Adobe Illustrator 16.0.0, SVG Export Plug-In . SVG Version: 6.00 Build 0)  -->
<!DOCTYPE svg PUBLIC "-//W3C//DTD SVG 1.1//EN" "http://www.w3.org/Graphics/SVG/1.1/DTD/svg11.dtd">
<svg version="1.1" id="Ebene_1" xmlns="http://www.w3.org/2000/svg" xmlns:xlink="http://www.w3.org/1999/xlink" x="0px" y="0px"
	 width="159.451px" height="159.449px" viewBox="0 0 159.451 159.449" enable-background="new 0 0 159.451 159.449"
	 xml:space="preserve">
<g>
	<g>
		<defs>
			<rect id="SVGID_1_" width="159.449" height="159.449"/>
		</defs>
		<clipPath id="SVGID_2_">
			<use xlink:href="#SVGID_1_"  overflow="visible"/>
		</clipPath>
		<path clip-path="url(#SVGID_2_)" fill="#8ED2F0" d="M10.1,159.449h139.252c5.58,0,10.1-4.516,10.1-10.1V10.098
			c0-5.583-4.52-10.098-10.1-10.098H10.1C4.516,0,0,4.515,0,10.098V149.35C0,154.934,4.516,159.449,10.1,159.449"/>
	</g>
	<text transform="matrix(1 0 0 1 61.0308 110.7988)" font-family="'Klavika-Regular'" font-size="21.0178">    </text>
	<text transform="matrix(1 0 0 1 79.1011 110.7988)" font-family="'Klavika-Regular'" font-size="21.0178"> </text>
	<path d="M38.923,74.548c-8.796,0-15.718-6.928-15.718-15.725c0-8.782,6.922-15.713,15.718-15.713
		c8.793,0,15.707,6.931,15.707,15.713C54.63,67.621,47.716,74.548,38.923,74.548"/>
	<path d="M7.469,116.408v-13.83c0-8.484,6.624-22.316,23.883-22.316H46.77c16.98,0,23.564,13.832,23.564,22.316v13.83H7.469
		L7.469,116.408z"/>
	<path d="M77.788,43.04h74.195v60.183H77.788V43.04L77.788,43.04z M86.35,94.654h57.066v-43.05H86.35V94.654L86.35,94.654z"/>
	<polygon points="135.219,107.838 94.551,107.838 94.551,116.404 135.219,116.404 135.219,107.838 	"/>
</g>
</svg>
