<?xml version="1.0" encoding="utf-8"?>
<!-- Generator: Adobe Illustrator 16.0.0, SVG Export Plug-In . SVG Version: 6.00 Build 0)  -->
<!DOCTYPE svg PUBLIC "-//W3C//DTD SVG 1.1//EN" "http://www.w3.org/Graphics/SVG/1.1/DTD/svg11.dtd">
<svg version="1.1" id="Ebene_1" xmlns="http://www.w3.org/2000/svg" xmlns:xlink="http://www.w3.org/1999/xlink" x="0px" y="0px"
	 width="159.452px" height="159.449px" viewBox="0 0 159.452 159.449" enable-background="new 0 0 159.452 159.449"
	 xml:space="preserve">
<g>
	<g>
		<defs>
			<rect id="SVGID_1_" x="0.001" width="159.449" height="159.449"/>
		</defs>
		<clipPath id="SVGID_2_">
			<use xlink:href="#SVGID_1_"  overflow="visible"/>
		</clipPath>
		<path clip-path="url(#SVGID_2_)" fill="#FFE500" d="M10.1,159.449h139.253c5.58,0,10.1-4.516,10.1-10.1V10.098
			c0-5.583-4.52-10.098-10.1-10.098H10.1C4.516,0,0,4.515,0,10.098V149.35C0,154.934,4.516,159.449,10.1,159.449"/>
	</g>
	<path d="M28.713,111.967c0-21.49,0-42.98,0-64.471C39.06,58.253,49.406,69.011,59.752,79.768
		C49.406,90.5,39.059,101.234,28.713,111.967L28.713,111.967z M126.46,116.506c-31.156,0-62.307,0-93.461,0
		c10.75-10.395,21.5-20.787,32.25-31.18l8.58,8.541c1.628,1.621,3.677,2.479,5.926,2.479c2.264,0,4.303-0.867,5.896-2.51
		c2.867-2.838,5.734-5.676,8.604-8.514C104.989,95.717,115.724,106.111,126.46,116.506L126.46,116.506z M131.146,47.454
		c0,21.517,0,43.036,0,64.554c-10.457-10.746-20.914-21.492-31.371-32.24C110.231,68.997,120.688,58.226,131.146,47.454
		L131.146,47.454z M126.522,44.12c-15.484,15.009-30.971,30.019-46.456,45.027c-0.079,0.08-0.117,0.117-0.312,0.117
		c-0.195,0-0.232-0.037-0.283-0.088C63.978,74.157,48.482,59.138,32.988,44.12C64.166,44.12,95.345,44.12,126.522,44.12
		L126.522,44.12z M24.394,120.584c36.889,0,73.775,0,110.664,0c0-27.24,0-54.478,0-81.719c-36.889,0-73.775,0-110.664,0
		C24.394,66.106,24.394,93.344,24.394,120.584L24.394,120.584z"/>
	<path fill="none" stroke="#000000" stroke-width="5" stroke-linecap="square" d="M28.713,111.967c0-21.49,0-42.98,0-64.471
		C39.06,58.253,49.406,69.011,59.752,79.768C49.406,90.5,39.059,101.234,28.713,111.967L28.713,111.967z M126.46,116.506
		c-31.156,0-62.307,0-93.461,0c10.75-10.395,21.5-20.787,32.25-31.18l8.58,8.541c1.628,1.621,3.677,2.479,5.926,2.479
		c2.264,0,4.303-0.867,5.896-2.51c2.867-2.838,5.734-5.676,8.604-8.514C104.989,95.717,115.724,106.111,126.46,116.506
		L126.46,116.506z M131.146,47.454c0,21.517,0,43.036,0,64.554c-10.457-10.746-20.914-21.492-31.371-32.24
		C110.231,68.997,120.688,58.226,131.146,47.454L131.146,47.454z M126.522,44.12c-15.484,15.009-30.971,30.019-46.456,45.027
		c-0.079,0.08-0.117,0.117-0.312,0.117c-0.195,0-0.232-0.037-0.283-0.088C63.978,74.157,48.482,59.138,32.988,44.12
		C64.166,44.12,95.345,44.12,126.522,44.12L126.522,44.12z M24.394,120.584c36.889,0,73.775,0,110.664,0c0-27.24,0-54.478,0-81.719
		c-36.889,0-73.775,0-110.664,0C24.394,66.106,24.394,93.344,24.394,120.584L24.394,120.584z"/>
</g>
</svg>
