<?xml version="1.0" encoding="utf-8"?>
<!-- Generator: Adobe Illustrator 16.0.0, SVG Export Plug-In . SVG Version: 6.00 Build 0)  -->
<!DOCTYPE svg PUBLIC "-//W3C//DTD SVG 1.1//EN" "http://www.w3.org/Graphics/SVG/1.1/DTD/svg11.dtd">
<svg version="1.1" id="Ebene_1" xmlns="http://www.w3.org/2000/svg" xmlns:xlink="http://www.w3.org/1999/xlink" x="0px" y="0px"
	 width="159.451px" height="159.449px" viewBox="0 0 159.451 159.449" enable-background="new 0 0 159.451 159.449"
	 xml:space="preserve">
<g>
	<g>
		<defs>
			<rect id="SVGID_1_" width="159.449" height="159.449"/>
		</defs>
		<clipPath id="SVGID_2_">
			<use xlink:href="#SVGID_1_"  overflow="visible"/>
		</clipPath>
		<path clip-path="url(#SVGID_2_)" fill="#8ED2F0" d="M10.1,159.447h139.252c5.582,0,10.1-4.514,10.1-10.098V10.098
			c0-5.582-4.518-10.098-10.1-10.098H10.1C4.517,0,0,4.516,0,10.098V149.35C0,154.934,4.517,159.447,10.1,159.447"/>
	</g>
	<path d="M10.875,44.645h56.482v75.585H10.875V44.645L10.875,44.645z M16.274,114.289H61.96V50.588H16.274V114.289L16.274,114.289z"
		/>
	<polygon points="19.714,123.436 58.52,123.436 58.52,129.381 19.714,129.381 19.714,123.436 	"/>
	<path d="M105.98,56.083c7.193,0,13.018-5.814,13.018-13.011c0-7.191-5.824-13.006-13.018-13.006
		c-7.186,0-13.008,5.815-13.008,13.006C92.973,50.27,98.795,56.083,105.98,56.083"/>
	<path d="M137.314,122.039c0.857,3.049,4.025,4.826,7.08,3.961c3.051-0.859,4.826-4.037,3.961-7.088l-13.811-48.424
		c-0.6-1.849-1.943-5.013-5.941-7.083c-5.232-2.717-9.564-4.729-22.623-4.729c-13.061,0-17.395,2.012-22.627,4.729
		c-3.995,2.071-5.341,5.234-5.939,7.083L70.694,95.66c-0.86,3.051,0.908,6.227,3.964,7.086c3.052,0.865,6.217-0.91,7.084-3.959
		l6.697-18.297h3.006l-2.043,36.711v11.955h14.795h1.783h1.781h14.793v-11.955l-2.037-36.711h3.006L137.314,122.039L137.314,122.039
		z"/>
	<path d="M49.667,105.59H28.771v-4.635h4.641v-17.42h-4.641v-4.646h16.256v22.066h4.64V105.59L49.667,105.59z M38.753,61.48
		c3.827,0,6.973,3.137,6.973,6.967c0,3.833-3.146,6.965-6.973,6.965c-3.828,0-6.965-3.133-6.965-6.965
		C31.788,64.617,34.925,61.48,38.753,61.48"/>
</g>
</svg>
