<?xml version="1.0" encoding="utf-8"?>
<!-- Generator: Adobe Illustrator 16.0.0, SVG Export Plug-In . SVG Version: 6.00 Build 0)  -->
<!DOCTYPE svg PUBLIC "-//W3C//DTD SVG 1.1//EN" "http://www.w3.org/Graphics/SVG/1.1/DTD/svg11.dtd">
<svg version="1.1" id="Ebene_1" xmlns="http://www.w3.org/2000/svg" xmlns:xlink="http://www.w3.org/1999/xlink" x="0px" y="0px"
	 width="159.449px" height="159.449px" viewBox="0 0 159.449 159.449" enable-background="new 0 0 159.449 159.449"
	 xml:space="preserve">
<g>
	<g>
		<defs>
			<rect id="SVGID_1_" width="159.449" height="159.449"/>
		</defs>
		<clipPath id="SVGID_2_">
			<use xlink:href="#SVGID_1_"  overflow="visible"/>
		</clipPath>
		<path clip-path="url(#SVGID_2_)" fill="#8ED2F0" d="M10.098,159.449h139.253c5.582,0,10.098-4.516,10.098-10.098V10.099
			C159.449,4.517,154.934,0,149.352,0H10.098C4.517,0,0,4.517,0,10.099v139.252C0,154.934,4.517,159.449,10.098,159.449"/>
	</g>
	<path d="M133.24,91.047c6.004,0,10.867-4.865,10.867-10.868c0-6.004-4.863-10.867-10.867-10.867
		c-6.006,0-10.867,4.863-10.867,10.867C122.373,86.182,127.234,91.047,133.24,91.047"/>
	<path d="M86.418,91.047c6.002,0,10.871-4.865,10.871-10.868c0-6.004-4.869-10.867-10.871-10.867
		c-6.005,0-10.868,4.863-10.868,10.867C75.55,86.182,80.413,91.047,86.418,91.047"/>
	<path d="M138.641,96.564h-10.674c-11.941,0-16.516,9.568-16.516,15.438h43.5C154.951,106.133,150.385,96.564,138.641,96.564"/>
	<path d="M65.952,65.906c-2.664-1.245-5.832-0.088-7.072,2.576l-7.068,15.155l-8.623-7.286c-2.056-0.95-4.491-1.529-7.36-1.529
		H25.157c-11.938,0-16.516,9.567-16.516,15.438v21.742h38.158l-0.027-21.264l5.359,4.799c0.715,0.338,1.49,0.506,2.251,0.506
		c0.615,0,1.227-0.107,1.828-0.322c1.33-0.488,2.396-1.465,3-2.758l9.322-19.982C69.765,70.313,68.62,67.149,65.952,65.906"/>
	<path d="M30.425,69.308c6.005,0,10.868-4.868,10.868-10.868c0-6.003-4.862-10.869-10.868-10.869
		c-6.002,0-10.872,4.866-10.872,10.869C19.554,64.44,24.423,69.308,30.425,69.308"/>
	<path d="M91.822,96.564H81.156c-11.945,0-16.526,9.568-16.526,15.438h43.501C108.131,106.133,103.564,96.564,91.822,96.564"/>
</g>
</svg>
