<?xml version="1.0" encoding="utf-8"?>
<!-- Generator: Adobe Illustrator 16.0.0, SVG Export Plug-In . SVG Version: 6.00 Build 0)  -->
<!DOCTYPE svg PUBLIC "-//W3C//DTD SVG 1.1//EN" "http://www.w3.org/Graphics/SVG/1.1/DTD/svg11.dtd">
<svg version="1.1" id="Ebene_1" xmlns="http://www.w3.org/2000/svg" xmlns:xlink="http://www.w3.org/1999/xlink" x="0px" y="0px"
	 width="159.449px" height="159.45px" viewBox="0 0 159.449 159.45" enable-background="new 0 0 159.449 159.45"
	 xml:space="preserve">
<g>
	<g>
		<defs>
			<rect id="SVGID_1_" y="0" width="159.449" height="159.449"/>
		</defs>
		<clipPath id="SVGID_2_">
			<use xlink:href="#SVGID_1_"  overflow="visible"/>
		</clipPath>
		<path clip-path="url(#SVGID_2_)" fill="#FFE500" d="M10.098,159.45H149.35c5.584,0,10.1-4.516,10.1-10.1V10.099
			c0-5.582-4.516-10.099-10.1-10.099H10.098C4.516,0,0,4.517,0,10.099V149.35C0,154.934,4.516,159.45,10.098,159.45"/>
	</g>
	<path d="M130.977,50.66c0-1.095-0.584-2.456-1.223-2.943c-4.244-3.234-8.898-4.77-17.443-4.77c-8.521,0-13.184,1.536-17.434,4.77
		c-0.629,0.487-1.221,1.848-1.221,2.943l-1.613,37.14c0,2.068,1.678,3.748,3.748,3.748c2.078,0,3.75-1.68,3.75-3.748l1.316-30.609
		h1.965l-1.338,23.978c0,0,0,53.49,0.012,53.49h4.664c2.758,0,4.988-2.236,4.988-4.998V88.975h2.334v40.686
		c0,2.762,2.238,4.998,5.002,4.998h4.664v-53.49l-1.338-23.978h1.969l1.314,30.609c0,2.068,1.676,3.748,3.744,3.748
		c2.074,0,3.75-1.68,3.75-3.748L130.977,50.66L130.977,50.66z M112.311,41.251c4.699,0,8.506-3.792,8.506-8.496
		c0-4.695-3.807-8.493-8.506-8.493c-4.686,0-8.488,3.798-8.488,8.493C103.822,37.459,107.625,41.251,112.311,41.251"/>
	<path d="M43.256,41.196c4.677,0,8.467-3.79,8.467-8.467s-3.79-8.467-8.467-8.467c-4.677,0-8.467,3.789-8.467,8.467
		S38.58,41.196,43.256,41.196 M76.452,38.546c-2.077-0.973-4.541-0.071-5.509,2.007l-5.504,11.801l-12.238-5.676
		c-1.602-0.734-3.498-1.188-5.733-1.188h-8.312c-9.303,0-12.867,7.455-12.867,12.026v16.937h29.724V57.12l9.677,4.511
		c0.554,0.264,1.156,0.391,1.75,0.391c0.48,0,0.956-0.083,1.421-0.25c1.04-0.383,1.868-1.139,2.342-2.147l7.26-15.564
		C79.424,41.978,78.53,39.514,76.452,38.546"/>
	<path d="M63.639,127.045H44.44v-4.26h4.264v-16.004H44.44v-4.268h14.935v20.271h4.263V127.045L63.639,127.045z M53.611,86.52
		c3.516,0,6.407,2.881,6.407,6.4c0,3.521-2.891,6.4-6.407,6.4c-3.517,0-6.399-2.879-6.399-6.4
		C47.212,89.401,50.094,86.52,53.611,86.52 M26.289,135.014h55.496V79.46H26.289V135.014L26.289,135.014z"/>
</g>
</svg>
