<?xml version="1.0" encoding="utf-8"?>
<!-- Generator: Adobe Illustrator 16.0.0, SVG Export Plug-In . SVG Version: 6.00 Build 0)  -->
<!DOCTYPE svg PUBLIC "-//W3C//DTD SVG 1.1//EN" "http://www.w3.org/Graphics/SVG/1.1/DTD/svg11.dtd">
<svg version="1.1" id="Ebene_1" xmlns="http://www.w3.org/2000/svg" xmlns:xlink="http://www.w3.org/1999/xlink" x="0px" y="0px"
	 width="159.449px" height="159.449px" viewBox="0 0 159.449 159.449" enable-background="new 0 0 159.449 159.449"
	 xml:space="preserve">
<g>
	<g>
		<defs>
			<rect id="SVGID_1_" width="159.449" height="159.449"/>
		</defs>
		<clipPath id="SVGID_2_">
			<use xlink:href="#SVGID_1_"  overflow="visible"/>
		</clipPath>
		<path clip-path="url(#SVGID_2_)" fill="#8ED1F0" d="M10.099,159.449h139.253c5.582,0,10.098-4.516,10.098-10.098V10.099
			C159.449,4.516,154.934,0,149.352,0H10.099C4.516,0,0,4.516,0,10.099v139.253C0,154.934,4.516,159.449,10.099,159.449"/>
	</g>
	<path d="M81.754,50.766c0-9.348-7.578-16.929-16.924-16.929c-9.348,0-16.928,7.581-16.928,16.929
		c0,9.347,7.58,16.928,16.928,16.928C74.176,67.694,81.754,60.113,81.754,50.766"/>
	<path d="M92.279,110.381h-29.94l5.597-15.945l0.051-0.172c0.22-0.621,0.404-1.242,0.553-1.877
		c2.421-10.111-3.152-20.62-13.172-24.134c-10.706-3.756-22.433,1.875-26.19,12.58l-15.554,44.297h23.125l12.488-35.098
		c0.401-1.135,1.639-1.727,2.778-1.324c1.076,0.385,1.663,1.523,1.369,2.611l-8.542,23.963c-0.074,0.195-0.132,0.393-0.184,0.605
		c-0.546,2.086-0.156,4.336,1.104,6.111c1.357,1.93,3.572,3.096,5.924,3.131l0.098,0.006h40.496c4.072,0,7.367-3.314,7.367-7.379
		C99.646,113.676,96.352,110.381,92.279,110.381"/>
	<polyline points="94.764,118.352 88.705,104.107 82.51,106.881 87.34,118.352 66.107,118.352 66.107,125.135 133.227,125.135 
		133.227,118.352 94.764,118.352 	"/>
	<polyline points="129.934,118.352 122.232,118.352 130.975,80.885 138.279,82.59 129.934,118.352 	"/>
	<polyline points="128.357,125.109 121.055,123.404 122.232,118.352 129.934,118.352 128.357,125.109 	"/>
</g>
</svg>
