<?xml version="1.0" encoding="utf-8"?>
<!-- Generator: Adobe Illustrator 16.0.0, SVG Export Plug-In . SVG Version: 6.00 Build 0)  -->
<!DOCTYPE svg PUBLIC "-//W3C//DTD SVG 1.1//EN" "http://www.w3.org/Graphics/SVG/1.1/DTD/svg11.dtd">
<svg version="1.1" id="Ebene_1" xmlns="http://www.w3.org/2000/svg" xmlns:xlink="http://www.w3.org/1999/xlink" x="0px" y="0px"
	 width="159.449px" height="159.449px" viewBox="0 0 159.449 159.449" enable-background="new 0 0 159.449 159.449"
	 xml:space="preserve">
<g>
	<g>
		<defs>
			<rect id="SVGID_1_" width="159.449" height="159.449"/>
		</defs>
		<clipPath id="SVGID_2_">
			<use xlink:href="#SVGID_1_"  overflow="visible"/>
		</clipPath>
		<path clip-path="url(#SVGID_2_)" fill="#006699" d="M143.504,0c8.801,0,15.912,7.142,15.912,15.953l0.033,127.543
			c0,8.811-7.168,15.953-15.967,15.953H15.946c-8.8,0-15.946-7.143-15.946-15.953L0.012,15.953C0.012,7.142,7.134,0,15.935,0
			H143.504L143.504,0z"/>
	</g>
	<path fill="#FFFFFF" d="M114.049,77.775c0.258-0.047,0.451-0.078,0.703-0.139c6.408-1.625,11.184-7.801,11.184-14.667
		l-0.146-46.952h17.363v47.198c0.018,16.402-12.438,30.044-28.4,31.729l-0.701,0.072L114.049,77.775L114.049,77.775z M108.883,95.02
		l-0.902-0.076c-15.959-1.666-28.301-15.152-28.301-31.554V16.018h17.254l-0.027,46.952c0,6.866,4.773,13.042,11.182,14.667
		c0.281,0.068,0.5,0.113,0.789,0.164L108.883,95.02L108.883,95.02z M66.735,143.127v-28.062h-5.479v28.062H66.735L66.735,143.127z
		 M103.984,143.127v-4.887H90.979v-6.818h11.074v-4.889H90.979v-6.58h13.006v-4.889H85.5v28.062H103.984L103.984,143.127z
		 M143.23,143.127v-28.062h-5.479v17.184l-11.113-17.184h-4.887v28.062h5.477v-17.225l11.115,17.225H143.23L143.23,143.127z
		 M48.221,115.064h-5.715l-4.374,17.697l-5.124-17.697h-4.099l-5.124,17.697l-4.335-17.697h-5.715l7.488,28.062h4.571l5.164-17.027
		l5.163,17.027h4.571L48.221,115.064L48.221,115.064z M12.259,16.018h59.549v17.025H12.259V16.018L12.259,16.018z M33.807,94.568
		V37.994h17.024v56.574H33.807L33.807,94.568z"/>
</g>
</svg>
