<?xml version="1.0" encoding="utf-8"?>
<!-- Generator: Adobe Illustrator 16.0.0, SVG Export Plug-In . SVG Version: 6.00 Build 0)  -->
<!DOCTYPE svg PUBLIC "-//W3C//DTD SVG 1.1//EN" "http://www.w3.org/Graphics/SVG/1.1/DTD/svg11.dtd">
<svg version="1.1" id="Ebene_1" xmlns="http://www.w3.org/2000/svg" xmlns:xlink="http://www.w3.org/1999/xlink" x="0px" y="0px"
	 width="159.449px" height="159.449px" viewBox="0 0 159.449 159.449" enable-background="new 0 0 159.449 159.449"
	 xml:space="preserve">
<g>
	<g>
		<defs>
			<rect id="SVGID_1_" width="159.449" height="159.449"/>
		</defs>
		<clipPath id="SVGID_2_">
			<use xlink:href="#SVGID_1_"  overflow="visible"/>
		</clipPath>
		<path clip-path="url(#SVGID_2_)" fill="#4D4C4C" d="M149.35,0H10.099C4.516,0,0,4.516,0,10.099v139.252
			c0,5.582,4.516,10.098,10.099,10.098h139.25c5.582,0,10.1-4.516,10.1-10.098V10.099C159.449,4.516,154.932,0,149.35,0"/>
	</g>
	<path fill="#FFFFFF" d="M106.773,86.129l-4.877-29.802c-0.258-1.619-2.199-3.015-3.291-3.525
		c-2.402-1.126-5.496-1.758-10.553-1.758c-5.059,0-8.155,0.632-10.556,1.758c-1.092,0.51-3.034,1.906-3.287,3.525l-4.875,29.802
		c-0.256,1.631,0.858,3.172,2.49,3.428c0.159,0.021,0.314,0.035,0.47,0.035c1.449,0,2.722-1.051,2.956-2.527h-0.001l4.305-24.98
		h1.476c-1.656,11.068-3.311,20.197-4.608,28.105c-0.323,1.973,1.082,3.705,2.996,4.504v29.355h3.462
		c2.205,0,3.992-1.789,3.992-3.994V95.168h2.359v24.887c0,2.205,1.791,3.994,3.994,3.994h3.461V94.693
		c1.916-0.799,3.322-2.531,2.994-4.504c-1.295-7.908-2.947-17.037-4.605-28.105h1.479l4.303,24.98
		c0.23,1.477,1.506,2.527,2.949,2.527c0.158,0,0.318-0.014,0.475-0.035C105.912,89.301,107.027,87.76,106.773,86.129 M88.053,49.401
		c3.746,0,6.791-3.039,6.791-6.788c0-3.754-3.045-6.794-6.791-6.794c-3.75,0-6.791,3.04-6.791,6.794
		C81.262,46.362,84.303,49.401,88.053,49.401"/>
	<path fill="#FFFFFF" d="M143.152,56.923c0-0.878-0.467-1.967-0.973-2.352c-3.398-2.589-7.115-3.818-13.936-3.818
		s-10.539,1.229-13.936,3.818c-0.506,0.385-0.975,1.474-0.975,2.352l-1.291,29.672c0,1.658,1.342,2.996,2.996,2.996
		c1.652,0,2.994-1.338,2.994-2.996l1.051-24.459h1.57l-1.064,19.164l0.002,42.748h3.727c2.205,0,3.992-1.789,3.992-3.994v-32.52
		h1.863v32.52c0,2.205,1.791,3.994,3.996,3.994h3.725V81.301l-1.062-19.164h1.568l1.055,24.459c0,1.658,1.338,2.996,2.994,2.996
		c1.654,0,2.994-1.338,2.994-2.996L143.152,56.923L143.152,56.923z M128.244,49.401c3.75,0,6.791-3.039,6.791-6.788
		c0-3.754-3.041-6.794-6.791-6.794s-6.789,3.04-6.789,6.794C121.455,46.362,124.494,49.401,128.244,49.401"/>
	<path fill="#FFFFFF" d="M46.402,63.278c3.464,0,6.278-2.817,6.278-6.284c0-3.473-2.814-6.292-6.278-6.292
		c-3.481,0-6.297,2.819-6.297,6.292C40.105,60.461,42.921,63.278,46.402,63.278"/>
	<path fill="#FFFFFF" d="M30.862,77.063l2.692-1.635v7.878c-2.238,0.4-4.356,1.16-6.28,2.223L30.862,77.063L30.862,77.063z
		 M52.795,103.516c-0.016,8.617-7.003,15.59-15.614,15.605c-8.609-0.016-15.585-6.988-15.61-15.605
		c0.025-7.371,5.122-13.531,11.984-15.172c1.159-0.281,2.374-0.432,3.626-0.432c3.133,0,6.05,0.938,8.498,2.523
		c1.487,0.973,2.811,2.197,3.898,3.611c0.873,1.146,1.596,2.42,2.129,3.783C52.4,99.586,52.779,101.506,52.795,103.516
		 M67.412,114.883l-0.006-2.789v-6.678H67.4l-0.02-11.242c0-2.033-1.648-3.689-3.679-3.695l-10.684-0.035
		c-1.015-1.23-2.171-2.336-3.439-3.297V72.718c0-4.426-3.591-8.009-8.022-8.009c-1.76,0-3.399,0.583-4.736,1.558
		c-0.077,0.047-0.16,0.072-0.232,0.117l-9.769,5.92c-0.553,0.339-0.983,0.839-1.236,1.437l-5.537,13.054
		c-0.594,1.408-0.061,3.008,1.188,3.793c-2.863,3.531-4.587,8.025-4.587,12.928c0,11.346,9.195,20.531,20.536,20.533
		c11.337-0.002,20.536-9.188,20.536-20.533c0-1.965-0.287-3.869-0.798-5.668l3.072,0.016l0.029,17.031
		c0,2.033,1.653,3.691,3.692,3.691h3.693v-3.619C67.412,114.939,67.412,114.912,67.412,114.883"/>
</g>
</svg>
