<?xml version="1.0" encoding="utf-8"?>
<!-- Generator: Adobe Illustrator 16.0.0, SVG Export Plug-In . SVG Version: 6.00 Build 0)  -->
<!DOCTYPE svg PUBLIC "-//W3C//DTD SVG 1.1//EN" "http://www.w3.org/Graphics/SVG/1.1/DTD/svg11.dtd">
<svg version="1.1" id="Ebene_1" xmlns="http://www.w3.org/2000/svg" xmlns:xlink="http://www.w3.org/1999/xlink" x="0px" y="0px"
	 width="159.449px" height="159.45px" viewBox="0 0 159.449 159.45" enable-background="new 0 0 159.449 159.45"
	 xml:space="preserve">
<g>
	<g>
		<defs>
			<rect id="SVGID_1_" y="0" width="159.449" height="159.449"/>
		</defs>
		<clipPath id="SVGID_2_">
			<use xlink:href="#SVGID_1_"  overflow="visible"/>
		</clipPath>
		<path clip-path="url(#SVGID_2_)" fill="#4D4C4C" d="M149.35,0H10.099C4.516,0,0,4.517,0,10.099V149.35
			c0,5.584,4.516,10.1,10.099,10.1h139.25c5.582,0,10.1-4.516,10.1-10.1V10.099C159.449,4.517,154.932,0,149.35,0"/>
	</g>
	<path fill="#FFFFFF" d="M79.59,88.213L72.91,47.381c-0.354-2.218-3.014-4.131-4.508-4.83c-3.292-1.542-7.53-2.408-14.459-2.408
		c-6.931,0-11.174,0.865-14.462,2.408c-1.495,0.699-4.155,2.612-4.502,4.83l-6.679,40.832c-0.351,2.234,1.176,4.344,3.411,4.697
		c0.217,0.025,0.43,0.045,0.644,0.045c1.985,0,3.731-1.439,4.05-3.463H36.4l5.897-34.224h2.022
		c-2.269,15.165-4.535,27.673-6.313,38.507c-0.443,2.703,1.482,5.074,4.105,6.17v40.219h4.743c3.022,0,5.47-2.451,5.47-5.473
		v-34.096h3.231v34.096c0,3.021,2.455,5.473,5.474,5.473h4.741V99.946c2.625-1.096,4.551-3.467,4.102-6.17
		c-1.774-10.834-4.038-23.342-6.311-38.507h2.027l5.896,34.224c0.312,2.023,2.064,3.463,4.041,3.463c0.213,0,0.435-0.02,0.651-0.045
		C78.411,92.557,79.938,90.448,79.59,88.213 M53.942,37.894c5.133,0,9.305-4.165,9.305-9.301c0-5.142-4.171-9.308-9.305-9.308
		c-5.138,0-9.304,4.166-9.304,9.308C44.638,33.729,48.804,37.894,53.942,37.894"/>
	<path fill="#FFFFFF" d="M129.434,48.198c0-1.202-0.641-2.695-1.334-3.223c-4.654-3.545-9.748-5.23-19.094-5.23
		c-9.342,0-14.438,1.685-19.092,5.23c-0.693,0.527-1.336,2.021-1.336,3.223l-1.77,40.654c0,2.271,1.84,4.104,4.107,4.104
		c2.264,0,4.102-1.832,4.102-4.104l1.439-33.51h2.152L97.15,81.596l0.004,58.568h5.104c3.021,0,5.471-2.451,5.471-5.473V90.137
		h2.553v44.555c0,3.021,2.451,5.473,5.475,5.473h5.104V81.596l-1.457-26.254h2.15l1.443,33.51c0,2.271,1.834,4.104,4.104,4.104
		c2.268,0,4.102-1.832,4.102-4.104L129.434,48.198L129.434,48.198z M109.006,37.894c5.139,0,9.303-4.165,9.303-9.301
		c0-5.142-4.164-9.308-9.303-9.308c-5.135,0-9.301,4.166-9.301,9.308C99.705,33.729,103.871,37.894,109.006,37.894"/>
</g>
</svg>
