<?xml version="1.0" encoding="utf-8"?>
<!-- Generator: Adobe Illustrator 16.0.0, SVG Export Plug-In . SVG Version: 6.00 Build 0)  -->
<!DOCTYPE svg PUBLIC "-//W3C//DTD SVG 1.1//EN" "http://www.w3.org/Graphics/SVG/1.1/DTD/svg11.dtd">
<svg version="1.1" id="Ebene_1" xmlns="http://www.w3.org/2000/svg" xmlns:xlink="http://www.w3.org/1999/xlink" x="0px" y="0px"
	 width="159.449px" height="159.45px" viewBox="0 0 159.449 159.45" enable-background="new 0 0 159.449 159.45"
	 xml:space="preserve">
<g>
	<g>
		<defs>
			<rect id="SVGID_1_" y="0" width="159.449" height="159.449"/>
		</defs>
		<clipPath id="SVGID_2_">
			<use xlink:href="#SVGID_1_"  overflow="visible"/>
		</clipPath>
		<path clip-path="url(#SVGID_2_)" fill="#4D4C4C" d="M149.35,0H10.099C4.516,0,0,4.517,0,10.099V149.35
			c0,5.584,4.516,10.1,10.099,10.1h139.25c5.582,0,10.1-4.516,10.1-10.1V10.099C159.449,4.517,154.932,0,149.35,0"/>
	</g>
	<path fill="#FFFFFF" d="M79.724,37.894c5.139,0,9.305-4.164,9.305-9.302c0-5.14-4.166-9.306-9.305-9.306
		c-5.137,0-9.302,4.166-9.302,9.306C70.422,33.73,74.587,37.894,79.724,37.894 M100.15,48.2c0-1.202-0.641-2.697-1.334-3.223
		c-4.656-3.548-9.748-5.233-19.092-5.233s-14.439,1.685-19.091,5.233c-0.695,0.526-1.336,2.021-1.336,3.223l-1.769,40.652
		c0,2.271,1.838,4.105,4.105,4.105c2.264,0,4.103-1.834,4.103-4.105l1.438-33.511h2.152l-1.458,26.257l0.002,58.566h5.106
		c3.021,0,5.47-2.447,5.47-5.471V90.139H81v44.555c0,3.023,2.45,5.471,5.473,5.471h5.105V81.598l-1.457-26.257h2.152l1.438,33.511
		c0,2.271,1.836,4.105,4.104,4.105c2.266,0,4.107-1.834,4.107-4.105L100.15,48.2L100.15,48.2z"/>
</g>
</svg>
