<?xml version="1.0" encoding="utf-8"?>
<!-- Generator: Adobe Illustrator 16.0.0, SVG Export Plug-In . SVG Version: 6.00 Build 0)  -->
<!DOCTYPE svg PUBLIC "-//W3C//DTD SVG 1.1//EN" "http://www.w3.org/Graphics/SVG/1.1/DTD/svg11.dtd">
<svg version="1.1" id="Ebene_1" xmlns="http://www.w3.org/2000/svg" xmlns:xlink="http://www.w3.org/1999/xlink" x="0px" y="0px"
	 width="159.449px" height="159.45px" viewBox="0 0 159.449 159.45" enable-background="new 0 0 159.449 159.45"
	 xml:space="preserve">
<g>
	<g>
		<defs>
			<rect id="SVGID_1_" y="0" width="159.449" height="159.449"/>
		</defs>
		<clipPath id="SVGID_2_">
			<use xlink:href="#SVGID_1_"  overflow="visible"/>
		</clipPath>
		<path clip-path="url(#SVGID_2_)" fill="#4D4C4C" d="M149.35,0H10.099C4.516,0,0,4.517,0,10.099V149.35
			c0,5.584,4.516,10.1,10.099,10.1h139.25c5.582,0,10.1-4.516,10.1-10.1V10.099C159.449,4.517,154.932,0,149.35,0"/>
	</g>
	<path fill="#FFFFFF" d="M86.514,42.323c5.377,0,9.746-4.373,9.746-9.755c0-5.391-4.369-9.767-9.746-9.767
		c-5.404,0-9.773,4.376-9.773,9.767C76.74,37.95,81.109,42.323,86.514,42.323"/>
	<path fill="#FFFFFF" d="M62.393,63.72l4.179-2.539V73.41c-3.474,0.62-6.762,1.802-9.748,3.449L62.393,63.72L62.393,63.72z
		 M96.436,104.778c-0.023,13.377-10.869,24.199-24.234,24.227c-13.363-0.027-24.192-10.85-24.231-24.227
		c0.039-11.441,7.949-21.002,18.602-23.551c1.797-0.436,3.685-0.668,5.629-0.668c4.863,0,9.389,1.455,13.189,3.916
		c2.309,1.508,4.363,3.41,6.053,5.605c1.354,1.781,2.477,3.756,3.305,5.873C95.824,98.68,96.412,101.659,96.436,104.778
		 M119.125,122.422l-0.01-4.328v-10.367h-0.01l-0.029-17.447c0-3.158-2.561-5.727-5.713-5.736l-16.582-0.055
		c-1.574-1.91-3.369-3.627-5.338-5.119V56.976c0-6.87-5.574-12.432-12.453-12.432c-2.733,0-5.276,0.906-7.352,2.419
		c-0.12,0.073-0.249,0.111-0.36,0.18l-15.164,9.19c-0.859,0.526-1.527,1.303-1.92,2.23l-8.594,20.262
		c-0.922,2.187-0.094,4.667,1.843,5.886c-4.443,5.48-7.12,12.459-7.12,20.066c0,17.611,14.271,31.867,31.876,31.871
		c17.598-0.004,31.877-14.26,31.877-31.871c0-3.049-0.445-6.004-1.24-8.797l4.77,0.025l0.043,26.434c0,3.158,2.566,5.73,5.732,5.73
		h5.732v-5.617C119.125,122.51,119.125,122.469,119.125,122.422"/>
</g>
</svg>
