<?xml version="1.0" encoding="utf-8"?>
<!-- Generator: Adobe Illustrator 16.0.0, SVG Export Plug-In . SVG Version: 6.00 Build 0)  -->
<!DOCTYPE svg PUBLIC "-//W3C//DTD SVG 1.1//EN" "http://www.w3.org/Graphics/SVG/1.1/DTD/svg11.dtd">
<svg version="1.1" id="Ebene_1" xmlns="http://www.w3.org/2000/svg" xmlns:xlink="http://www.w3.org/1999/xlink" x="0px" y="0px"
	 width="159.449px" height="159.45px" viewBox="0 0 159.449 159.45" enable-background="new 0 0 159.449 159.45"
	 xml:space="preserve">
<g>
	<g>
		<defs>
			<rect id="SVGID_1_" y="0" width="159.449" height="159.449"/>
		</defs>
		<clipPath id="SVGID_2_">
			<use xlink:href="#SVGID_1_"  overflow="visible"/>
		</clipPath>
		<path clip-path="url(#SVGID_2_)" fill="#4D4C4C" d="M149.35,0H10.099C4.516,0,0,4.517,0,10.099V149.35
			c0,5.584,4.516,10.1,10.099,10.1h139.25c5.582,0,10.1-4.516,10.1-10.1V10.099C159.449,4.517,154.932,0,149.35,0"/>
	</g>
	<path fill="#FFFFFF" d="M105.371,88.213L98.689,47.38c-0.354-2.218-3.014-4.13-4.508-4.828c-3.291-1.544-7.529-2.41-14.458-2.41
		c-6.931,0-11.174,0.866-14.461,2.41c-1.496,0.698-4.158,2.61-4.504,4.828l-6.68,40.833c-0.351,2.232,1.176,4.344,3.411,4.695
		c0.219,0.027,0.431,0.045,0.645,0.045c1.984,0,3.729-1.438,4.05-3.463h-0.002l5.897-34.222h2.022
		c-2.269,15.164-4.536,27.671-6.314,38.507c-0.442,2.703,1.482,5.074,4.104,6.17v40.219h4.743c3.022,0,5.47-2.451,5.47-5.473
		v-34.098h3.23v34.098c0,3.021,2.455,5.473,5.475,5.473h4.74V99.946c2.625-1.096,4.551-3.467,4.104-6.17
		c-1.777-10.836-4.039-23.343-6.312-38.507h2.027l5.896,34.222c0.312,2.025,2.064,3.463,4.041,3.463c0.213,0,0.434-0.018,0.65-0.045
		C104.191,92.557,105.719,90.446,105.371,88.213 M79.724,37.892c5.131,0,9.303-4.164,9.303-9.299c0-5.144-4.172-9.308-9.303-9.308
		c-5.136,0-9.304,4.165-9.304,9.308C70.42,33.728,74.588,37.892,79.724,37.892"/>
</g>
</svg>
