<?xml version="1.0" encoding="utf-8"?>
<!-- Generator: Adobe Illustrator 16.0.0, SVG Export Plug-In . SVG Version: 6.00 Build 0)  -->
<!DOCTYPE svg PUBLIC "-//W3C//DTD SVG 1.1//EN" "http://www.w3.org/Graphics/SVG/1.1/DTD/svg11.dtd">
<svg version="1.1" id="Ebene_1" xmlns="http://www.w3.org/2000/svg" xmlns:xlink="http://www.w3.org/1999/xlink" x="0px" y="0px"
	 width="159.449px" height="159.45px" viewBox="0 0 159.449 159.45" enable-background="new 0 0 159.449 159.45"
	 xml:space="preserve">
<g>
	<g>
		<defs>
			<rect id="SVGID_1_" y="0" width="159.449" height="159.449"/>
		</defs>
		<clipPath id="SVGID_2_">
			<use xlink:href="#SVGID_1_"  overflow="visible"/>
		</clipPath>
		<path clip-path="url(#SVGID_2_)" fill="#4D4C4C" d="M149.35,0H10.099C4.516,0,0,4.517,0,10.099V149.35
			c0,5.584,4.516,10.1,10.099,10.1h139.25c5.582,0,10.1-4.516,10.1-10.1V10.099C159.449,4.517,154.932,0,149.35,0"/>
	</g>
	<path fill="#FFFFFF" d="M60.478,56.905c4.746,0,8.602-3.86,8.602-8.609c0-4.758-3.856-8.622-8.602-8.622
		c-4.77,0-8.626,3.864-8.626,8.622C51.852,53.045,55.708,56.905,60.478,56.905"/>
	<path fill="#FFFFFF" d="M39.188,75.792l3.689-2.241v10.793c-3.067,0.549-5.969,1.592-8.604,3.045L39.188,75.792L39.188,75.792z
		 M69.236,112.032c-0.021,11.809-9.594,21.361-21.391,21.385c-11.795-0.023-21.353-9.576-21.388-21.385
		c0.035-10.1,7.016-18.537,16.419-20.787c1.586-0.383,3.252-0.59,4.969-0.59c4.292,0,8.287,1.283,11.642,3.457
		c2.038,1.332,3.852,3.012,5.341,4.947c1.195,1.572,2.187,3.316,2.917,5.184C68.696,106.649,69.215,109.28,69.236,112.032
		 M89.264,127.606l-0.008-3.82v-9.148h-0.01l-0.027-15.402c0-2.787-2.258-5.055-5.041-5.062l-14.637-0.049
		c-1.39-1.688-2.975-3.201-4.712-4.518V69.839c0-6.063-4.919-10.973-10.99-10.973c-2.412,0-4.658,0.799-6.49,2.134
		c-0.105,0.065-0.219,0.099-0.318,0.16l-13.384,8.111c-0.758,0.464-1.348,1.149-1.695,1.968l-7.586,17.885
		c-0.813,1.93-0.083,4.119,1.627,5.195c-3.922,4.838-6.284,10.996-6.284,17.711c0,15.545,12.597,28.129,28.136,28.131
		c15.532-0.002,28.135-12.586,28.135-28.131c0-2.691-0.392-5.299-1.093-7.766l4.209,0.021l0.04,23.334
		c0,2.787,2.264,5.059,5.059,5.059h5.061v-4.959C89.264,127.684,89.264,127.649,89.264,127.606"/>
	<path fill="#FFFFFF" d="M137.971,48.198c0-1.203-0.639-2.695-1.332-3.223c-4.656-3.546-9.748-5.23-19.094-5.23
		c-9.344,0-14.438,1.684-19.092,5.23c-0.695,0.527-1.336,2.02-1.336,3.223l-1.77,40.654c0,2.271,1.84,4.104,4.105,4.104
		s4.104-1.832,4.104-4.104l1.438-33.511h2.154l-1.461,26.255l0.004,58.568h5.105c3.021,0,5.471-2.451,5.471-5.473V90.137h2.553
		v44.555c0,3.021,2.451,5.473,5.475,5.473h5.104V81.596l-1.457-26.255h2.15l1.443,33.511c0,2.271,1.834,4.104,4.102,4.104
		s4.104-1.832,4.104-4.104L137.971,48.198L137.971,48.198z M117.545,37.893c5.139,0,9.303-4.164,9.303-9.3
		c0-5.143-4.164-9.308-9.303-9.308c-5.137,0-9.301,4.165-9.301,9.308C108.244,33.729,112.408,37.893,117.545,37.893"/>
</g>
</svg>
