<?xml version="1.0" encoding="utf-8"?>
<!-- Generator: Adobe Illustrator 16.0.0, SVG Export Plug-In . SVG Version: 6.00 Build 0)  -->
<!DOCTYPE svg PUBLIC "-//W3C//DTD SVG 1.1//EN" "http://www.w3.org/Graphics/SVG/1.1/DTD/svg11.dtd">
<svg version="1.1" id="Ebene_1" xmlns="http://www.w3.org/2000/svg" xmlns:xlink="http://www.w3.org/1999/xlink" x="0px" y="0px"
	 width="159.449px" height="159.45px" viewBox="0 0 159.449 159.45" enable-background="new 0 0 159.449 159.45"
	 xml:space="preserve">
<g>
	<g>
		<defs>
			<rect id="SVGID_1_" y="0" width="159.449" height="159.449"/>
		</defs>
		<clipPath id="SVGID_2_">
			<use xlink:href="#SVGID_1_"  overflow="visible"/>
		</clipPath>
		<path clip-path="url(#SVGID_2_)" fill="#4D4C4C" d="M149.35,0H10.099C4.517,0,0,4.517,0,10.099V149.35
			c0,5.584,4.516,10.1,10.099,10.1h139.25c5.582,0,10.1-4.516,10.1-10.1V10.099C159.449,4.517,154.932,0,149.35,0"/>
	</g>
	<path fill="#FFFFFF" d="M141.439,88.213l-6.68-40.833c-0.354-2.218-3.014-4.131-4.508-4.829c-3.291-1.543-7.531-2.409-14.459-2.409
		c-6.932,0-11.172,0.866-14.463,2.409c-1.494,0.698-4.156,2.611-4.502,4.829l-6.68,40.833c-0.352,2.234,1.176,4.344,3.41,4.695
		c0.219,0.027,0.43,0.047,0.645,0.047c1.984,0,3.729-1.439,4.049-3.463H98.25l5.898-34.223h2.021
		c-2.268,15.164-4.535,27.672-6.314,38.506c-0.441,2.703,1.482,5.074,4.105,6.17v40.219h4.744c3.021,0,5.469-2.451,5.469-5.471
		v-34.1h3.232v34.1c0,3.02,2.453,5.471,5.473,5.471h4.742V99.946c2.625-1.096,4.551-3.467,4.102-6.17
		c-1.775-10.834-4.037-23.342-6.311-38.506h2.027l5.896,34.223c0.312,2.023,2.062,3.463,4.039,3.463c0.215,0,0.436-0.02,0.65-0.047
		C140.262,92.557,141.789,90.448,141.439,88.213 M115.793,37.893c5.133,0,9.305-4.164,9.305-9.3c0-5.143-4.172-9.308-9.305-9.308
		c-5.137,0-9.305,4.166-9.305,9.308C106.488,33.729,110.656,37.893,115.793,37.893"/>
	<path fill="#FFFFFF" d="M58.729,56.905c4.746,0,8.602-3.86,8.602-8.61c0-4.758-3.855-8.621-8.602-8.621
		c-4.77,0-8.627,3.863-8.627,8.621C50.102,53.045,53.959,56.905,58.729,56.905"/>
	<path fill="#FFFFFF" d="M37.438,75.792l3.689-2.241v10.793c-3.067,0.549-5.968,1.592-8.605,3.045L37.438,75.792L37.438,75.792z
		 M67.487,112.032c-0.021,11.809-9.594,21.361-21.391,21.385c-11.795-0.023-21.354-9.576-21.388-21.385
		c0.034-10.1,7.016-18.537,16.419-20.787c1.586-0.383,3.252-0.588,4.969-0.588c4.292,0,8.287,1.281,11.642,3.455
		c2.038,1.332,3.852,3.012,5.341,4.947c1.196,1.572,2.187,3.316,2.917,5.184C66.946,106.649,67.466,109.28,67.487,112.032
		 M87.514,127.608l-0.008-3.822v-9.148h-0.01l-0.027-15.402c0-2.785-2.258-5.055-5.039-5.062l-14.638-0.049
		c-1.39-1.686-2.975-3.201-4.712-4.518V69.839c0-6.063-4.919-10.972-10.991-10.972c-2.412,0-4.657,0.799-6.489,2.134
		c-0.105,0.064-0.219,0.099-0.318,0.16l-13.384,8.111c-0.758,0.464-1.348,1.149-1.695,1.968l-7.585,17.885
		c-0.814,1.93-0.084,4.119,1.627,5.195c-3.922,4.838-6.284,10.996-6.284,17.711c0,15.545,12.597,28.129,28.136,28.133
		c15.532-0.004,28.135-12.588,28.135-28.133c0-2.691-0.392-5.297-1.093-7.766l4.209,0.023l0.04,23.332
		c0,2.787,2.265,5.059,5.059,5.059h5.061v-4.959C87.514,127.684,87.514,127.649,87.514,127.608"/>
</g>
</svg>
