<?xml version="1.0" encoding="UTF-8" standalone="no"?>
<svg
   xmlns:dc="http://purl.org/dc/elements/1.1/"
   xmlns:cc="http://creativecommons.org/ns#"
   xmlns:rdf="http://www.w3.org/1999/02/22-rdf-syntax-ns#"
   xmlns:svg="http://www.w3.org/2000/svg"
   xmlns="http://www.w3.org/2000/svg"
   xmlns:sodipodi="http://sodipodi.sourceforge.net/DTD/sodipodi-0.dtd"
   xmlns:inkscape="http://www.inkscape.org/namespaces/inkscape"
   height="445.25"
   id="svg2"
   version="1.0"
   width="366.75"
   inkscape:version="0.91 r13725"
   sodipodi:docname="drink-fountain.svg">
  <metadata
     id="metadata40">
    <rdf:RDF>
      <cc:Work
         rdf:about="">
        <dc:format>image/svg+xml</dc:format>
        <dc:type
           rdf:resource="http://purl.org/dc/dcmitype/StillImage" />
      </cc:Work>
    </rdf:RDF>
  </metadata>
  <sodipodi:namedview
     pagecolor="#ffffff"
     bordercolor="#666666"
     borderopacity="1"
     objecttolerance="10"
     gridtolerance="10"
     guidetolerance="10"
     inkscape:pageopacity="0"
     inkscape:pageshadow="2"
     inkscape:window-width="1855"
     inkscape:window-height="1056"
     id="namedview38"
     showgrid="false"
     inkscape:zoom="11.99342"
     inkscape:cx="71.123581"
     inkscape:cy="241.20031"
     inkscape:window-x="65"
     inkscape:window-y="24"
     inkscape:window-maximized="1"
     inkscape:current-layer="svg2" />
  <defs
     id="defs73" />
  <path
     style="display:inline;fill:#008855;fill-opacity:1"
     d="m 77.185993,183.15467 c -8.83579,0 -16,7.38808 -16,16.5 0,9.11192 13.3334,27.5 16,27.5 2.66668,0 16,-18.3881 16,-27.5 0,-9.11192 -7.16411,-16.5 -16,-16.5 z"
     id="path5-2-0-1-7-4-2-6"
     inkscape:connector-curvature="0"
     inkscape:export-filename="c:\02_DEV\01_projects\02_indrz\gitlab_wu\indrz\homepage\static\homepage\img\security_safety_doctor.png"
     inkscape:export-xdpi="90"
     inkscape:export-ydpi="90" />
  <g
     id="g4"
     style="fill:#ffffff;fill-rule:evenodd;stroke:none;stroke-width:0pt;stroke-linecap:butt;stroke-linejoin:miter;stroke-dasharray:none"
     transform="matrix(0.0499214,0,0,0.0499214,78.11051,189.23368)">
    <path
       d="M 45,90 C 69,90 89,70 90,46 89,20 69,0 45,1 20,0 0,20 0,46 0,70 20,90 45,90 Z"
       id="path6"
       inkscape:connector-curvature="0"
       style="fill:#ffffff" />
  </g>
  <g
     id="g8"
     style="fill:#ffffff;fill-rule:evenodd;stroke:none;stroke-width:0pt;stroke-linecap:butt;stroke-linejoin:miter;stroke-dasharray:none"
     transform="matrix(0.0499214,0,0,0.0499214,68.82514,191.28046)">
    <path
       d="m 128,13 c 25,-13 61,11 61,38 0,0 0,85 0,85 0,0 41,45 41,45 18,21 -11,49 -32,29 0,0 -46,-51 -46,-51 -3,-3 -5,-6 -5,-14 0,0 0,-41 0,-41 0,0 -80,44 -80,44 0,0 0,217 0,217 0,49 -67,48 -66,0 C 1,365 1,108 1,108 0,93 6,79 21,71 21,71 128,13 128,13 Z"
       id="path10"
       inkscape:connector-curvature="0"
       style="fill:#ffffff" />
  </g>
  <g
     id="g12"
     style="fill:#ffffff;fill-rule:evenodd;stroke:none;stroke-width:0pt;stroke-linecap:butt;stroke-linejoin:miter;stroke-dasharray:none"
     transform="matrix(0.0499214,0,0,0.0499214,78.65965,196.5222)">
    <path
       d="m 97,129 c 0,0 71,0 71,0 0,0 0,-129 0,-129 C 168,0 26,0 26,0 7,0 0,20 12,34 c 0,0 85,95 85,95 z"
       id="path14"
       inkscape:connector-curvature="0"
       style="fill:#ffffff" />
  </g>
  <g
     id="g16"
     style="fill:#ffffff;fill-rule:evenodd;stroke:none;stroke-width:0pt;stroke-linecap:butt;stroke-linejoin:miter;stroke-dasharray:none"
     transform="matrix(0.0499214,0,0,0.0499214,81.20564,195.67354)">
    <path
       d="M 5,11 C 8,11 11,9 11,6 11,2 8,0 5,0 2,0 0,2 0,6 c 0,3 2,5 5,5 z"
       id="path18"
       inkscape:connector-curvature="0"
       style="fill:#ffffff" />
  </g>
  <g
     id="g20"
     style="fill:#ffffff;fill-rule:evenodd;stroke:none;stroke-width:0pt;stroke-linecap:butt;stroke-linejoin:miter;stroke-dasharray:none"
     transform="matrix(0.0499214,0,0,0.0499214,81.90454,195.72346)">
    <path
       d="M 6,11 C 9,11 11,8 11,6 11,2 9,0 6,0 3,0 0,2 1,6 0,8 3,11 6,11 Z"
       id="path22"
       inkscape:connector-curvature="0"
       style="fill:#ffffff" />
  </g>
  <g
     id="g24"
     style="fill:#ffffff;fill-rule:evenodd;stroke:none;stroke-width:0pt;stroke-linecap:butt;stroke-linejoin:miter;stroke-dasharray:none"
     transform="matrix(0.0499214,0,0,0.0499214,81.95446,194.92472)">
    <path
       d="M 6,11 C 9,11 11,8 11,5 11,2 9,0 6,0 3,0 0,2 0,5 c 0,3 3,6 6,6 z"
       id="path26"
       inkscape:connector-curvature="0"
       style="fill:#ffffff" />
  </g>
  <g
     id="g28"
     style="fill:#ffffff;fill-rule:evenodd;stroke:none;stroke-width:0pt;stroke-linecap:butt;stroke-linejoin:miter;stroke-dasharray:none"
     transform="matrix(0.0499214,0,0,0.0499214,81.25556,194.8748)">
    <path
       d="M 5,11 C 8,11 11,8 11,5 11,2 8,0 5,0 2,0 0,2 0,5 c 0,3 2,6 5,6 z"
       id="path30"
       inkscape:connector-curvature="0"
       style="fill:#ffffff" />
  </g>
  <g
     id="g32"
     style="fill:#ffffff;fill-rule:evenodd;stroke:none;stroke-width:0pt;stroke-linecap:butt;stroke-linejoin:miter;stroke-dasharray:none"
     transform="matrix(0.0499214,0,0,0.0499214,81.45525,194.07606)">
    <path
       d="M 6,12 C 9,12 12,9 12,6 12,3 9,0 6,0 3,0 0,3 0,6 c 0,3 3,6 6,6 z"
       id="path34"
       inkscape:connector-curvature="0"
       style="fill:#ffffff" />
  </g>
  <g
     id="g36"
     style="fill:#ffffff;fill-rule:evenodd;stroke:none;stroke-width:0pt;stroke-linecap:butt;stroke-linejoin:miter;stroke-dasharray:none"
     transform="matrix(0.0499214,0,0,0.0499214,82.35383,194.22582)">
    <path
       d="M 6,12 C 9,12 11,9 12,6 11,3 9,0 6,0 2,0 0,3 0,6 c 0,3 2,6 6,6 z"
       id="path38"
       inkscape:connector-curvature="0"
       style="fill:#ffffff" />
  </g>
  <g
     id="g40"
     style="fill:#ffffff;fill-rule:evenodd;stroke:none;stroke-width:0pt;stroke-linecap:butt;stroke-linejoin:miter;stroke-dasharray:none"
     transform="matrix(0.0499214,0,0,0.0499214,82.00438,193.477)">
    <path
       d="M 7,12 C 10,12 12,9 13,6 12,2 10,0 7,0 3,0 0,2 1,6 0,9 3,12 7,12 Z"
       id="path42"
       inkscape:connector-curvature="0"
       style="fill:#ffffff" />
  </g>
  <g
     id="g44"
     style="fill:#ffffff;fill-rule:evenodd;stroke:none;stroke-width:0pt;stroke-linecap:butt;stroke-linejoin:miter;stroke-dasharray:none"
     transform="matrix(0.0499214,0,0,0.0499214,83.05273,193.92629)">
    <path
       d="M 6,13 C 9,12 12,10 12,7 12,3 9,0 6,0 3,0 0,3 0,7 c 0,3 3,5 6,6 z"
       id="path46"
       inkscape:connector-curvature="0"
       style="fill:#ffffff" />
  </g>
  <g
     id="g48"
     style="fill:#ffffff;fill-rule:evenodd;stroke:none;stroke-width:0pt;stroke-linecap:butt;stroke-linejoin:miter;stroke-dasharray:none"
     transform="matrix(0.0499214,0,0,0.0499214,82.70328,193.17747)">
    <path
       d="M 7,13 C 10,12 12,10 13,7 12,3 10,0 7,1 3,0 0,3 1,7 c -1,3 2,5 6,6 z"
       id="path50"
       inkscape:connector-curvature="0"
       style="fill:#ffffff" />
  </g>
  <g
     id="g52"
     style="fill:#ffffff;fill-rule:evenodd;stroke:none;stroke-width:0pt;stroke-linecap:butt;stroke-linejoin:miter;stroke-dasharray:none"
     transform="matrix(0.0499214,0,0,0.0499214,83.50202,193.12755)">
    <path
       d="M 7,14 C 10,13 13,10 14,7 13,3 10,0 7,0 3,0 0,3 0,7 c 0,3 3,6 7,7 z"
       id="path54"
       inkscape:connector-curvature="0"
       style="fill:#ffffff" />
  </g>
  <g
     id="g56"
     style="fill:#ffffff;fill-rule:evenodd;stroke:none;stroke-width:0pt;stroke-linecap:butt;stroke-linejoin:miter;stroke-dasharray:none"
     transform="matrix(0.0499214,0,0,0.0499214,83.75163,194.1759)">
    <path
       d="m 7,13 c 4,0 7,-3 7,-6 C 14,3 11,0 7,0 3,0 0,3 0,7 c 0,3 3,6 7,6 z"
       id="path58"
       inkscape:connector-curvature="0"
       style="fill:#ffffff" />
  </g>
  <g
     id="g60"
     style="fill:#ffffff;fill-rule:evenodd;stroke:none;stroke-width:0pt;stroke-linecap:butt;stroke-linejoin:miter;stroke-dasharray:none"
     transform="matrix(0.0499214,0,0,0.0499214,84.25085,193.477)">
    <path
       d="M 7,15 C 11,14 14,11 14,8 14,4 11,0 7,1 3,0 0,4 0,8 c 0,3 3,6 7,7 z"
       id="path62"
       inkscape:connector-curvature="0"
       style="fill:#ffffff" />
  </g>
  <g
     id="g64"
     style="fill:#ffffff;fill-rule:evenodd;stroke:none;stroke-width:0pt;stroke-linecap:butt;stroke-linejoin:miter;stroke-dasharray:none"
     transform="matrix(0.0499214,0,0,0.0499214,84.89982,194.12598)">
    <path
       d="m 8,15 c 3,0 7,-3 7,-7 C 15,4 11,0 8,0 3,0 0,4 0,8 c 0,4 3,7 8,7 z"
       id="path66"
       inkscape:connector-curvature="0"
       style="fill:#ffffff" />
  </g>
  <g
     id="g68"
     style="fill:#ffffff;fill-rule:evenodd;stroke:none;stroke-width:0pt;stroke-linecap:butt;stroke-linejoin:miter;stroke-dasharray:none"
     transform="matrix(0.0499214,0,0,0.0499214,84.25085,194.77496)">
    <path
       d="m 8,15 c 4,0 7,-3 7,-7 C 15,3 12,0 8,0 4,0 0,3 1,8 c -1,4 3,7 7,7 z"
       id="path70"
       inkscape:connector-curvature="0"
       style="fill:#ffffff" />
  </g>
</svg>
